<svg id="Layer_1" data-name="Layer 1" xmlns="http://www.w3.org/2000/svg" viewBox="0 0 11.5 11.5"><defs><style>.cls-1{fill:#fff;}.cls-2{fill:#2b95ad;}</style></defs><title>icon</title><path class="cls-1" d="M1.92,6.93c.07-.44.07-.44-.37-.44H1.24a.93.93,0,0,1-.93-.92q0-.6,0-1.2a.92.92,0,0,1,1-1c.78,0,1.56,0,2.34,0A8.31,8.31,0,0,0,9.1,1.48l.28-.22a.6.6,0,0,1,1,.34,2.18,2.18,0,0,1,0,.44c0,.63,0,1.25,0,1.87,0,.15,0,.25.21.29a.77.77,0,0,1,0,1.49c-.16,0-.19.1-.19.24,0,.67,0,1.34,0,2a.84.84,0,0,1-.38.77.45.45,0,0,1-.6,0A10.26,10.26,0,0,0,7,7.12a8,8,0,0,0-2-.58A.83.83,0,0,0,4.12,7a.86.86,0,0,0,0,1c.06.1.12.17.06.3a.82.82,0,0,0,.15.93,2.33,2.33,0,0,0,.51.48c.18.12.14.23,0,.35a1.24,1.24,0,0,1-.56.31,2.2,2.2,0,0,1-1,0,1,1,0,0,1-.94-.79c-.1-.48-.32-.93-.39-1.42S1.92,7.34,1.92,6.93Z"/><path class="cls-2" d="M3.63,10.45l-.4,0a1,1,0,0,1-1-.84c0-.2-.11-.39-.17-.58a4.71,4.71,0,0,1-.22-.84q0-.54,0-1V6.93h0c0-.18.06-.31,0-.34s-.16,0-.34,0H1.24a1,1,0,0,1-1-1c0-.41,0-.84,0-1.2a1,1,0,0,1,1-1H1.7c.63,0,1.28,0,1.91,0a8.23,8.23,0,0,0,5.45-1.9l.22-.17.07-.06A.69.69,0,0,1,10,1.08a.72.72,0,0,1,.44.51,1.77,1.77,0,0,1,.05.45V3.91c0,.15,0,.2.16.24a.79.79,0,0,1,.61.82.8.8,0,0,1-.63.77c-.12,0-.14.07-.14.19v2a.88.88,0,0,1-.4.81.49.49,0,0,1-.67,0A10.54,10.54,0,0,0,6.94,7.17,7.92,7.92,0,0,0,5,6.6a.75.75,0,0,0-.81.4.8.8,0,0,0,0,.91l0,0a.3.3,0,0,1,0,.32.78.78,0,0,0,.15.88,2.28,2.28,0,0,0,.49.46A.33.33,0,0,1,5,9.8a.35.35,0,0,1-.12.24,1.41,1.41,0,0,1-.58.32A2.37,2.37,0,0,1,3.63,10.45ZM2,6.94V7.1c0,.35,0,.7,0,1.05A4.59,4.59,0,0,0,2.18,9q.1.3.18.6a.92.92,0,0,0,.89.75,2.24,2.24,0,0,0,1-.06A1.13,1.13,0,0,0,4.78,10a.25.25,0,0,0,.09-.15.24.24,0,0,0-.1-.11,2.87,2.87,0,0,1-.52-.49.87.87,0,0,1-.16-1c0-.1,0-.14,0-.22V8a.92.92,0,0,1,0-1A.87.87,0,0,1,5,6.49a7.52,7.52,0,0,1,2,.58A11.16,11.16,0,0,1,9.49,8.64a.38.38,0,0,0,.53,0,.78.78,0,0,0,.35-.72v-2a.26.26,0,0,1,.22-.3.7.7,0,0,0,0-1.37c-.22-.06-.24-.19-.24-.35V2a1.55,1.55,0,0,0,0-.42A.55.55,0,0,0,10,1.19a.58.58,0,0,0-.54.11l-.06.05-.22.17A8.25,8.25,0,0,1,3.61,3.45c-.64,0-1.28,0-1.91,0H1.27a.87.87,0,0,0-.9.92c0,.36,0,.78,0,1.2a.86.86,0,0,0,.87.86h.31c.24,0,.36,0,.42.08S2,6.69,2,6.94Z"/></svg>