<svg id="Layer_1" data-name="Layer 1" xmlns="http://www.w3.org/2000/svg" viewBox="0 0 11.5 11.5"><defs><style>.cls-1{fill:#fff;}.cls-2{fill:#2b95ad;}</style></defs><title>icon</title><path class="cls-1" d="M10.7,5.62a.11.11,0,0,1-.1-.13c0-.39,0-.34-.33-.34H9a3,3,0,0,0,.28-1.31,2.76,2.76,0,0,0-.47-1.67,1.39,1.39,0,0,0-1.16-.63,1.49,1.49,0,0,0-1.43.94A3,3,0,0,0,6,4a2.44,2.44,0,0,0,.45,1.41A5.15,5.15,0,0,1,7,6.6a3.47,3.47,0,0,1,.28,1s0,.13,0,.15a.38.38,0,0,1-.25,0s0-.13,0-.2A2.23,2.23,0,0,0,4.09,5.62a2.15,2.15,0,0,0-1,.63l0-.08a2.16,2.16,0,0,0-.41-.76.44.44,0,0,0-.49-.16,1.48,1.48,0,0,0-.29.12A3,3,0,0,0,1.1,6,3,3,0,0,0,.7,9.57a.93.93,0,0,0,.42.41h.19a1.37,1.37,0,0,0,.55-.21,2.84,2.84,0,0,0,.47-.37,2.32,2.32,0,0,0,.47-.61s0,.06,0,.09a2.2,2.2,0,0,0,.61.68A2,2,0,0,0,4.49,10H5c.13,0,.26,0,.39-.06a2.44,2.44,0,0,0,.85-.47c.07-.06.12-.07.17,0a1.17,1.17,0,0,0,1.49.36L8,9.8s.07,0,.07,0,.07.14.17.13h2.51a.38.38,0,0,0,.15,0A.13.13,0,0,0,11,9.8V9.11c0-.11,0-.17-.16-.15s-.14,0-.13-.14a.34.34,0,0,0,0-.1c0-.12,0-.16-.16-.16H10c-.09,0-.12,0-.11-.12V7.88A.12.12,0,0,1,10,7.74a1,1,0,0,0,.57-.62.16.16,0,0,1,.12-.1.71.71,0,0,0,0-1.4Z"/><path class="cls-2" d="M1.42,7.1s-.07,0-.09,0,0,.06.06.07.08,0,.06.11-.06.07-.12.05-.06,0-.08,0,0,.07,0,.09a.07.07,0,0,1,.06.1c0,.06-.06.06-.11,0s-.05,0-.07,0,0,0,.05.06.1,0,.08.11-.06.06-.11,0-.07,0-.08.05,0,.06.06.07.12,0,.1.11-.07.06-.13.05-.06,0-.07,0,0,.06.05.07.11,0,.09.11-.1.06-.15,0L.81,8.36c-.05,0-.09,0-.08-.09s0-.08.1-.07.07,0,.08,0,0-.06-.06-.07S.77,8,.78,8a.08.08,0,0,1,.1-.06.06.06,0,0,0,.08,0s0-.06-.06-.07-.09,0-.08-.1a.09.09,0,0,1,.12-.06s.06,0,.08,0a.05.05,0,0,0,0-.07c-.06,0-.12,0-.1-.12s.08-.07.14,0,.05,0,.07,0,0-.06,0-.07S1,7.23,1,7.17s.07-.06.12,0,.07,0,.08,0,0-.06,0-.07a.08.08,0,0,1-.05-.1.08.08,0,0,1,.11,0s.07,0,.08,0,0-.06-.05-.07a.07.07,0,0,1,0-.1c0-.05.05-.06.1-.06s.08,0,.1,0,0-.06-.07-.08a.07.07,0,0,1,0-.1.08.08,0,0,1,.1,0l.3.09c.06,0,.08,0,.07.1a.08.08,0,0,1-.11.06s-.08,0-.1,0,0,.06.06.08a.09.09,0,0,1,.06.1.09.09,0,0,1-.11,0s-.09,0-.12,0,.05.06.08.08.06.06.05.1A.1.1,0,0,1,1.42,7.1Z"/><path class="cls-2" d="M7.29,8.22c0-.05,0-.13.06-.13s.07.06.07.12,0,.12-.07.12S7.29,8.27,7.29,8.22Z"/><path class="cls-2" d="M7.26,8.79c0,.05,0,.1-.07.09s-.07-.09-.09-.15,0-.1.07-.09S7.23,8.74,7.26,8.79Z"/><path class="cls-2" d="M7.83,9s-.08,0-.07-.07a.2.2,0,0,1,.12-.16A.06.06,0,0,1,8,8.84.21.21,0,0,1,7.83,9Z"/><path class="cls-2" d="M7.29,8.75c0-.06,0-.12.06-.12s.07.06.07.11,0,.13-.07.12S7.29,8.79,7.29,8.75Z"/><path class="cls-2" d="M7.1,8.84q0,.09-.06.09c-.09,0-.1-.09-.11-.16A.06.06,0,0,1,7,8.69C7.08,8.71,7.06,8.8,7.1,8.84Z"/><path class="cls-2" d="M7.78,8.77c0,.05,0,.15-.11.16a.05.05,0,0,1,0-.08c0-.06,0-.14.1-.15S7.79,8.72,7.78,8.77Z"/><path class="cls-2" d="M6.82,9a.43.43,0,0,0,0-.05s-.08-.09,0-.15a0,0,0,0,1,.06,0A.19.19,0,0,1,7,8.93C7,9,6.87,9,6.82,9Z"/><path class="cls-2" d="M7,8c.05,0,.08,0,.07.07s0,.14-.1.16-.07,0-.06-.07S7,8.06,7,8Z"/><path class="cls-2" d="M7.26,8.16s0,.13-.08.15a.06.06,0,0,1-.08-.07c0-.06,0-.14.08-.16S7.25,8.11,7.26,8.16Z"/><path class="cls-2" d="M7.45,8.16c0-.05,0-.09.07-.08s.07.1.08.16a.06.06,0,0,1-.07.07C7.45,8.29,7.47,8.21,7.45,8.16Z"/><path class="cls-2" d="M7.6,8.73c0,.06,0,.14-.08.15s-.07,0-.06-.08,0-.14.08-.16S7.6,8.68,7.6,8.73Z"/><path class="cls-2" d="M6.82,9s0,.13-.07.12A.17.17,0,0,1,6.61,9c0-.06,0-.07.1-.05s.06.07.11.08Z"/><path class="cls-2" d="M8,9.11c-.06,0-.09,0-.08-.06A.2.2,0,0,1,8,8.91.05.05,0,0,1,8.09,9C8.08,9.05,8,9.08,8,9.11Z"/><path class="cls-2" d="M7.68,8c.08,0,.08.1.1.16s0,.07-.06.07-.09-.09-.1-.16S7.63,8,7.68,8Z"/><path class="cls-2" d="M9.64,6.58a.05.05,0,0,1-.05,0H9.35s-.06,0-.07,0,0,0,.06-.06.07-.17.1-.27.05-.13-.06-.15,0,0,0,0,.14,0,.21-.06.07,0,.06.06-.05.24-.07.35,0,.1,0,.11S9.65,6.55,9.64,6.58Z"/><path class="cls-2" d="M10.66,5.6a.11.11,0,0,1-.1-.13c0-.38,0-.33-.33-.34H9a3,3,0,0,0,.28-1.31,2.77,2.77,0,0,0-.47-1.67,1.42,1.42,0,0,0-1.16-.63,1.5,1.5,0,0,0-1.43,1A3,3,0,0,0,5.92,4a2.44,2.44,0,0,0,.45,1.41A5.38,5.38,0,0,1,7,6.58a3.57,3.57,0,0,1,.28,1s0,.13,0,.16a.45.45,0,0,1-.25,0s0-.13,0-.21A2.23,2.23,0,0,0,3.08,6.24l0-.09a2.25,2.25,0,0,0-.41-.76.44.44,0,0,0-.49-.15,1.45,1.45,0,0,0-.29.11A3,3,0,0,0,1.06,6a3,3,0,0,0-.4,3.59.91.91,0,0,0,.42.4h.19a1.24,1.24,0,0,0,.55-.21,2.4,2.4,0,0,0,.47-.37,2.16,2.16,0,0,0,.47-.61s0,.06,0,.09a2.09,2.09,0,0,0,.61.68A2,2,0,0,0,4.45,10H5c.13,0,.26,0,.39-.06a2.29,2.29,0,0,0,.85-.47c.07,0,.12-.07.17,0a1.17,1.17,0,0,0,1.49.37l.08,0s.07,0,.07,0,.07.14.17.13h2.66c.08,0,.1-.08.1-.16V9.09c0-.11-.05-.16-.16-.15s-.14,0-.13-.14a.27.27,0,0,0,0-.09c0-.12,0-.17-.16-.17H10c-.09,0-.12,0-.12-.12s0-.38,0-.57,0-.1.08-.13a1.05,1.05,0,0,0,.57-.62.13.13,0,0,1,.12-.1.72.72,0,0,0,.05-1.41ZM6.13,3.53s0-.08.08-.08.08,0,.08.07,0,.07-.08.07S6.13,3.59,6.13,3.53Zm.16.83s0,.06,0,.07-.06,0-.07-.09,0,0,.06,0S6.29,4.32,6.29,4.36Zm-.08-.21s-.07,0-.08-.07,0-.07.08-.07.08,0,.08.07S6.26,4.15,6.21,4.15Zm0-.28c-.06,0-.07,0-.07-.07s0-.07.07-.07.09,0,.09.07S6.24,3.87,6.2,3.87Zm0-.55s-.06,0,0-.06,0-.09.07-.08,0,0,0,.08S6.26,3.32,6.21,3.32ZM6.27,3s0,0,0,0,0-.08,0-.16C6.3,3,6.3,3,6.27,3ZM9,4.41c-.05,0,0-.07,0-.12S9,4.38,9,4.41ZM9,4.08a.06.06,0,0,1,0,.07c-.05,0,0,0,0-.08S8.94,4,9,4,9,4.05,9,4.08Zm0-.21a.05.05,0,0,1-.06-.06s0-.07.05-.08,0,0,0,.07S9,3.87,9,3.87Zm0-.68s.06.07,0,.12H9A.08.08,0,0,1,9,3.19Zm0,.26c.06,0,.06,0,.06.07s0,.07,0,.07-.06,0-.06-.06S8.92,3.46,9,3.45Zm-.25.14c-.05,0-.06,0-.06-.06s0-.08.07-.08.07,0,.07.08S8.76,3.59,8.71,3.59Zm0,.42s.06,0,.06.08,0,.06-.07.06-.07,0-.07-.07S8.68,4,8.73,4ZM8.65,3.8s0-.07.08-.07.06,0,.06.08,0,.06-.07.06S8.65,3.85,8.65,3.8Zm.08,1s.06,0,.06.07,0,.07-.07.07-.07,0-.07-.08S8.69,4.85,8.73,4.85Zm-.08-.21s0-.07.06-.07.08,0,.08.06,0,.08-.06.08S8.65,4.7,8.65,4.64Zm.07-.21c-.05,0-.07,0-.07-.07s0-.07.07-.07.07,0,.07.07S8.77,4.43,8.72,4.43Zm0-1.11s-.06,0-.06-.07,0-.07.07-.07.08,0,.07.06S8.76,3.32,8.71,3.32Zm0-.28C8.66,3,8.65,3,8.65,3s0-.07.07-.07.07,0,.07.07S8.76,3,8.71,3Zm.08-.35s0,.07-.06.07-.08,0-.08-.06,0-.08.06-.08S8.79,2.63,8.79,2.69Zm-.14-.32s.07.06.07.1,0,0-.05,0S8.64,2.42,8.65,2.37Zm.43,5.79c0,.11.06.28,0,.36s-.24,0-.37,0a.23.23,0,0,1-.29-.19A.92.92,0,0,0,8,7.86a.18.18,0,0,1-.1-.19A3.36,3.36,0,0,1,8,7c0-.08.05-.06.11,0a.55.55,0,0,1,.4.37A.9.9,0,0,0,9,7.71a.18.18,0,0,1,.12.2A1.85,1.85,0,0,0,9.08,8.16ZM7.88,5c-.06,0-.07,0-.07-.08s0-.06.07-.06.08,0,.07.07S7.93,5,7.88,5ZM8,5.2s0,.07-.07.07-.07,0-.07-.07,0-.08.07-.07S8,5.15,8,5.2Zm-.13.55c0-.09,0-.18,0-.26s0-.08.07-.08.08,0,.07.08v.13H8v.13c0,.07-.06.06-.1.07S7.82,5.77,7.82,5.75ZM8.44,3S8.37,3,8.37,3s0-.07.06-.07.09,0,.08.07S8.5,3,8.44,3Zm0,.14c.05,0,.07,0,.07.06s0,.08-.07.07-.07,0-.07-.06S8.39,3.18,8.44,3.18Zm0,.69s-.06,0-.06-.07,0-.07.07-.07.07,0,.07.08S8.48,3.87,8.43,3.87Zm0,.42c.06,0,.07,0,.07.08s0,.06-.07.06-.07,0-.07-.08S8.4,4.29,8.44,4.29Zm-.07-.2s0-.08.07-.08.07,0,.07.06,0,.08-.07.08S8.37,4.14,8.37,4.09Zm.06.48c.05,0,.08,0,.08.07s0,.08-.06.07-.08,0-.08-.07S8.38,4.58,8.43,4.57Zm0,.28s.07,0,.07.06,0,.08-.07.08-.07,0-.07-.07S8.39,4.85,8.44,4.85Zm0-1.26s-.07,0-.07,0,0-.09.06-.09.08,0,.08.07S8.5,3.6,8.44,3.59Zm0-.83s-.08,0-.08-.07,0-.07.07-.07.07,0,.07.08S8.5,2.76,8.45,2.76Zm0-.27s-.08,0-.08-.07,0-.08.06-.07.08,0,.08.06S8.51,2.49,8.45,2.49Zm-.07-.43c.06,0,.12,0,.12.12s-.06,0-.08,0S8.38,2.11,8.38,2.06Zm-.29-.19a.26.26,0,0,1,.14.31s-.06,0-.09,0-.05,0-.05-.06Zm.07.48c.05,0,.07,0,.07.07s0,.07-.06.07-.08,0-.08-.07S8.1,2.34,8.16,2.35Zm0,.27s.08,0,.07.06,0,.08-.07.08-.07,0-.07-.07S8.11,2.62,8.16,2.62Zm0,2.65c-.05,0-.08,0-.08-.06s0-.08.07-.08.08,0,.07.06S8.23,5.28,8.17,5.27Zm0-1.4s-.07,0-.07-.06,0-.08.06-.08.09,0,.08.06S8.22,3.87,8.16,3.87Zm0-.83C8.1,3,8.09,3,8.09,3s0-.06.08-.06.07,0,.06.07S8.2,3,8.16,3Zm0,.14c.05,0,.07,0,.07.07s0,.07-.06.07-.08,0-.08-.07S8.1,3.17,8.16,3.18Zm0,.83s.09,0,.08.06,0,.08-.07.08-.07,0-.07-.06S8.09,4,8.15,4Zm0,.28s.09,0,.08.06,0,.08-.06.08-.08,0-.08-.06S8.1,4.29,8.15,4.29Zm0-.84c.05,0,.07,0,.07.06s0,.09-.06.08-.08,0-.08-.06S8.11,3.45,8.16,3.45Zm0,1.12c.05,0,.06,0,.06.07s0,.08-.06.07-.08,0-.08-.07S8.12,4.57,8.17,4.57Zm0,.28c.05,0,.07,0,.07.06s0,.09-.06.08-.08,0-.08-.07S8.11,4.85,8.16,4.85Zm0,.56s.08,0,.08.06,0,.19-.15.18C8.13,5.57,8,5.46,8.15,5.41Zm0,.47s.12-.1.16,0a.22.22,0,0,1,0,.22c-.19.25-.19.25,0,.47s0,.17,0,.25a.47.47,0,0,1-.4-.4A.48.48,0,0,1,8.19,5.88ZM8,4.64c0,.07,0,.07-.08.07s-.06,0-.06-.08,0-.06.08-.06S8,4.6,8,4.64Zm-.07-.21s-.07,0-.07-.06,0-.08.07-.08S8,4.3,8,4.36,7.94,4.43,7.88,4.43Zm0-1.67s-.07,0-.07-.07,0-.07.07-.07.08,0,.07.07S7.94,2.76,7.88,2.76ZM8,3s0,.07-.06.07S7.81,3,7.81,3s0-.08.07-.07S8,2.91,8,3Zm-.07.21c.06,0,.08,0,.07.07s0,.07-.07.07-.07,0-.07-.07S7.83,3.18,7.88,3.18Zm0,.41s-.06,0-.06-.07,0-.07.08-.07.07,0,.06.08S7.92,3.59,7.87,3.59Zm0,.56c-.06,0,0,0-.06-.07s0-.07.08-.07.06,0,.06.08S7.91,4.15,7.87,4.15Zm0-.28s-.08,0-.08-.06,0-.08.06-.08S8,3.74,8,3.8,7.94,3.87,7.89,3.87Zm0-2.1s.08,0,.08.07v.3s0,.07-.06.07-.08,0-.08-.06a.49.49,0,0,0,0-.17.71.71,0,0,1,0-.14S7.8,1.76,7.87,1.77Zm0,.58c.05,0,.06,0,.06.06s0,.08-.07.07-.06,0-.07-.07S7.85,2.35,7.89,2.35ZM7.6,2.9c.05,0,.08,0,.08.06s0,.08-.07.08S7.53,3,7.54,3,7.54,2.9,7.6,2.9Zm-.06-.2s0-.08,0-.08.09,0,.09.06,0,.09-.06.08S7.53,2.75,7.54,2.7Zm.06.48c.05,0,.08,0,.08.06s0,.08-.07.08-.08,0-.07-.07S7.54,3.17,7.6,3.18Zm0-1.44s.07,0,.07.07a.86.86,0,0,0,0,.16,1,1,0,0,0,0,.17s0,.07-.08.07-.06,0-.06-.07V1.81C7.54,1.75,7.56,1.74,7.61,1.74Zm0,.61c.05,0,.08,0,.08.06s0,.08-.07.08-.07,0-.07-.07S7.54,2.34,7.6,2.35Zm0,1.1s.07,0,.07.08,0,.06-.07.06-.07,0-.07-.07S7.56,3.45,7.61,3.45Zm0,.42c-.06,0,0,0,0-.08s0-.06.08-.06.06,0,.06.09S7.63,3.87,7.59,3.87ZM7.6,4c.05,0,.08,0,.08.07s0,.07-.07.07-.08,0-.07-.06S7.55,4,7.6,4Zm0,.28c.06,0,.07,0,.07.07s0,.07-.08.07-.06,0-.06-.08S7.56,4.29,7.61,4.29Zm0,.28c.05,0,.08,0,.08.07s0,.07-.07.07-.07,0-.07-.07S7.55,4.57,7.6,4.57Zm0,.7s-.07,0-.07-.06,0-.08.06-.08.09,0,.07.06S7.67,5.27,7.61,5.27Zm0-.28c-.05,0-.07,0-.07-.07s0-.07.07-.07.07,0,.07.07S7.66,5,7.61,5Zm-.07.74V5.48c0-.05,0-.07.07-.07s.07,0,.07.07a1.45,1.45,0,0,0,0,.36C7.58,5.89,7.52,5.87,7.54,5.73ZM7.32,3.87c-.05,0-.06,0-.06-.07s0-.07.07-.07.07,0,.07.07S7.36,3.87,7.32,3.87Zm0,.14c.06,0,.07,0,.07.08s0,.06-.08.06-.06,0-.06-.07S7.28,4,7.33,4Zm0,.28s.08,0,.08.06,0,.08-.07.08-.07,0-.07-.06S7.26,4.29,7.32,4.29Zm0-.7c-.06,0-.07,0-.07-.07s0-.07.07-.07.07,0,.07.07S7.38,3.6,7.33,3.59Zm0-.27s-.07,0-.07-.06,0-.09.06-.08.09,0,.08.06S7.38,3.32,7.33,3.32ZM7.4,3c0,.07,0,.08-.07.08S7.26,3,7.26,3s0-.06.07-.06S7.41,2.91,7.4,3Zm-.05-1.2c.06,0,.05,0,.05.08v.28c0,.06,0,.09-.08.09s-.06,0-.06-.08V1.84C7.26,1.78,7.3,1.77,7.35,1.76Zm0,.59c.07,0,.07,0,.07.07s0,.06-.08.07-.06,0-.06-.08S7.28,2.34,7.33,2.35Zm0,.27s.09,0,.08.07,0,.07-.07.07-.07,0-.07-.07S7.27,2.62,7.32,2.62Zm0,2s.07,0,.07.07,0,.08-.07.07-.07,0-.07-.08S7.28,4.57,7.33,4.57ZM7,5C7,5,7,5,7,4.91s0-.06.07-.06.08,0,.07.07S7.09,5,7,5Zm0-.28S7,4.69,7,4.64s0-.07.08-.07.06,0,.06.07S7.1,4.71,7.05,4.71ZM7,3.59S7,3.57,7,3.53s0-.08.07-.08.08,0,.07.08S7.09,3.59,7,3.59Zm0,.56S7,4.14,7,4.09,7,4,7,4s.09,0,.08.07S7.11,4.15,7.05,4.15Zm0-.83S7,3.3,7,3.25s0-.08.07-.07.07,0,.07.07S7.1,3.32,7.05,3.32Zm0-.28C7,3,7,3,7,3s0-.06.08-.06.07,0,.06.08S7.09,3,7.05,3Zm0-.28C7,2.76,7,2.73,7,2.68s0-.06.07-.06.08,0,.07.07S7.1,2.76,7.05,2.76Zm0-.27S7,2.47,7,2.41s0-.07.06-.06.09,0,.08.06S7.11,2.49,7.05,2.49ZM6.85,2c0,.1.05.18-.06.22s-.07,0-.08,0S6.76,2,6.85,2ZM6.77,3.32s-.06,0-.07-.07,0-.08.08-.07.07,0,.06.07S6.81,3.31,6.77,3.32Zm0,.14c.06,0,.08,0,.08.07s0,.06-.08.06-.07,0-.07-.06S6.71,3.44,6.77,3.46Zm0-1.11c.05,0,.08,0,.07.07s0,.06-.07.07-.06,0-.07-.08S6.73,2.35,6.77,2.35Zm0,.27s.09,0,.09.06,0,.09-.07.08-.08,0-.08-.07S6.71,2.62,6.76,2.62Zm0,.28c.06,0,.08,0,.08.07s0,.07-.08.07S6.7,3,6.7,3,6.72,2.89,6.77,2.9Zm-.27,1s-.08,0-.07-.07,0-.07.06-.07.08,0,.07.07S6.55,3.87,6.5,3.87Zm.06.22s0,.06-.07.06-.06,0-.06-.06S6.44,4,6.5,4,6.57,4,6.56,4.09Zm-.07.2s.08,0,.07.07,0,.07-.06.07-.08,0-.07-.07S6.44,4.29,6.49,4.29Zm.07.34s0,.08-.06.08-.07,0-.07-.06,0-.08.06-.08S6.56,4.58,6.56,4.63Zm-.06.22s.07,0,.06.07,0,.07-.07.07-.06,0-.06-.07S6.44,4.85,6.5,4.85Zm0-1.26s-.07,0-.06-.06,0-.08.06-.08.08,0,.08.07S6.55,3.6,6.49,3.59Zm0-.27s-.06,0-.06-.07,0-.08.06-.07.08,0,.08.07S6.54,3.32,6.49,3.32Zm0-1s0,0,0,.06-.07.06-.13.06S6.46,2.35,6.54,2.36Zm0,.26s.08,0,.08.07,0,.07-.08.07-.07,0-.07-.07S6.44,2.62,6.49,2.62Zm0,.28c.06,0,.08,0,.08.07S6.55,3,6.5,3,6.42,3,6.42,3,6.44,2.89,6.49,2.9Zm.06,2.36c-.07,0-.07-.06-.13-.12s.12,0,.14,0S6.58,5.25,6.55,5.26Zm.22-1.53c.05,0,.08,0,.07.07s0,.07-.07.07-.07,0-.07-.06S6.71,3.73,6.77,3.73Zm.07.64c0,.06,0,.06-.08.06s0,0,0-.08,0-.06.07-.06S6.85,4.32,6.84,4.37Zm0,.27c0,.05,0,.07-.07.07s-.06,0-.06-.08,0-.06.07-.06S6.84,4.59,6.84,4.64Zm-.08-.49c-.06,0,0,0,0-.08s0-.06.06-.06.08,0,.07.08S6.8,4.15,6.76,4.15Zm0,.7s.06,0,.06.07,0,.07-.07.07-.06,0-.06-.07S6.73,4.85,6.78,4.85Zm0,.28c.06,0,.07,0,.07.08s0,.07-.08.06-.06,0-.07-.07S6.73,5.13,6.78,5.13Zm-.07.31c0-.05.07,0,.09,0s0,.12,0,.22C6.76,5.56,6.69,5.53,6.71,5.44Zm.41-3.6v.29c0,.05,0,.08-.07.08S7,2.18,7,2.13,6.91,1.87,7.12,1.84ZM7.06,3.73c.05,0,.07,0,.06.08s0,.06-.08.06S7,3.84,7,3.8,7,3.73,7.06,3.73Zm0,.56s.08,0,.07.07,0,.07-.07.07S7,4.41,7,4.37,7,4.28,7.05,4.29Zm0,.84c.06,0,.07,0,.07.07s0,.08-.07.07S7,5.25,7,5.2,7,5.13,7.05,5.13Zm0,.63s-.1,0-.1-.08a1.28,1.28,0,0,1,0-.19s0-.08.07-.08.08,0,.07.08V5.6s0,.05,0,.07S7.15,5.76,7.09,5.76Zm.23-.91s.08,0,.08.07,0,.08-.07.07-.07,0-.07-.08A.05.05,0,0,1,7.32,4.85Zm0,.28s.07,0,.07.07,0,.07-.07.07-.07,0-.07-.07S7.27,5.12,7.33,5.13Zm-.07.64v-.3s0-.06.07-.06.07,0,.07.06v.3s0,.08-.05.08S7.26,5.83,7.26,5.77ZM5.16,6a.49.49,0,0,1,.59,0,2.17,2.17,0,0,1,.52.44.16.16,0,0,1,.05.16,3.63,3.63,0,0,0-.1.45.13.13,0,0,1-.1.12,1.7,1.7,0,0,1-.63.17c-.21,0-.38-.25-.58-.38a.15.15,0,0,1-.06-.13c0-.09,0-.19,0-.33S4.93,6.11,5.16,6ZM3.4,6.22A2.75,2.75,0,0,1,4,5.87a.18.18,0,0,1,.19,0,.59.59,0,0,0,.17.1c.25.1.4.26.3.55.09.28-.07.42-.27.58a.67.67,0,0,1-.75.12.5.5,0,0,1-.39-.42A.5.5,0,0,1,3.4,6.22ZM2.17,5.45a.25.25,0,0,1,.29.08,2.23,2.23,0,0,1,.38.68,6.69,6.69,0,0,0-1.3-.39A1.93,1.93,0,0,1,2.17,5.45ZM1.28,9.72A.25.25,0,0,1,1,9.65,1.83,1.83,0,0,1,.64,9a5.83,5.83,0,0,0,1.3.36A1.74,1.74,0,0,1,1.28,9.72ZM2.59,8.6a3.5,3.5,0,0,1-.37.49.13.13,0,0,1-.14.06A5.82,5.82,0,0,1,.65,8.76a.2.2,0,0,1-.12-.15,3.15,3.15,0,0,1-.06-.55,2.75,2.75,0,0,1,.79-2A.14.14,0,0,1,1.41,6a6.52,6.52,0,0,1,1.37.4c.1,0,.1.08.05.16a2.18,2.18,0,0,0-.22,1.81A.26.26,0,0,1,2.59,8.6Zm.78.28a.47.47,0,0,1-.49-.39,2.52,2.52,0,0,1-.15-.63c0-.06,0-.12.08-.17a.36.36,0,0,0,.11-.1c.19-.26.41-.24.69-.15a.6.6,0,0,1,.47.47c.09.35.11.35-.1.64l-.08.1C3.71,8.92,3.71,8.89,3.37,8.88Zm2.08.5a.53.53,0,0,1-.51.36,2.21,2.21,0,0,1-.68-.06.14.14,0,0,1-.13-.11A1.07,1.07,0,0,0,4,9.35a.41.41,0,0,1,.07-.6l0-.05c.13-.25.3-.4.61-.29.31-.12.45.09.62.3A.54.54,0,0,1,5.45,9.38Zm.8-.61c0,.06,0,.09-.09.1l-.33,0c-.06,0-.08,0-.11-.05s-.25-.35-.38-.53a.12.12,0,0,1,0-.13c.06-.18.12-.36.17-.54a.17.17,0,0,1,.11-.11l.59-.19a.13.13,0,0,1,.14,0c.12.11.24.23.36.33s.09.13,0,.2A1.09,1.09,0,0,0,6.25,8.77Zm2,.24s0,.08-.08.07a.07.07,0,0,0-.07,0S8,9.14,8,9.22s0,0,.15,0a.88.88,0,0,1-.77.46.84.84,0,0,1-.78-.43s.1,0,.11-.06,0-.1-.09-.11S6.47,9,6.46,8.84a.92.92,0,0,1,.19-.58c0-.06.07-.13.17-.09s.07,0,.08-.06.19-.17.33-.2a1,1,0,0,1,.42,0,.16.16,0,0,1,.12.11c0,.06.06.16.18.09s0,0,.06,0A.9.9,0,0,1,8.24,9Zm2.42.15c.09,0,.11,0,.11.11a1.93,1.93,0,0,0,0,.34c0,.09,0,.11-.11.11H8.41c-.09,0-.11,0-.12-.12a.93.93,0,0,1,.12-.4s.06,0,.1,0Zm-.29-.4c.06,0,.11,0,.11.09s-.05.09-.12.09H8.6c-.06,0-.13,0-.12-.08s0-.11.11-.11ZM9.3,8.18V8.05c0-.22,0-.21.23-.22s.1,0,.1.09a4.34,4.34,0,0,0,0,.51c0,.1,0,.13-.12.12a.2.2,0,0,0-.11,0c-.07,0-.1,0-.1-.1A2.43,2.43,0,0,0,9.3,8.18Zm1-1.31a.85.85,0,0,1-.9.74.86.86,0,0,1-.83-.83c0-.44,0-.89,0-1.34,0-.07,0-.09.1-.09h1.57c.05,0,.1,0,.1.07A13.84,13.84,0,0,1,10.32,6.87Zm.37-.11c-.08,0-.13,0-.13-.08a.26.26,0,0,1,.08-.2.24.24,0,0,0,0-.37c-.1-.08-.06-.18-.06-.27s0,0,.08,0a.52.52,0,0,1,.34.54A.49.49,0,0,1,10.69,6.76Z"/></svg>