<svg id="Layer_1" data-name="Layer 1" xmlns="http://www.w3.org/2000/svg" viewBox="0 0 46 46"><defs><style>.cls-1{fill:#2b95ad;}</style></defs><title>Icons</title><path class="cls-1" d="M14.21,42.81a2.38,2.38,0,0,1-2-1.39L5.31,30,2.09,24.69c-.38-.62-.76-1.24-1.13-1.87a2.28,2.28,0,0,1,.67-3.35c.2-.15.43-.31.74-.5L10,14.34,27.31,3.9a3,3,0,0,1,2.79-.53l12.25,4,1.59.52a1.88,1.88,0,0,1,1.52,2.37c-.2,1.24-.41,2.48-.62,3.72-.11.64-.23,1.29-.33,1.93s-.25,1.46-.38,2.19c-.33,2-.68,4-1,6A3.7,3.7,0,0,1,41.29,27q-9.1,5.46-18.19,11l-6.82,4.12a7,7,0,0,1-.86.46A3.24,3.24,0,0,1,14.21,42.81ZM29.31,3.64a3.58,3.58,0,0,0-1.76.64L10.27,14.73,2.61,19.36c-.3.18-.52.33-.71.47a1.84,1.84,0,0,0-.55,2.76c.37.63.75,1.25,1.12,1.87L5.7,29.79q3.43,5.7,6.88,11.39a1.85,1.85,0,0,0,2.66.93,7.82,7.82,0,0,0,.81-.43l6.81-4.12,18.2-11a3.25,3.25,0,0,0,1.65-2.52c.3-2,.64-4,1-6,.12-.73.25-1.46.37-2.19l.33-1.94c.21-1.23.43-2.47.62-3.71.16-1-.17-1.54-1.21-1.87l-1.59-.52L29.91,3.78A1.33,1.33,0,0,0,29.31,3.64Z"/><path class="cls-1" d="M33.94,22.05a1.06,1.06,0,0,1-1.07,1.54c-1.46,0-2.91.05-4.37.07l-13.71.17a3.65,3.65,0,0,1-.47,0,1.07,1.07,0,0,1-1.07-1.08,1,1,0,0,1,1.05-1.08c1,0,2.06,0,3.09-.05l15.26-.21C33.19,21.42,33.68,21.49,33.94,22.05Z"/><path class="cls-1" d="M17.73,32a4,4,0,0,1,1.65-5.06,4,4,0,0,1,5.11,1.66,4.07,4.07,0,0,1-1.65,5.08A4,4,0,0,1,17.73,32Z"/><path class="cls-1" d="M29.61,13.36a4,4,0,0,1-1.74,5,4,4,0,0,1-5.08-1.74,4.05,4.05,0,0,1,1.74-5A4,4,0,0,1,29.61,13.36Z"/></svg>