<svg id="Layer_1" data-name="Layer 1" xmlns="http://www.w3.org/2000/svg" viewBox="0 0 11.5 11.5"><defs><style>.cls-1{fill:#2b95ad;}</style></defs><title>Icons</title><path class="cls-1" d="M3.6,10.59a.58.58,0,0,1-.49-.34L1.43,7.47.64,6.16.36,5.71a.55.55,0,0,1,.17-.82.93.93,0,0,1,.18-.12L2.58,3.63,6.8,1.08A.76.76,0,0,1,7.48,1l3,1,.39.13a.45.45,0,0,1,.37.58l-.15.9c0,.16-.06.32-.08.48l-.09.53c-.09.48-.17,1-.24,1.47a.89.89,0,0,1-.46.69L5.77,9.4l-1.66,1-.21.11A.72.72,0,0,1,3.6,10.59ZM7.29,1a1,1,0,0,0-.43.15L2.64,3.73.77,4.86A.93.93,0,0,0,.59,5a.45.45,0,0,0-.13.67l.27.46.79,1.3L3.2,10.19a.45.45,0,0,0,.65.23l.2-.1,1.67-1,4.44-2.68A.78.78,0,0,0,10.57,6c.07-.49.16-1,.24-1.47L10.9,4c0-.16,0-.32.08-.47l.15-.91c0-.25,0-.38-.3-.46L10.45,2l-3-1A.37.37,0,0,0,7.29,1Z"/><path class="cls-1" d="M8.42,5.52a.26.26,0,0,1-.26.38H7.09L3.74,6H3.63a.26.26,0,0,1,0-.52l.76,0,3.73,0C8.24,5.36,8.36,5.38,8.42,5.52Z"/><path class="cls-1" d="M4.46,7.94a1,1,0,0,1,.4-1.23,1,1,0,0,1,1.25.4,1,1,0,0,1-.4,1.24A1,1,0,0,1,4.46,7.94Z"/><path class="cls-1" d="M7.37,3.39a1,1,0,0,1-.43,1.23A1,1,0,0,1,5.7,4.2,1,1,0,0,1,6.12,3,1,1,0,0,1,7.37,3.39Z"/></svg>