<svg id="Layer_1" data-name="Layer 1" xmlns="http://www.w3.org/2000/svg" viewBox="0 0 11.5 11.5"><defs><style>.cls-1{fill:none;}.cls-2{fill:#2b95ad;}</style></defs><title>Icons</title><path class="cls-1" d="M7.85,4.5c-.46,0-.47,0-.48.52a.61.61,0,0,1,0,.14A.93.93,0,0,1,6.13,6,1.05,1.05,0,0,1,5.5,5c0-.2,0-.27-.26-.23a1.64,1.64,0,0,1-1-.09,1.88,1.88,0,0,0-1.53-.22.23.23,0,0,1-.14,0c-.23-.08-.25,0-.25.22,0,.9,0,1.79,0,2.68h0V9.92a.79.79,0,0,0,.88.88h4A.75.75,0,0,0,8.1,10c0-.44,0-.88,0-1.32,0-1.3,0-2.6,0-3.89C8.11,4.57,8.1,4.47,7.85,4.5Z"/><path class="cls-1" d="M8.51,2.2a1.55,1.55,0,0,0-1.33-.26c-.26.07-.35,0-.47-.21a1.8,1.8,0,0,0-1.57-1,1.86,1.86,0,0,0-1.82.91c-.14.24-.25.33-.54.29a1.06,1.06,0,0,0-1.18.85,1,1,0,0,0,.7,1.13,1.17,1.17,0,0,0,1-.08c.18-.12.28-.07.43,0a1.82,1.82,0,0,0,1.84.34c.36-.12.41,0,.38.3a.65.65,0,0,0,0,.14c0,.12,0,.24,0,.36,0,.36.23.59.5.59A.57.57,0,0,0,6.93,5q0-.36,0-.72c0-.21,0-.29.27-.23a1.49,1.49,0,0,0,1.29-.24A.94.94,0,0,0,8.51,2.2Z"/><path class="cls-1" d="M7.85,4.5c-.46,0-.47,0-.48.52a.61.61,0,0,1,0,.14A.93.93,0,0,1,6.13,6,1.05,1.05,0,0,1,5.5,5c0-.2,0-.27-.26-.23a1.64,1.64,0,0,1-1-.09,1.88,1.88,0,0,0-1.53-.22.23.23,0,0,1-.14,0c-.23-.08-.25,0-.25.22,0,.9,0,1.79,0,2.68h0V9.92a.79.79,0,0,0,.88.88h4A.75.75,0,0,0,8.1,10c0-.44,0-.88,0-1.32,0-1.3,0-2.6,0-3.89C8.11,4.57,8.1,4.47,7.85,4.5Z"/><path class="cls-1" d="M8.51,2.2a1.55,1.55,0,0,0-1.33-.26c-.26.07-.35,0-.47-.21a1.8,1.8,0,0,0-1.57-1,1.86,1.86,0,0,0-1.82.91c-.14.24-.25.33-.54.29a1.06,1.06,0,0,0-1.18.85,1,1,0,0,0,.7,1.13,1.17,1.17,0,0,0,1-.08c.18-.12.28-.07.43,0a1.82,1.82,0,0,0,1.84.34c.36-.12.41,0,.38.3a.65.65,0,0,0,0,.14c0,.12,0,.24,0,.36,0,.36.23.59.5.59A.57.57,0,0,0,6.93,5q0-.36,0-.72c0-.21,0-.29.27-.23a1.49,1.49,0,0,0,1.29-.24A.94.94,0,0,0,8.51,2.2Z"/><path class="cls-1" d="M9.93,7c0-.28,0-.55,0-.83a.69.69,0,0,0-.73-.74H8.77c-.2,0-.21.1-.2.25s.23.14.36.14c.39,0,.51.13.52.51V7.67c0,.32-.14.5-.47.48H8.8c-.14,0-.23,0-.24.18s.09.22.24.21h.4a.67.67,0,0,0,.73-.73c0-.26,0-.52,0-.78Z"/><path class="cls-1" d="M7.85,4.5c-.46,0-.47,0-.48.52a.61.61,0,0,1,0,.14A.93.93,0,0,1,6.13,6,1.05,1.05,0,0,1,5.5,5c0-.2,0-.27-.26-.23a1.64,1.64,0,0,1-1-.09,1.88,1.88,0,0,0-1.53-.22.23.23,0,0,1-.14,0c-.23-.08-.25,0-.25.22,0,.9,0,1.79,0,2.68h0V9.92a.79.79,0,0,0,.88.88h4A.75.75,0,0,0,8.1,10c0-.44,0-.88,0-1.32,0-1.3,0-2.6,0-3.89C8.11,4.57,8.1,4.47,7.85,4.5Z"/><path class="cls-2" d="M10.38,6.68c0-1.38-.22-1.61-1.59-1.68-.08,0-.21,0-.21-.08s-.13-.55.2-.8a1.38,1.38,0,0,0-.2-2.41,1.81,1.81,0,0,0-1.2-.25A.36.36,0,0,1,7,1.26a2.44,2.44,0,0,0-3.9-.07.58.58,0,0,1-.46.26,1.51,1.51,0,0,0-1.4,1,1.37,1.37,0,0,0,.57,1.62c.15.11.13.24.13.38,0,.93,0,1.86,0,2.79s0,1.85,0,2.78A1.13,1.13,0,0,0,3,11.23c1.46,0,2.93,0,4.39,0a1.14,1.14,0,0,0,1.14-1,3.63,3.63,0,0,0,0-.57c0-.64,0-.64.64-.66a1.1,1.1,0,0,0,1.17-1.13C10.39,7.47,10.38,7.07,10.38,6.68Zm-1.81-.2c0-.16.06-.2.2-.2S9,6.3,9,6.49A4.68,4.68,0,0,0,9,7c0,.17,0,.34,0,.5s-.11.19-.25.2-.2-.07-.19-.21C8.57,7.17,8.58,6.82,8.57,6.48ZM8.1,8.66c0,.44,0,.88,0,1.32a.75.75,0,0,1-.86.82h-4a.79.79,0,0,1-.88-.88V7.31h0c0-.89,0-1.78,0-2.68,0-.19,0-.3.25-.22a.23.23,0,0,0,.14,0,1.88,1.88,0,0,1,1.53.22,1.64,1.64,0,0,0,1,.09c.22,0,.26,0,.26.23a1.05,1.05,0,0,0,.63,1,.93.93,0,0,0,1.23-.83.61.61,0,0,0,0-.14c0-.5,0-.48.48-.52.25,0,.26.07.26.27C8.1,6.06,8.1,7.36,8.1,8.66Zm.39-4.87A1.49,1.49,0,0,1,7.2,4c-.25-.06-.29,0-.27.23s0,.48,0,.72a.57.57,0,0,1-.48.61C6.18,5.59,6,5.36,6,5c0-.12,0-.24,0-.36A.65.65,0,0,1,6,4.5c0-.3,0-.42-.38-.3a1.82,1.82,0,0,1-1.84-.34c-.15-.12-.25-.17-.43,0a1.17,1.17,0,0,1-1,.08,1,1,0,0,1-.7-1.13,1.06,1.06,0,0,1,1.18-.85c.29,0,.4,0,.54-.29A1.86,1.86,0,0,1,5.14.71a1.8,1.8,0,0,1,1.57,1c.12.24.21.28.47.21a1.55,1.55,0,0,1,1.33.26A.94.94,0,0,1,8.49,3.79Zm1.44,4a.67.67,0,0,1-.73.73H8.8c-.15,0-.24,0-.24-.21s.1-.19.24-.18H9c.33,0,.47-.16.47-.48V6.35c0-.38-.13-.48-.52-.51-.13,0-.34.13-.36-.14s0-.27.2-.25H9.2a.69.69,0,0,1,.73.74c0,.28,0,.55,0,.83h0C9.93,7.28,9.94,7.54,9.93,7.8Z"/><path class="cls-2" d="M3.78,7.11c0,.19,0,.39,0,.59s0,.15-.21.15-.24-.06-.24-.14c0-.41,0-.81,0-1.22,0-.07,0-.15.23-.14s.22.07.22.14Z"/><path class="cls-2" d="M6.64,6.48c0-.07,0-.14.22-.13s.22.07.22.14v1.2c0,.07,0,.16-.21.16s-.23-.08-.23-.15V6.48"/><path class="cls-2" d="M6.58,9.63V8.76s0-.11-.16-.11-.16,0-.16.1v.68H4.16V8.76s0-.11-.16-.11-.17,0-.17.1c0,.3,0,.6,0,.9,0,.06,0,.11.17.11H6.42C6.59,9.75,6.58,9.69,6.58,9.63Z"/></svg>