<svg id="Layer_1" data-name="Layer 1" xmlns="http://www.w3.org/2000/svg" viewBox="0 0 23 23"><defs><style>.cls-1{fill:none;}.cls-2{fill:#2b95ad;}</style></defs><title>Icons</title><path class="cls-1" d="M15.79,8.94c-.94.09-.95.05-1,1.07,0,.09,0,.19,0,.29A1.92,1.92,0,0,1,12.28,12,2.13,2.13,0,0,1,11,9.89c0-.42-.09-.57-.53-.47a3.44,3.44,0,0,1-2-.19c-1-.43-2-.93-3.12-.46a.42.42,0,0,1-.29,0c-.47-.17-.52.06-.52.46,0,1.82,0,3.65,0,5.48h0V20a1.6,1.6,0,0,0,1.8,1.8h8.22a1.52,1.52,0,0,0,1.76-1.66c0-.91,0-1.81,0-2.71,0-2.65,0-5.31,0-8C16.32,9.09,16.3,8.89,15.79,8.94Z"/><path class="cls-1" d="M17.15,4.23a3.1,3.1,0,0,0-2.72-.51c-.54.14-.73,0-1-.45a3.64,3.64,0,0,0-3.21-2.08,3.73,3.73,0,0,0-3.7,1.87c-.29.48-.51.67-1.11.58A2.16,2.16,0,0,0,3,5.38,2,2,0,0,0,4.45,7.7a2.36,2.36,0,0,0,2-.18c.38-.23.58-.13.88.11a3.79,3.79,0,0,0,3.77.71c.73-.25.84,0,.76.6,0,.1,0,.2,0,.3s0,.49,0,.73c.06.73.48,1.21,1,1.2a1.16,1.16,0,0,0,1-1.25c0-.49,0-1,0-1.46s0-.6.55-.47a3.14,3.14,0,0,0,2.65-.5A1.93,1.93,0,0,0,17.15,4.23Z"/><path class="cls-1" d="M15.79,8.94c-.94.09-.95.05-1,1.07,0,.09,0,.19,0,.29A1.92,1.92,0,0,1,12.28,12,2.13,2.13,0,0,1,11,9.89c0-.42-.09-.57-.53-.47a3.44,3.44,0,0,1-2-.19c-1-.43-2-.93-3.12-.46a.42.42,0,0,1-.29,0c-.47-.17-.52.06-.52.46,0,1.82,0,3.65,0,5.48h0V20a1.6,1.6,0,0,0,1.8,1.8h8.22a1.52,1.52,0,0,0,1.76-1.66c0-.91,0-1.81,0-2.71,0-2.65,0-5.31,0-8C16.32,9.09,16.3,8.89,15.79,8.94Z"/><path class="cls-1" d="M17.15,4.23a3.1,3.1,0,0,0-2.72-.51c-.54.14-.73,0-1-.45a3.64,3.64,0,0,0-3.21-2.08,3.73,3.73,0,0,0-3.7,1.87c-.29.48-.51.67-1.11.58A2.16,2.16,0,0,0,3,5.38,2,2,0,0,0,4.45,7.7a2.36,2.36,0,0,0,2-.18c.38-.23.58-.13.88.11a3.79,3.79,0,0,0,3.77.71c.73-.25.84,0,.76.6,0,.1,0,.2,0,.3s0,.49,0,.73c.06.73.48,1.21,1,1.2a1.16,1.16,0,0,0,1-1.25c0-.49,0-1,0-1.46s0-.6.55-.47a3.14,3.14,0,0,0,2.65-.5A1.93,1.93,0,0,0,17.15,4.23Z"/><path class="cls-1" d="M20.05,14.09c0-.56,0-1.12,0-1.68a1.41,1.41,0,0,0-1.5-1.52c-.29,0-.58,0-.88,0s-.42.21-.4.51c0,.57.48.29.73.3.8.05,1.06.26,1.06,1s0,1.8,0,2.7c0,.66-.28,1-1,1h-.37c-.27,0-.46,0-.47.37s.17.44.49.42.54,0,.8,0a1.37,1.37,0,0,0,1.5-1.49c0-.54,0-1.08,0-1.61Z"/><path class="cls-1" d="M15.79,8.94c-.94.09-.95.05-1,1.07,0,.09,0,.19,0,.29A1.92,1.92,0,0,1,12.28,12,2.13,2.13,0,0,1,11,9.89c0-.42-.09-.57-.53-.47a3.44,3.44,0,0,1-2-.19c-1-.43-2-.93-3.12-.46a.42.42,0,0,1-.29,0c-.47-.17-.52.06-.52.46,0,1.82,0,3.65,0,5.48h0V20a1.6,1.6,0,0,0,1.8,1.8h8.22a1.52,1.52,0,0,0,1.76-1.66c0-.91,0-1.81,0-2.71,0-2.65,0-5.31,0-8C16.32,9.09,16.3,8.89,15.79,8.94Z"/><path class="cls-2" d="M21,13.4c0-2.82-.44-3.28-3.26-3.44-.15,0-.43.09-.41-.15,0-.56-.27-1.14.39-1.64a2.84,2.84,0,0,0-.39-4.94,3.69,3.69,0,0,0-2.46-.51.75.75,0,0,1-.87-.4,5,5,0,0,0-8-.14,1.16,1.16,0,0,1-.93.52A3.09,3.09,0,0,0,2.19,4.83,2.8,2.8,0,0,0,3.37,8.15c.31.22.26.49.26.77,0,1.9,0,3.8,0,5.7s0,3.8,0,5.7a2.33,2.33,0,0,0,2.27,2.39c3,.05,6,.05,9,0a2.33,2.33,0,0,0,2.34-2.1,7.45,7.45,0,0,0,.07-1.16c0-1.31,0-1.31,1.32-1.34A2.24,2.24,0,0,0,21,15.81C21,15,21,14.2,21,13.4ZM17.26,13c0-.33.13-.4.43-.4s.51,0,.48.43,0,.72,0,1.09,0,.68,0,1-.22.39-.5.41-.42-.13-.41-.43C17.28,14.4,17.28,13.69,17.26,13Zm-1,4.46c0,.9,0,1.8,0,2.71a1.52,1.52,0,0,1-1.76,1.66H6.33A1.6,1.6,0,0,1,4.53,20V14.7h0c0-1.83,0-3.66,0-5.48,0-.4.05-.63.52-.46a.42.42,0,0,0,.29,0c1.13-.47,2.11,0,3.12.46a3.44,3.44,0,0,0,2,.19c.44-.1.53.05.53.47A2.13,2.13,0,0,0,12.28,12,1.92,1.92,0,0,0,14.8,10.3c0-.1,0-.2,0-.29,0-1,0-1,1-1.07.51,0,.53.15.53.55C16.31,12.14,16.31,14.8,16.31,17.45Zm.8-10a3.14,3.14,0,0,1-2.65.5c-.51-.13-.58,0-.55.47s0,1,0,1.46a1.16,1.16,0,0,1-1,1.25c-.54,0-1-.47-1-1.2,0-.24,0-.49,0-.73s0-.2,0-.3c.08-.61,0-.85-.76-.6a3.79,3.79,0,0,1-3.77-.71c-.3-.24-.5-.34-.88-.11a2.36,2.36,0,0,1-2,.18A2,2,0,0,1,3,5.38,2.16,2.16,0,0,1,5.43,3.64c.6.09.82-.1,1.11-.58a3.73,3.73,0,0,1,3.7-1.87,3.64,3.64,0,0,1,3.21,2.08c.25.5.44.59,1,.45a3.1,3.1,0,0,1,2.72.51A1.93,1.93,0,0,1,17.11,7.49Zm2.94,8.21a1.37,1.37,0,0,1-1.5,1.49c-.26,0-.54,0-.8,0s-.5,0-.49-.42.2-.39.47-.37h.37c.68,0,1-.33,1-1,0-.9,0-1.8,0-2.7s-.26-1-1.06-1c-.25,0-.69.27-.73-.3,0-.3,0-.54.4-.51s.59,0,.88,0a1.41,1.41,0,0,1,1.5,1.52c0,.56,0,1.12,0,1.68h0C20.05,14.62,20.06,15.16,20.05,15.7Z"/><path class="cls-2" d="M7.46,14.27c0,.41,0,.82,0,1.23,0,.14,0,.29-.44.3s-.47-.13-.47-.28c0-.84,0-1.68,0-2.51,0-.15,0-.29.46-.29s.44.16.44.3Z"/><path class="cls-2" d="M13.32,13c0-.14,0-.29.46-.28s.44.16.44.3c0,.42,0,.83,0,1.25s0,.8,0,1.19c0,.15,0,.33-.43.34s-.47-.16-.47-.32V13"/><path class="cls-2" d="M13.2,19.45c0-.3,0-.59,0-.88s0-.61,0-.92c0-.1,0-.21-.32-.22s-.34.11-.34.21V19H8.24V17.65c0-.1,0-.21-.32-.22s-.34.11-.34.21c0,.62,0,1.23,0,1.84,0,.12,0,.22.35.21h5C13.22,19.69,13.2,19.56,13.2,19.45Z"/></svg>