<svg id="Layer_1" data-name="Layer 1" xmlns="http://www.w3.org/2000/svg" viewBox="0 0 46 46"><defs><style>.cls-1{fill:#2b95ad;}</style></defs><title>Icons</title><path class="cls-1" d="M23.12,12.9h.09a4.32,4.32,0,0,1,4.3,4.33v.18a4.32,4.32,0,0,1-4.3,4.33h-.09a4.31,4.31,0,0,1-4.3-4.33v-.18A4.31,4.31,0,0,1,23.12,12.9Z"/><path class="cls-1" d="M13,12.9h0a4.31,4.31,0,0,1,4.3,4.33v.18A4.31,4.31,0,0,1,13,21.74h0a4.32,4.32,0,0,1-4.3-4.33v-.18A4.32,4.32,0,0,1,13,12.9Z"/><path class="cls-1" d="M33.5,12.9h0a4.32,4.32,0,0,1,4.3,4.37v.18a4.33,4.33,0,0,1-4.3,4.29h0a4.31,4.31,0,0,1-4.3-4.37v-.18A4.32,4.32,0,0,1,33.5,12.9Z"/><path class="cls-1" d="M9.63,44.27a.78.78,0,0,1-.35-.08.92.92,0,0,1-.51-1c.06-.78.1-1.55.14-2.33l.42-7.16H9c-.42,0-.82,0-1.22,0a8.08,8.08,0,0,1-5.55-2.75,8.36,8.36,0,0,1-2.14-5.8c0-1.69,0-3.39,0-5.09,0-3.26,0-6.64,0-10a8.11,8.11,0,0,1,4.6-7.46,8,8,0,0,1,3.78-.89H30.1c.66,0,1.35,0,2,0,1.58,0,3.21,0,4.82,0a8.25,8.25,0,0,1,7.63,5.6,8.4,8.4,0,0,1,.47,2.74v2.11q0,6.57,0,13.15a8.27,8.27,0,0,1-7,8.25,17.31,17.31,0,0,1-2.78.13h-17a.23.23,0,0,0-.25.12q-3.48,4.56-7,9.12l-.67.87A.92.92,0,0,1,9.63,44.27Zm-.06-11h.24l-.44,7.65c0,.77-.09,1.55-.14,2.33,0,.4.1.51.23.57s.32.09.57-.22l.66-.87q3.51-4.56,7-9.13a.69.69,0,0,1,.6-.29h17A17.45,17.45,0,0,0,38,33.15a7.83,7.83,0,0,0,6.62-7.81c0-4.39,0-8.77,0-13.15V10.08a7.76,7.76,0,0,0-.45-2.59A7.78,7.78,0,0,0,36.94,2.2c-1.6,0-3.23,0-4.81,0H8.46A7.41,7.41,0,0,0,4.89,3,7.66,7.66,0,0,0,.54,10.08c0,3.32,0,6.7,0,10,0,1.7,0,3.4,0,5.09a8,8,0,0,0,2,5.49A7.66,7.66,0,0,0,7.8,33.23a11.34,11.34,0,0,0,1.17,0Z"/></svg>