<svg id="Layer_1" data-name="Layer 1" xmlns="http://www.w3.org/2000/svg" viewBox="0 0 23 23"><defs><style>.cls-1{fill:#2b95ad;}</style></defs><title>Icons</title><path class="cls-1" d="M11.78,6.45h.05A2.16,2.16,0,0,1,14,8.62V8.7a2.16,2.16,0,0,1-2.15,2.17h-.05A2.16,2.16,0,0,1,9.63,8.7V8.62A2.16,2.16,0,0,1,11.78,6.45Z"/><path class="cls-1" d="M6.7,6.45h0A2.16,2.16,0,0,1,8.85,8.62V8.7A2.16,2.16,0,0,1,6.7,10.87h0A2.16,2.16,0,0,1,4.55,8.7V8.62A2.16,2.16,0,0,1,6.7,6.45Z"/><path class="cls-1" d="M17,6.45h0a2.16,2.16,0,0,1,2.15,2.19v.09A2.16,2.16,0,0,1,17,10.87h0a2.16,2.16,0,0,1-2.15-2.19V8.59A2.16,2.16,0,0,1,17,6.45Z"/><path class="cls-1" d="M5,22.14a.48.48,0,0,1-.18,0,.46.46,0,0,1-.25-.51c0-.39,0-.78.07-1.17l.21-3.58H4.1a4,4,0,0,1-2.77-1.38A4.11,4.11,0,0,1,.26,12.57c0-.85,0-1.7,0-2.55,0-1.63,0-3.32,0-5a4.06,4.06,0,0,1,2.3-3.73A4,4,0,0,1,4.45.86H16.28c.8,0,1.61,0,2.42,0a4.12,4.12,0,0,1,3.81,2.8A4.08,4.08,0,0,1,22.75,5v7.63a4.15,4.15,0,0,1-3.5,4.13,9.3,9.3,0,0,1-1.39.06H9.37c-.06,0-.08,0-.12.06l-3.5,4.56-.34.44A.48.48,0,0,1,5,22.14Zm0-5.52h.12l-.22,3.82c0,.39,0,.78-.07,1.16,0,.2,0,.26.11.29s.16,0,.28-.11l.34-.44,3.5-4.56a.36.36,0,0,1,.3-.15h8.49a7.59,7.59,0,0,0,1.35-.06,3.9,3.9,0,0,0,3.31-3.9c0-2.19,0-4.38,0-6.58V5a3.94,3.94,0,0,0-.22-1.3A3.9,3.9,0,0,0,18.69,1.1H4.45a3.69,3.69,0,0,0-1.78.42A3.83,3.83,0,0,0,.49,5c0,1.66,0,3.35,0,5v2.55a4,4,0,0,0,1,2.74,3.81,3.81,0,0,0,2.63,1.3,5.71,5.71,0,0,0,.59,0Z"/></svg>