<svg id="Layer_1" data-name="Layer 1" xmlns="http://www.w3.org/2000/svg" viewBox="0 0 11.5 11.5"><defs><style>.cls-1{fill:#2b95ad;}</style></defs><title>Icons</title><path class="cls-1" d="M5.89,3.28h0A1.06,1.06,0,0,1,7,4.34v0a1.05,1.05,0,0,1-1,1.06h0a1.05,1.05,0,0,1-1-1.06v0A1.06,1.06,0,0,1,5.89,3.28Z"/><path class="cls-1" d="M3.4,3.28h0A1.06,1.06,0,0,1,4.46,4.34v0A1.05,1.05,0,0,1,3.4,5.44h0a1.05,1.05,0,0,1-1-1.06v0A1.06,1.06,0,0,1,3.4,3.28Z"/><path class="cls-1" d="M8.42,3.28h0A1.06,1.06,0,0,1,9.48,4.35v0A1.06,1.06,0,0,1,8.42,5.44h0a1.06,1.06,0,0,1-1-1.07v0A1.06,1.06,0,0,1,8.42,3.28Z"/><path class="cls-1" d="M2.59,11l-.09,0a.22.22,0,0,1-.12-.25c0-.19,0-.38,0-.57l.1-1.75H2.13A2,2,0,0,1,.78,7.69,2.07,2.07,0,0,1,.25,6.27V5c0-.8,0-1.63,0-2.44A2,2,0,0,1,1.38.77,1.87,1.87,0,0,1,2.3.55h7a2,2,0,0,1,1.86,1.37,2,2,0,0,1,.12.67V6.32a2,2,0,0,1-1.71,2,5.23,5.23,0,0,1-.68,0H4.71a.07.07,0,0,0-.06,0L2.94,10.63l-.17.21A.23.23,0,0,1,2.59,11Zm0-2.7h0l-.1,1.87c0,.19,0,.38,0,.57s0,.13.06.14.08,0,.14-.06l.16-.21L4.56,8.33a.18.18,0,0,1,.15-.07H8.86a4.86,4.86,0,0,0,.66,0,1.91,1.91,0,0,0,1.62-1.91V2.59A2,2,0,0,0,11,2,1.92,1.92,0,0,0,9.27.66h-7a1.78,1.78,0,0,0-.87.21A1.86,1.86,0,0,0,.37,2.59c0,.81,0,1.64,0,2.44V6.27a1.94,1.94,0,0,0,.5,1.34,1.83,1.83,0,0,0,1.28.64h.44Z"/></svg>