<svg id="Layer_1" data-name="Layer 1" xmlns="http://www.w3.org/2000/svg" viewBox="0 0 46 46"><defs><style>.cls-1{fill:#2b95ad;}</style></defs><title>Icons</title><path class="cls-1" d="M5.31,28.56c-.16,0-.31-.07-.37.14s.06.25.23.3.34.19.27.42-.27.29-.5.23-.25-.1-.33.08,0,.28.17.34.32.22.25.44-.26.24-.46.2-.23.06-.27.2.06.22.2.26.38.19.31.45-.26.25-.46.22-.26,0-.3.17.09.24.24.29.46.16.38.45-.28.26-.5.22-.27,0-.29.17a.23.23,0,0,0,.2.28c.23.06.46.18.36.47s-.39.23-.62.17-.69-.2-1-.3-.36-.16-.33-.38a.33.33,0,0,1,.4-.3c.15,0,.31.08.35-.15s-.1-.26-.26-.31a.32.32,0,0,1-.26-.37A.33.33,0,0,1,3.1,32c.21.06.27,0,.31-.2s-.11-.22-.23-.25-.39-.19-.33-.44.26-.31.49-.23.24,0,.3-.13,0-.24-.15-.29-.5-.18-.39-.5.32-.26.56-.16.22,0,.28-.17,0-.23-.17-.28-.38-.21-.3-.46.28-.23.47-.2.29,0,.34-.18-.08-.21-.2-.26a.31.31,0,0,1-.21-.41.32.32,0,0,1,.44-.23c.17.06.28.05.35-.13s-.06-.24-.2-.31a.32.32,0,0,1-.2-.41c.06-.2.23-.24.41-.22s.34.08.42-.15-.16-.22-.28-.31a.31.31,0,0,1-.13-.43.32.32,0,0,1,.42-.18l1.25.36a.32.32,0,0,1,.27.42.32.32,0,0,1-.44.23c-.17-.05-.33-.1-.42.12s.12.25.25.32.29.2.22.4-.24.27-.45.24-.35-.19-.46.11.2.25.32.33.25.24.18.42S5.52,28.63,5.31,28.56Z"/><path class="cls-1" d="M29.4,33.17c0-.22-.06-.51.25-.53s.31.26.3.5,0,.49-.3.49S29.41,33.36,29.4,33.17Z"/><path class="cls-1" d="M29.27,35.53c0,.21-.08.37-.27.36-.37,0-.29-.39-.36-.61s.06-.41.28-.38S29.15,35.32,29.27,35.53Z"/><path class="cls-1" d="M31.64,36.4c-.2,0-.34-.08-.31-.27a.8.8,0,0,1,.48-.64.22.22,0,0,1,.3.23A.84.84,0,0,1,31.64,36.4Z"/><path class="cls-1" d="M29.4,35.33c0-.21,0-.48.24-.49s.31.26.31.49,0,.49-.31.47S29.42,35.51,29.4,35.33Z"/><path class="cls-1" d="M28.61,35.71c0,.25-.08.39-.25.36-.35,0-.37-.37-.44-.62s.06-.37.27-.33S28.47,35.56,28.61,35.71Z"/><path class="cls-1" d="M31.43,35.42c-.16.21-.07.62-.47.65-.17,0-.26-.15-.22-.31s.09-.59.43-.64C31.33,35.1,31.44,35.22,31.43,35.42Z"/><path class="cls-1" d="M27.48,36.36a1.52,1.52,0,0,0-.06-.2c-.11-.18-.3-.35-.12-.59a.2.2,0,0,1,.25-.07.8.8,0,0,1,.45.6c0,.39-.3.26-.53.25Z"/><path class="cls-1" d="M28.3,32.39c.21,0,.34.1.3.27s-.08.58-.41.66a.21.21,0,0,1-.27-.26C28,32.79,28,32.51,28.3,32.39Z"/><path class="cls-1" d="M29.28,32.92c-.14.19,0,.55-.34.62s-.35-.11-.3-.29,0-.58.32-.65S29.26,32.71,29.28,32.92Z"/><path class="cls-1" d="M30.08,32.94c0-.23.08-.38.29-.34s.27.4.31.64-.07.35-.28.3S30.15,33.14,30.08,32.94Z"/><path class="cls-1" d="M30.68,35.26c-.05.24,0,.58-.34.62s-.29-.15-.26-.35,0-.57.35-.63S30.68,35.08,30.68,35.26Z"/><path class="cls-1" d="M27.47,36.35c0,.2.09.53-.27.48a.65.65,0,0,1-.57-.6c0-.23.21-.27.41-.17s.23.29.44.3Z"/><path class="cls-1" d="M32.19,36.84c-.24,0-.35-.1-.31-.25a.69.69,0,0,1,.59-.57.2.2,0,0,1,.23.24C32.65,36.59,32.38,36.72,32.19,36.84Z"/><path class="cls-1" d="M31,32.39c.31.08.32.4.41.65a.22.22,0,0,1-.25.28c-.36,0-.37-.37-.44-.63S30.79,32.4,31,32.39Z"/><path class="cls-1" d="M39.06,26.44a.21.21,0,0,1-.23.13h-1c-.11,0-.25,0-.29-.1s.13-.16.24-.22c.46-.24.27-.73.39-1.11.07-.19.23-.54-.21-.61a.17.17,0,0,1-.08-.13c.21-.32.58-.12.86-.25s.26,0,.22.24q-.15.72-.27,1.44c0,.18-.12.39.18.44C39,26.29,39.11,26.3,39.06,26.44Z"/><path class="cls-1" d="M43.26,22.42c-.31-.08-.43-.21-.42-.54.06-1.57-.05-1.37-1.38-1.38H36.32a12.86,12.86,0,0,0,1.12-5.38,11.42,11.42,0,0,0-1.91-6.85,5.78,5.78,0,0,0-4.79-2.59c-2.81,0-4.67,1.45-5.86,3.88A12.54,12.54,0,0,0,23.76,16a10.29,10.29,0,0,0,1.85,5.78,22.29,22.29,0,0,1,2.61,4.73,15,15,0,0,1,1.15,3.89c0,.21.2.52-.12.64a1.86,1.86,0,0,1-1,.17c-.2-.07-.11-.55-.14-.84a9.16,9.16,0,0,0-12-7.9,9.47,9.47,0,0,0-4,2.61c-.06-.15-.11-.25-.14-.35a8.93,8.93,0,0,0-1.67-3.11,1.79,1.79,0,0,0-2-.64,7.06,7.06,0,0,0-1.21.47,12.11,12.11,0,0,0-3.24,2.54A12.4,12.4,0,0,0,2.19,38.66,3.72,3.72,0,0,0,3.9,40.32h.8a5,5,0,0,0,2.24-.85,11.48,11.48,0,0,0,2-1.52,9.66,9.66,0,0,0,1.91-2.5c-.07.13,0,.24.09.35a8.51,8.51,0,0,0,2.5,2.8,8.27,8.27,0,0,0,4.34,1.72H20c.52-.14,1.07-.08,1.6-.24a9.86,9.86,0,0,0,3.49-1.92c.28-.24.48-.3.72.07a4.79,4.79,0,0,0,6.12,1.5l.3-.15c.17-.09.3-.07.32.15,0,.44.28.58.68.53H43.52a2.14,2.14,0,0,0,.62,0c.35-.08.43-.33.43-.64,0-.94,0-1.89,0-2.83,0-.45-.2-.69-.66-.63s-.59-.15-.54-.57c0-.13,0-.26,0-.39,0-.49-.18-.68-.67-.67-.79,0-1.58,0-2.38,0-.38,0-.49-.12-.48-.48,0-.78,0-1.55,0-2.32a.52.52,0,0,1,.35-.56,4.4,4.4,0,0,0,2.35-2.55.52.52,0,0,1,.46-.4,3,3,0,0,0,.24-5.78Zm-18.6-8.51c0-.2.09-.3.31-.3s.33.06.31.28-.1.29-.3.28S24.64,14.17,24.66,13.91Zm.62,3.42c0,.14,0,.25-.2.26s-.24-.19-.28-.34S24.9,17,25,17,25.29,17.15,25.28,17.33ZM25,16.46c-.21,0-.29-.1-.3-.3s.13-.27.32-.27.31.08.31.3S25.16,16.47,25,16.46Zm0-1.14c-.23,0-.29-.1-.29-.3s.11-.29.31-.28.37,0,.35.31S25.1,15.31,24.92,15.32ZM25,13c-.17,0-.24-.09-.19-.25s0-.34.29-.33.21.17.22.33S25.17,13,25,13Zm.25-1.17s-.18,0-.19,0c-.08-.19.07-.33.12-.64C25.34,11.54,25.36,11.71,25.23,11.87Zm11,5.67c-.2-.16-.14-.31-.07-.52C36.5,17.21,36.25,17.39,36.27,17.54Zm.23-1.38c0,.13,0,.27-.19.29s-.18-.17-.18-.3,0-.26.23-.24S36.52,16.05,36.5,16.16Zm-.13-.85c-.16,0-.25-.06-.24-.23s0-.32.21-.33.2.13.2.27S36.58,15.3,36.37,15.31Zm-.14-2.8c.07.16.25.32.08.5,0,0-.09,0-.1,0A.36.36,0,0,1,36.23,12.51Zm.05,1.1c.21,0,.22.15.25.25s0,.31-.18.32-.25-.11-.24-.28S36.1,13.62,36.28,13.61Zm-1,.57c-.2,0-.26-.1-.26-.28s.08-.3.3-.3.3.11.28.3S35.43,14.18,35.24,14.18Zm.07,1.71c.22,0,.25.13.24.31s-.06.26-.26.26-.31-.06-.3-.29S35.12,15.89,35.31,15.89ZM35,15c0-.22.1-.29.31-.29s.25.16.25.33-.13.25-.27.23S35,15.23,35,15Zm.34,4.3c.21,0,.23.14.22.3s-.08.27-.27.27-.29-.1-.29-.31S35.14,19.35,35.33,19.34ZM35,18.48c0-.18.06-.28.26-.28s.3,0,.3.22,0,.35-.24.34S35,18.7,35,18.48Zm.27-.88c-.18,0-.27-.07-.27-.27s.09-.31.31-.29.25.09.26.27S35.47,17.61,35.26,17.6Zm0-4.56c-.19,0-.27-.08-.27-.27s.06-.31.29-.31.32.08.28.28S35.45,13,35.25,13Zm0-1.13c-.23,0-.28-.11-.28-.31s.12-.27.31-.27.29.1.26.29S35.45,11.9,35.26,11.91Zm.3-1.44c0,.17,0,.3-.24.29s-.34,0-.34-.25,0-.34.28-.31S35.57,10.24,35.56,10.47ZM35,9.14c.19.13.3.26.29.43s-.12.08-.18,0S35,9.35,35,9.14Zm1.79,23.8c-.06.44.24,1.14-.12,1.48s-1,0-1.53.1a1,1,0,0,1-1.22-.78,3.71,3.71,0,0,0-1.76-2.06.7.7,0,0,1-.39-.77,13.36,13.36,0,0,1,.6-2.86c.09-.32.2-.26.47-.18a2.36,2.36,0,0,1,1.65,1.51,3.43,3.43,0,0,0,1.83,1.7.7.7,0,0,1,.48.81A9,9,0,0,0,36.77,32.94Zm-5-13c-.26,0-.26-.15-.26-.34s.11-.24.28-.24.32.08.29.29S32,19.91,31.82,19.92Zm.31.86c0,.21-.06.3-.29.29s-.29-.08-.28-.29.05-.33.27-.29S32.13,20.57,32.13,20.78ZM31.56,23c0-.36,0-.72,0-1.07,0-.2,0-.31.27-.32s.31.12.3.34,0,.34,0,.51h0c0,.19,0,.37,0,.56s-.26.26-.42.27S31.57,23.13,31.56,23Zm2.57-11.11c-.22,0-.3-.09-.29-.31s.06-.27.26-.27.34,0,.31.27S34.36,11.91,34.13,11.91Zm0,.55c.19,0,.27.07.27.26s0,.35-.27.31-.31,0-.31-.28S33.93,12.46,34.14,12.46Zm0,2.86c-.2,0-.25-.1-.26-.28s.09-.3.31-.3.29.11.27.32S34.28,15.32,34.09,15.32Zm0,1.71c.25,0,.28.13.28.32s-.11.26-.29.25-.29-.1-.28-.31S34,17,34.13,17Zm-.29-.81c0-.2,0-.34.28-.32s.28,0,.29.24,0,.34-.27.32S33.84,16.44,33.84,16.22Zm.25,2c.21,0,.33,0,.32.28s0,.3-.23.28-.34,0-.34-.27S33.9,18.21,34.09,18.2Zm0,1.15c.17,0,.3,0,.3.23s0,.34-.26.33-.31-.08-.31-.3S33.93,19.34,34.11,19.35Zm0-5.17c-.16,0-.31,0-.3-.23s0-.34.25-.35.34,0,.32.27S34.37,14.19,34.14,14.18Zm0-3.41c-.2,0-.31,0-.32-.28s.08-.32.3-.29.29.08.28.29S34.35,10.77,34.15,10.77Zm0-1.14c-.18,0-.34,0-.35-.25s0-.35.28-.32.32,0,.3.27S34.4,9.63,34.18,9.63Zm-.3-1.76c.23.13.51.22.49.52s-.23.12-.33.09C33.66,8.39,33.89,8.09,33.88,7.87ZM32.7,7.08a1.06,1.06,0,0,1,.55,1.31c-.1.14-.24.09-.36.09s-.19-.15-.19-.29Zm.28,2c.21,0,.31.06.29.28s0,.29-.24.29-.33,0-.33-.26S32.74,9,33,9.06Zm0,1.14c.18,0,.36,0,.3.24s0,.33-.27.33-.3-.09-.29-.31S32.76,10.19,33,10.2Zm0,10.87c-.19,0-.32,0-.31-.27s0-.32.26-.31.36,0,.3.24S33.26,21.08,33,21.07Zm0-5.75c-.16,0-.31,0-.3-.24s0-.34.25-.34.35,0,.32.25S33.23,15.33,33,15.32Zm0-3.42c-.23,0-.27-.11-.27-.3s.12-.27.31-.27.28.11.25.29S33.16,11.9,33,11.9Zm0,.57c.23,0,.31.07.3.29s0,.28-.24.28-.34,0-.33-.26S32.73,12.43,33,12.47Zm0,3.41c.2,0,.35,0,.32.27s-.05.33-.28.32-.29,0-.29-.24S32.71,15.89,33,15.88ZM33,17c.2,0,.34,0,.32.28s0,.32-.27.31-.3,0-.3-.24S32.71,17,33,17Zm0-3.42c.18,0,.29.05.28.25s0,.36-.25.32-.33,0-.32-.26S32.77,13.6,33,13.6Zm0,4.59c.19,0,.27.08.26.27s0,.35-.25.31-.32-.08-.33-.3S32.81,18.19,33,18.19Zm0,1.14c.18,0,.28.06.27.26s0,.35-.26.32-.31-.06-.32-.28S32.79,19.33,33,19.33Zm0,2.31c.17-.05.31,0,.31.25,0,.4,0,.77-.63.74C32.86,22.28,32.4,21.82,33,21.64Zm.13,1.93c.19-.13.49-.43.66-.16a.82.82,0,0,1,0,.91c-.78,1-.78,1,0,1.91.26.32,0,.68.14,1a1.89,1.89,0,0,1-1.62-1.64A1.94,1.94,0,0,1,33.09,23.57Zm-1-5.09c0,.27-.12.3-.31.3s-.25-.17-.25-.35.13-.23.29-.24S32.16,18.3,32.12,18.48Zm-.28-.87c-.18,0-.29-.05-.29-.26s0-.33.27-.33.33.06.31.29S32.06,17.62,31.84,17.61Zm0-6.84c-.23,0-.3-.1-.29-.31s.06-.27.26-.27.34,0,.3.27S32.07,10.77,31.85,10.77Zm.28.84c0,.2-.05.3-.28.29s-.3-.05-.29-.27,0-.34.26-.29S32.13,11.38,32.13,11.61Zm-.29.85c.22,0,.31.07.28.29s-.06.29-.27.29-.3-.07-.3-.29S31.63,12.46,31.84,12.46Zm0,1.72c-.21,0-.24-.11-.24-.29s.09-.28.3-.29.28.13.26.32S32,14.17,31.8,14.18Zm0,2.28c-.22,0-.22-.14-.22-.3s.12-.27.32-.27.25.16.25.34S32,16.46,31.78,16.46Zm.07-1.14c-.16,0-.3,0-.29-.24s0-.34.25-.34.34,0,.31.27S32.09,15.33,31.85,15.32ZM31.77,6.7c.16,0,.35,0,.35.28,0,.42,0,.83,0,1.24,0,.2-.09.27-.28.26s-.29,0-.29-.24V7.56c0-.19,0-.38,0-.56S31.51,6.66,31.77,6.7Zm.11,2.35c.2,0,.25.09.25.28s-.06.33-.29.29-.28-.09-.29-.3S31.69,9.06,31.88,9.05Zm-1.19,2.28c.18,0,.34,0,.3.26s0,.32-.26.31-.32,0-.31-.26S30.44,11.32,30.69,11.33Zm-.27-.84c0-.17,0-.3.23-.29s.36,0,.34.24,0,.36-.24.31S30.41,10.72,30.42,10.49Zm.27,2c.19,0,.31,0,.31.26s0,.32-.27.31-.32,0-.31-.27S30.44,12.44,30.69,12.47Zm0-5.9c.19,0,.27.07.26.27s0,.45,0,.68S31,8,31,8.2s-.09.29-.3.28-.27-.08-.27-.27c0-.45,0-.91,0-1.36C30.41,6.62,30.52,6.57,30.73,6.57Zm-.05,2.48c.18,0,.34,0,.31.26s0,.32-.26.32-.31,0-.31-.27S30.44,9,30.68,9.05Zm0,4.55c.22,0,.31.09.28.3s-.08.28-.29.28-.28-.08-.28-.29S30.5,13.6,30.71,13.6Zm-.05,1.71c-.26,0-.23-.16-.24-.33s.17-.23.34-.23.23.17.23.35S30.82,15.3,30.66,15.31Zm0,.58c.2,0,.31,0,.31.27s-.05.31-.27.31-.32,0-.31-.27S30.45,15.86,30.69,15.89Zm0,1.13c.23,0,.3.11.27.3s-.1.28-.3.29-.27-.11-.27-.31S30.52,17,30.72,17Zm0,1.18c.2,0,.3.05.3.27s-.06.31-.28.31-.3-.07-.3-.29S30.47,18.17,30.7,18.2Zm0,2.87c-.19,0-.32,0-.31-.27s0-.33.26-.31.36,0,.31.24S31,21.08,30.73,21.07Zm0-1.16c-.21,0-.29-.07-.29-.28s.07-.3.28-.3.3.07.3.29S30.93,19.94,30.71,19.91Zm-.29,3a8.68,8.68,0,0,0,0-1c0-.2.06-.3.29-.3s.28.09.29.3a6.78,6.78,0,0,0,.05,1.49C30.6,23.61,30.36,23.52,30.42,23Zm-.89-7.63c-.22,0-.24-.12-.25-.29s.08-.29.3-.29.29.12.27.3S29.7,15.31,29.53,15.32Zm0,.57c.26,0,.29.12.3.32s-.15.25-.34.25-.23-.11-.24-.28S29.35,15.85,29.56,15.89Zm0,1.13c.19,0,.34,0,.32.28s-.05.31-.27.31-.3,0-.3-.24S29.27,17,29.53,17Zm0-2.85c-.24,0-.27-.11-.27-.3s.08-.27.27-.27.3.07.31.29S29.77,14.2,29.55,14.17Zm0-1.13c-.18,0-.29,0-.28-.25s0-.34.25-.33.36,0,.31.26S29.79,13,29.57,13Zm.27-1.45c0,.26-.08.31-.29.32s-.26-.13-.27-.32.09-.26.27-.26S29.9,11.37,29.84,11.59Zm-.2-4.92c.24,0,.21.16.21.3,0,.39,0,.78,0,1.17,0,.23-.05.35-.31.35s-.25-.16-.25-.34V7.6c0-.21,0-.42,0-.62S29.44,6.68,29.64,6.67Zm-.07,2.39c.27,0,.28.13.28.32s-.16.24-.34.25-.21-.14-.23-.3S29.38,9,29.57,9.06Zm0,1.13c.19,0,.34,0,.31.27s-.07.3-.29.31-.28-.11-.28-.31S29.34,10.19,29.54,10.19Zm0,8c.22,0,.31.07.31.3s-.1.3-.31.28-.26-.13-.27-.32S29.37,18.2,29.55,18.19ZM28.4,19.92c-.26,0-.25-.16-.26-.34s.12-.24.29-.25.31.1.28.31S28.59,19.92,28.4,19.92Zm0-1.14c-.23,0-.31-.11-.28-.31s.11-.28.3-.28.27.09.27.28S28.64,18.77,28.43,18.78Zm0-4.6c-.21,0-.26-.09-.26-.27s.06-.31.29-.31.31.1.28.31S28.58,14.17,28.4,14.18Zm0,2.29c-.16,0-.29,0-.29-.24s0-.35.25-.35.34,0,.32.28S28.66,16.47,28.43,16.47Zm0-3.43c-.18,0-.27-.06-.27-.26s0-.35.27-.31.31.06.31.28S28.62,13,28.41,13Zm0-1.14c-.24,0-.25-.13-.26-.31s.12-.26.31-.26.28.12.26.31S28.59,11.89,28.4,11.9Zm0-1.13c-.25,0-.26-.14-.27-.33s.1-.25.28-.25.33.06.29.29S28.61,10.76,28.41,10.77Zm0-1.14c-.23,0-.3-.08-.3-.3s0-.28.25-.28.35,0,.32.27S28.66,9.63,28.44,9.63Zm-.82-2.08c-.14.39.19.75-.26.92-.1,0-.29.07-.33-.11C26.93,8,27.24,7.82,27.62,7.55ZM27.26,13c-.21,0-.25-.1-.26-.28s.07-.3.29-.3.31.1.28.31S27.44,13,27.26,13Zm0,.57c.25,0,.32.08.32.3s-.12.27-.32.27S27,14.1,27,13.91,27,13.56,27.26,13.61Zm0-4.56c.21,0,.33.06.3.29s-.11.28-.31.29S27,9.49,27,9.3,27.1,9.05,27.28,9.05Zm0,1.14c.17,0,.34,0,.33.26s0,.33-.28.31-.3-.06-.3-.28S27,10.19,27.25,10.19Zm0,1.14c.21,0,.29.07.29.29s-.08.28-.29.29-.29-.08-.29-.29S27.07,11.3,27.29,11.33Zm-1.12,4c-.21,0-.32-.05-.31-.28s0-.28.25-.28.33.07.31.29S26.36,15.31,26.17,15.31Zm.26.9c0,.21-.12.25-.3.25s-.27-.05-.27-.25.05-.32.28-.32S26.43,16,26.43,16.21Zm-.32.82c.2,0,.33.06.31.29s-.05.27-.25.28-.32,0-.31-.28S25.9,17,26.11,17Zm.31,1.4c0,.19,0,.34-.26.34s-.29,0-.3-.24,0-.34.26-.33S26.42,18.22,26.42,18.43Zm-.27.91c.18,0,.28.07.28.27s-.09.31-.31.29-.25-.09-.26-.26S25.94,19.33,26.15,19.34Zm0-5.16c-.18,0-.29,0-.29-.25s0-.33.27-.33.33.05.31.29S26.35,14.18,26.14,14.18Zm0-1.14c-.2,0-.27-.08-.27-.27s0-.34.28-.3.3.07.31.29S26.32,13,26.12,13Zm.21-3.95c.14,0,.1.18.09.28,0,.38-.29.23-.53.22C26,9.39,26,9.07,26.33,9.09Zm-.21,1.1c.2,0,.34,0,.31.28s-.08.29-.29.3-.29-.11-.29-.31S25.93,10.19,26.12,10.19Zm0,1.14c.22,0,.29.07.3.29s-.09.28-.3.29-.29-.08-.29-.29S25.92,11.3,26.14,11.33ZM26.37,21c-.31.07-.3-.26-.53-.49.28,0,.5-.16.59.13C26.46,20.78,26.49,21,26.37,21Zm.91-6.28c.21,0,.32.08.3.3s-.11.28-.31.28-.27-.07-.27-.27S27,14.73,27.28,14.74Zm.29,2.61c0,.28-.19.25-.36.24s-.19-.17-.2-.32.12-.24.3-.24S27.59,17.17,27.57,17.35Zm0,1.12c0,.23-.11.29-.31.3s-.26-.16-.26-.34.13-.24.29-.23S27.57,18.28,27.58,18.47Zm-.35-2c-.23,0-.22-.15-.22-.31s.09-.26.28-.26.3.11.28.31S27.4,16.45,27.23,16.46Zm.07,2.88c.19,0,.28.07.28.27s-.1.31-.31.29-.25-.09-.26-.27S27.09,19.33,27.3,19.34Zm0,1.14c.23,0,.27.12.27.32s-.11.29-.31.27-.26-.13-.27-.31S27.11,20.48,27.31,20.48ZM27,21.75c.05-.21.29-.15.38-.1.35.16.11.48.22.89C27.25,22.25,26.93,22.13,27,21.75ZM28.72,7c0,.44,0,.83,0,1.22,0,.21-.08.3-.3.31s-.31-.12-.27-.31C28.23,7.75,27.84,7.11,28.72,7Zm-.28,7.78c.24,0,.29.12.27.32s-.15.25-.32.26-.24-.12-.25-.29S28.22,14.74,28.44,14.74Zm0,2.28c.2,0,.33.07.31.3s-.1.29-.31.29-.27-.06-.27-.26S28.16,17,28.41,17Zm0,3.46c.22,0,.28.1.28.31s-.09.3-.3.28-.27-.1-.28-.3S28.23,20.48,28.44,20.48Zm.16,2.59a.39.39,0,0,1-.45-.33c0-.27,0-.53,0-.79s0-.32.26-.32.32.12.31.34,0,.3,0,.45a1.4,1.4,0,0,1,0,.29C28.68,22.83,28.81,23.06,28.6,23.07Zm.95-3.74c.2,0,.31.05.31.29s-.08.32-.3.29-.28-.11-.28-.31S29.35,19.33,29.55,19.33Zm0,1.16c.22,0,.3.07.3.29s-.07.29-.29.29-.29-.08-.29-.29S29.34,20.46,29.56,20.49Zm-.27,2.62c0-.42,0-.83,0-1.24,0-.21.11-.24.28-.24s.29.05.28.25,0,.45,0,.68,0,.37,0,.56.06.34-.19.3S29.28,23.38,29.29,23.11Zm-8.63.83a2,2,0,0,1,2.4,0,10.76,10.76,0,0,1,2.17,1.81.65.65,0,0,1,.17.66c-.14.62-.29,1.25-.4,1.87a.51.51,0,0,1-.41.47c-.86.26-1.76.83-2.57.71s-1.57-1-2.37-1.56a.55.55,0,0,1-.25-.52c0-.4,0-.8,0-1.38C19.07,25,19.72,24.5,20.66,23.94Zm-7.21,1a11.21,11.21,0,0,1,2.28-1.43.75.75,0,0,1,.79.05,3.57,3.57,0,0,0,.68.4c1.05.41,1.66,1.06,1.24,2.26.39,1.16-.29,1.73-1.1,2.39a2.76,2.76,0,0,1-3.1.5,2.14,2.14,0,0,1-1.6-1.75A2.09,2.09,0,0,1,13.45,25Zm-5-3.13a1,1,0,0,1,1.17.29,9.46,9.46,0,0,1,1.56,2.8,26.67,26.67,0,0,0-5.35-1.58A8,8,0,0,1,8.4,21.82ZM4.71,39.35A1,1,0,0,1,3.6,39a7.32,7.32,0,0,1-1.49-2.7,25.52,25.52,0,0,0,5.33,1.48A7.6,7.6,0,0,1,4.71,39.35Zm5.39-4.62a13.1,13.1,0,0,1-1.52,2A.61.61,0,0,1,8,37a23.87,23.87,0,0,1-5.86-1.64.73.73,0,0,1-.49-.61,13,13,0,0,1-.25-2.23,11.5,11.5,0,0,1,3.23-8.15.65.65,0,0,1,.64-.23,25.14,25.14,0,0,1,5.62,1.64c.4.17.39.3.19.64a9.07,9.07,0,0,0-.89,7.45A.94.94,0,0,1,10.1,34.73Zm3.22,1.17a2,2,0,0,1-2-1.6,9.42,9.42,0,0,1-.59-2.59c-.08-.27.07-.5.33-.7a2.06,2.06,0,0,0,.46-.42c.77-1.06,1.67-1,2.83-.61a2.46,2.46,0,0,1,1.92,1.93c.36,1.44.44,1.42-.43,2.61l-.3.41C14.69,36.05,14.69,35.94,13.32,35.9ZM21.87,38a2.17,2.17,0,0,1-2.11,1.45A10.2,10.2,0,0,1,17,39.18a.65.65,0,0,1-.52-.44,3.73,3.73,0,0,0-.42-.93,1.67,1.67,0,0,1,.29-2.45.89.89,0,0,0,.16-.22c.54-1,1.25-1.64,2.5-1.2,1.3-.49,1.86.39,2.56,1.26A2.29,2.29,0,0,1,21.87,38Zm3.25-2.51c0,.26-.07.37-.34.39-.47,0-.94.1-1.36.15-.26.06-.35-.1-.45-.24-.52-.71-1-1.43-1.56-2.14a.56.56,0,0,1-.1-.57c.26-.73.5-1.46.72-2.2a.61.61,0,0,1,.44-.45c.81-.25,1.62-.51,2.42-.78a.51.51,0,0,1,.56.13c.49.46,1,.92,1.51,1.37.33.28.37.52,0,.81A4.51,4.51,0,0,0,25.12,35.44Zm8.18,1c0,.16,0,.35-.3.29a.48.48,0,0,0-.32.09c-.17.12-.46.17-.37.48s.18.19.63.1a3.7,3.7,0,0,1-6.39.12c.17-.1.43,0,.48-.24s-.17-.4-.36-.44c-.64-.13-.64-.62-.65-1.1a3.63,3.63,0,0,1,.75-2.37c.18-.22.3-.53.71-.37.16.06.27-.12.33-.25.26-.59.78-.69,1.33-.79a3.5,3.5,0,0,1,1.73.14.7.7,0,0,1,.52.44c.11.25.25.65.71.37.12-.07.2.07.27.14A3.63,3.63,0,0,1,33.3,36.4Zm10,.62c.37,0,.44.13.43.46a11.06,11.06,0,0,0,0,1.41c0,.37-.13.44-.46.43H38.59c-1.53,0-3.06,0-4.58,0-.37,0-.46-.1-.49-.47A3.4,3.4,0,0,1,34,37.2c.09-.21.27-.17.43-.17ZM42,35.37c.27,0,.47,0,.48.37s-.23.39-.51.39H34.77c-.21,0-.5.12-.49-.31s.13-.44.46-.44C37.18,35.38,39.61,35.37,42,35.37ZM37.67,33v-.51c0-.9,0-.88.91-.93.34,0,.43.07.42.39,0,.7,0,1.4,0,2.09,0,.39-.13.51-.49.47h-.45c-.29,0-.41-.07-.4-.38S37.67,33.38,37.67,33Zm4.2-5.36a3.6,3.6,0,0,1-7.15-.38c0-1.83,0-3.66,0-5.49,0-.31.13-.37.41-.36,1.07,0,2.15,0,3.22,0h3.23c.21,0,.42,0,.41.3C41.91,23.69,42.11,25.67,41.87,27.64Zm1.5-.46c-.35.17-.56.17-.53-.32a1,1,0,0,1,.33-.83,1,1,0,0,0,0-1.53c-.41-.33-.26-.71-.26-1.08s.21-.12.33-.09a2.14,2.14,0,0,1,1.39,2.21A2,2,0,0,1,43.37,27.18Z"/></svg>