<svg id="Layer_1" data-name="Layer 1" xmlns="http://www.w3.org/2000/svg" viewBox="0 0 23 23"><defs><style>.cls-1{fill:#2b95ad;}</style></defs><title>Icons</title><path class="cls-1" d="M2.65,14.28c-.07,0-.15,0-.18.07s0,.13.12.15.17.1.13.21a.19.19,0,0,1-.25.12c-.06,0-.13-.05-.16,0s0,.14.08.17a.17.17,0,0,1,.13.22.18.18,0,0,1-.23.1c-.09,0-.12,0-.14.1s0,.1.1.12.19.1.15.23-.13.12-.22.11-.13,0-.16.08,0,.13.13.15.23.08.19.23-.15.13-.26.11-.13,0-.14.08a.11.11,0,0,0,.1.14c.12,0,.23.09.18.23s-.19.12-.31.09l-.52-.15c-.1,0-.18-.08-.16-.19a.16.16,0,0,1,.2-.15c.07,0,.16,0,.18-.08s-.06-.13-.13-.15-.16-.09-.14-.19A.16.16,0,0,1,1.55,16c.1,0,.14,0,.15-.1s-.05-.11-.11-.13-.19-.09-.17-.21a.17.17,0,0,1,.25-.12c.08,0,.12,0,.15-.06a.1.1,0,0,0-.08-.15c-.12,0-.24-.09-.19-.25s.16-.13.28-.08.11,0,.14-.09,0-.11-.09-.13-.18-.11-.14-.23.13-.12.23-.1.15,0,.17-.09,0-.11-.1-.14a.15.15,0,0,1-.1-.2.14.14,0,0,1,.21-.11c.09,0,.14,0,.18-.07s0-.12-.1-.15a.16.16,0,0,1-.1-.21c0-.1.11-.12.21-.11s.17,0,.21-.07-.09-.12-.14-.16a.17.17,0,0,1,.14-.31l.62.19c.11,0,.17.09.14.21s-.11.14-.22.11-.17-.05-.21.06.06.12.13.16.14.1.11.2a.19.19,0,0,1-.23.12c-.08,0-.18-.1-.23.05s.1.13.16.17a.17.17,0,0,1,.09.21C2.86,14.32,2.76,14.31,2.65,14.28Z"/><path class="cls-1" d="M14.7,16.58c0-.1,0-.25.13-.26s.15.13.15.25,0,.25-.15.24S14.7,16.68,14.7,16.58Z"/><path class="cls-1" d="M14.64,17.76c0,.11-.05.19-.14.19s-.15-.2-.18-.31,0-.2.14-.19S14.58,17.66,14.64,17.76Z"/><path class="cls-1" d="M15.82,18.2c-.1,0-.17,0-.16-.13a.44.44,0,0,1,.24-.33.12.12,0,0,1,.16.12A.43.43,0,0,1,15.82,18.2Z"/><path class="cls-1" d="M14.7,17.67c0-.11,0-.24.12-.25s.16.13.16.24,0,.25-.16.24S14.71,17.76,14.7,17.67Z"/><path class="cls-1" d="M14.3,17.85c0,.13,0,.2-.12.19s-.19-.19-.22-.32,0-.18.13-.16S14.23,17.78,14.3,17.85Z"/><path class="cls-1" d="M15.71,17.71c-.07.11,0,.31-.23.33a.12.12,0,0,1-.11-.16c0-.13,0-.29.22-.32S15.72,17.61,15.71,17.71Z"/><path class="cls-1" d="M13.74,18.18a.38.38,0,0,0,0-.1c-.05-.09-.15-.18-.06-.3a.12.12,0,0,1,.13,0,.39.39,0,0,1,.22.3c0,.2-.15.13-.26.13Z"/><path class="cls-1" d="M14.15,16.19c.1,0,.17,0,.15.14s0,.29-.21.33a.1.1,0,0,1-.13-.13C14,16.39,14,16.25,14.15,16.19Z"/><path class="cls-1" d="M14.64,16.46c-.07.09,0,.28-.17.31a.12.12,0,0,1-.15-.15c0-.11,0-.28.16-.32S14.63,16.35,14.64,16.46Z"/><path class="cls-1" d="M15,16.47c0-.12,0-.19.14-.17s.14.2.16.32,0,.18-.14.15S15.07,16.57,15,16.47Z"/><path class="cls-1" d="M15.34,17.63c0,.12,0,.29-.17.31s-.14-.08-.13-.17,0-.29.17-.32S15.34,17.54,15.34,17.63Z"/><path class="cls-1" d="M13.74,18.18c0,.1,0,.26-.14.23a.32.32,0,0,1-.29-.29c0-.12.11-.14.21-.09s.12.15.22.15Z"/><path class="cls-1" d="M16.09,18.42c-.11,0-.17-.05-.15-.12a.35.35,0,0,1,.29-.29.1.1,0,0,1,.12.12C16.32,18.3,16.19,18.36,16.09,18.42Z"/><path class="cls-1" d="M15.51,16.2c.15,0,.16.2.21.32a.12.12,0,0,1-.13.14c-.18,0-.19-.19-.22-.32S15.4,16.2,15.51,16.2Z"/><path class="cls-1" d="M19.53,13.22a.11.11,0,0,1-.11.07h-.48c-.06,0-.13,0-.15-.06s.07-.08.12-.1c.23-.12.14-.37.2-.56s.11-.27-.11-.31c0,0-.05,0,0-.06s.29-.06.43-.13.13,0,.11.13-.1.48-.14.72c0,.08-.05.19.09.22S19.55,13.15,19.53,13.22Z"/><path class="cls-1" d="M21.63,11.21c-.16,0-.21-.1-.21-.27,0-.79,0-.68-.69-.69H18.16a6.34,6.34,0,0,0,.56-2.69,5.69,5.69,0,0,0-.95-3.42,2.89,2.89,0,0,0-2.4-1.3,3,3,0,0,0-2.93,1.94A6.27,6.27,0,0,0,11.88,8a5.11,5.11,0,0,0,.92,2.89,11,11,0,0,1,1.31,2.37,7.33,7.33,0,0,1,.57,1.94c0,.11.1.27-.06.32a.86.86,0,0,1-.51.09c-.11,0-.06-.28-.07-.42a4.59,4.59,0,0,0-6-3.95,4.67,4.67,0,0,0-2,1.3L6,12.34a4.46,4.46,0,0,0-.84-1.56.87.87,0,0,0-1-.31,3.1,3.1,0,0,0-.6.23A5.88,5.88,0,0,0,1.91,12a6.2,6.2,0,0,0-.81,7.36,1.85,1.85,0,0,0,.85.83h.4a2.51,2.51,0,0,0,1.12-.42,7.14,7.14,0,0,0,1-.76,4.86,4.86,0,0,0,1-1.26.19.19,0,0,0,0,.18,4.31,4.31,0,0,0,1.25,1.4,4.13,4.13,0,0,0,2.18.86H10c.26-.07.54,0,.8-.12a4.92,4.92,0,0,0,1.75-1c.13-.12.23-.15.35,0a2.39,2.39,0,0,0,3.06.76l.16-.08c.08,0,.15,0,.15.07s.14.29.35.27h5.14a.81.81,0,0,0,.31,0c.17,0,.21-.16.21-.32V18.38c0-.22-.09-.35-.32-.31s-.3-.08-.27-.29a1.33,1.33,0,0,1,0-.2c0-.24-.09-.34-.33-.33-.4,0-.8,0-1.19,0-.19,0-.25-.06-.24-.25,0-.38,0-.77,0-1.16a.26.26,0,0,1,.18-.28,2.16,2.16,0,0,0,1.17-1.27.26.26,0,0,1,.23-.2,1.48,1.48,0,0,0,.12-2.89ZM12.33,7c0-.1,0-.16.15-.16s.17,0,.16.15-.05.14-.15.14S12.32,7.09,12.33,7Zm.31,1.7c0,.08,0,.13-.1.14s-.12-.1-.14-.18,0-.1.12-.1S12.65,8.58,12.64,8.66Zm-.16-.43c-.11,0-.14-.05-.15-.15s.06-.13.16-.13.15,0,.15.14S12.58,8.23,12.48,8.23Zm0-.57c-.12,0-.14,0-.14-.15s0-.14.15-.14.19,0,.18.15S12.55,7.65,12.46,7.66Zm0-1.14q-.13,0-.09-.12c0-.08,0-.18.14-.17s.11.08.11.17S12.58,6.52,12.49,6.52Zm.12-.58a.14.14,0,0,1-.09,0c0-.1,0-.17.06-.33C12.67,5.77,12.68,5.86,12.61,5.94Zm5.52,2.83c-.1-.08-.06-.16,0-.26C18.25,8.6,18.12,8.69,18.13,8.77Zm.12-.69c0,.07,0,.14-.1.14s-.08-.08-.08-.14,0-.14.11-.13S18.26,8,18.25,8.08Zm-.06-.43c-.08,0-.13,0-.12-.11s0-.16.1-.16.1.06.1.13S18.29,7.65,18.19,7.65Zm-.07-1.4c0,.09.12.16,0,.25h0A.2.2,0,0,1,18.12,6.25Zm0,.55c.1,0,.11.08.12.13s0,.15-.08.16S18.05,7,18.05,7,18.05,6.81,18.14,6.8Zm-.52.29c-.1,0-.13,0-.13-.14s0-.15.15-.15.15.06.14.15S17.71,7.09,17.62,7.09Zm0,.86c.1,0,.12.06.12.15s0,.13-.13.13-.16,0-.16-.14S17.56,8,17.66,8Zm-.17-.43c0-.11.05-.15.16-.15s.13.08.13.17-.07.12-.14.11S17.49,7.62,17.49,7.52Zm.17,2.15c.11,0,.12.07.12.15s0,.13-.14.13-.15,0-.15-.15S17.57,9.67,17.66,9.67Zm-.17-.43c0-.09,0-.14.13-.14s.16,0,.16.11,0,.18-.13.17S17.49,9.35,17.49,9.24Zm.14-.44c-.09,0-.14,0-.14-.13s.05-.16.16-.15.12.05.13.13S17.74,8.8,17.63,8.8Zm0-2.28c-.09,0-.13,0-.13-.14s0-.15.15-.15.16,0,.14.14S17.72,6.52,17.62,6.52Zm0-.57c-.11,0-.14,0-.14-.15s.06-.13.16-.14.14.06.13.15S17.73,6,17.63,6Zm.15-.71c0,.08,0,.14-.12.14s-.17,0-.17-.12,0-.17.14-.16S17.79,5.12,17.78,5.24Zm-.29-.67c.1.07.15.13.14.21s-.05,0-.09,0S17.48,4.67,17.49,4.57Zm.89,11.9c0,.22.12.57-.05.74s-.51,0-.77.05a.48.48,0,0,1-.61-.39,1.82,1.82,0,0,0-.88-1,.34.34,0,0,1-.19-.39A7,7,0,0,1,16.17,14c0-.15.1-.12.24-.09a1.2,1.2,0,0,1,.83.76,1.69,1.69,0,0,0,.91.85.34.34,0,0,1,.24.4A4.46,4.46,0,0,0,18.38,16.47ZM15.91,10c-.13,0-.13-.08-.13-.17s.06-.12.14-.12.16,0,.14.15S16,10,15.91,10Zm.15.43c0,.1,0,.15-.14.15s-.14,0-.14-.15,0-.17.13-.14S16.06,10.29,16.06,10.39Zm-.28,1.12V11c0-.09,0-.15.13-.15s.16.06.15.17v.25h0a2.62,2.62,0,0,1,0,.28c0,.13-.13.13-.21.13S15.78,11.56,15.78,11.51ZM17.06,6c-.11,0-.14,0-.14-.15s0-.14.13-.14.17,0,.15.14S17.18,6,17.06,6Zm0,.28c.1,0,.14,0,.14.13s0,.17-.14.16-.15,0-.15-.14S17,6.23,17.07,6.23Zm0,1.43c-.1,0-.13,0-.13-.14s0-.15.15-.15.14.06.13.16S17.14,7.66,17.05,7.66Zm0,.86c.12,0,.13.06.13.16s-.05.13-.14.12-.14-.05-.14-.16S17,8.52,17.07,8.52Zm-.15-.41c0-.1,0-.17.14-.16s.14,0,.14.12,0,.17-.13.16S16.92,8.22,16.92,8.11Zm.13,1c.1,0,.16,0,.15.14s0,.15-.11.14-.17,0-.17-.14S17,9.1,17.05,9.1Zm0,.57c.08,0,.15,0,.14.12s0,.17-.13.16-.15,0-.15-.15S17,9.67,17.06,9.67Zm0-2.58c-.08,0-.15,0-.15-.12s0-.17.12-.17.18,0,.16.14S17.19,7.1,17.07,7.09Zm0-1.71c-.1,0-.16,0-.16-.14s0-.15.15-.14.14,0,.14.15S17.18,5.38,17.08,5.38Zm0-.57c-.09,0-.17,0-.17-.12s0-.17.13-.16.16,0,.16.13S17.2,4.82,17.09,4.81Zm-.15-.88c.11.07.26.11.24.27s-.11,0-.16,0S17,4.05,16.94,3.93Zm-.59-.39a.52.52,0,0,1,.27.65c0,.07-.11,0-.18,0s-.09-.08-.09-.14Zm.14,1c.11,0,.15,0,.15.14s0,.15-.13.14-.16,0-.16-.13S16.37,4.52,16.49,4.53Zm0,.57c.09,0,.18,0,.15.12s0,.16-.13.16-.15,0-.15-.15S16.38,5.09,16.48,5.1Zm0,5.44c-.1,0-.16,0-.16-.14s0-.16.13-.16.18,0,.15.13S16.63,10.54,16.51,10.54Zm0-2.88c-.08,0-.15,0-.15-.12s0-.17.13-.17.17,0,.15.13S16.62,7.67,16.5,7.66Zm0-1.71c-.11,0-.13,0-.13-.15s.06-.13.15-.14.15.06.13.15S16.58,6,16.48,6Zm0,.29c.12,0,.16,0,.16.14s0,.14-.13.14-.17,0-.16-.13S16.36,6.22,16.48,6.24Zm0,1.7c.09,0,.17,0,.15.13s0,.17-.13.16-.15,0-.15-.12S16.35,7.94,16.48,7.94Zm0,.57c.09,0,.16,0,.15.14s0,.16-.13.15-.15,0-.15-.11S16.36,8.52,16.48,8.51Zm0-1.71c.09,0,.15,0,.15.13s0,.17-.13.16-.16,0-.16-.14S16.38,6.8,16.49,6.8Zm0,2.3c.09,0,.13,0,.13.13s0,.17-.13.16-.16,0-.16-.15S16.41,9.1,16.51,9.1Zm0,.57c.09,0,.14,0,.14.12s0,.18-.14.17-.15,0-.15-.15S16.39,9.67,16.5,9.67Zm0,1.15c.08,0,.15,0,.16.13s0,.38-.32.36C16.43,11.14,16.2,10.91,16.48,10.82Zm.06,1c.1-.07.25-.22.34-.08a.41.41,0,0,1,0,.45c-.39.5-.39.5,0,1,.14.15,0,.34.07.51a1,1,0,0,1-.81-.82A1,1,0,0,1,16.54,11.79Zm-.48-2.55c0,.14-.06.15-.16.15s-.12-.09-.12-.17.06-.12.15-.12S16.08,9.15,16.06,9.24Zm-.14-.44c-.09,0-.14,0-.14-.12s0-.17.13-.17.17,0,.15.15S16,8.81,15.92,8.8Zm0-3.42c-.11,0-.14,0-.14-.15s0-.13.13-.13.17,0,.15.13S16,5.38,15.92,5.38Zm.14.42c0,.1,0,.15-.13.15s-.16,0-.15-.14,0-.16.13-.14S16.07,5.69,16.06,5.8Zm-.14.43c.11,0,.16,0,.14.15s0,.14-.14.14-.14,0-.14-.14S15.81,6.23,15.92,6.23Zm0,.86c-.11,0-.12-.06-.12-.14s0-.15.15-.15.14.06.13.16S16,7.09,15.9,7.09Zm0,1.14c-.11,0-.11-.07-.11-.15s.06-.14.16-.14.13.08.12.17S16,8.23,15.89,8.23Zm0-.57c-.08,0-.15,0-.15-.12s0-.17.12-.17.18,0,.16.14S16,7.67,15.93,7.66Zm0-4.31c.09,0,.18,0,.18.14v.62c0,.1,0,.13-.13.13s-.15,0-.15-.12V3.5C15.78,3.43,15.76,3.33,15.88,3.35Zm.06,1.18c.1,0,.12,0,.12.13s0,.17-.14.15-.14,0-.14-.15S15.84,4.53,15.94,4.53Zm-.6,1.13c.1,0,.17,0,.15.14s0,.16-.12.15-.16,0-.16-.13S15.22,5.66,15.34,5.66Zm-.13-.42c0-.08,0-.15.12-.14s.17,0,.17.12,0,.18-.13.16S15.2,5.36,15.21,5.24Zm.13,1c.1,0,.16,0,.16.12s0,.16-.14.16-.16,0-.15-.13S15.22,6.22,15.34,6.24Zm0-2.95c.1,0,.14,0,.14.13s0,.22,0,.34,0,.22,0,.34-.05.14-.16.14-.13,0-.13-.13,0-.46,0-.68S15.26,3.29,15.36,3.29Zm0,1.24c.09,0,.17,0,.15.13s0,.16-.12.15-.16,0-.16-.13S15.22,4.52,15.34,4.53Zm0,2.27c.1,0,.15,0,.13.15s0,.14-.14.14-.14,0-.14-.14S15.25,6.8,15.36,6.8Zm0,.86c-.13,0-.12-.09-.12-.17s.08-.12.17-.12.12.09.12.18S15.41,7.65,15.33,7.66Zm0,.29c.1,0,.15,0,.15.13s0,.15-.14.15-.16,0-.15-.13S15.23,7.93,15.35,8Zm0,.56c.11,0,.15.05.13.15s-.05.14-.14.14-.14-.05-.14-.15S15.26,8.51,15.36,8.51Zm0,.59c.1,0,.15,0,.15.14s0,.15-.14.15-.15,0-.15-.14S15.24,9.09,15.35,9.1Zm0,1.44c-.1,0-.16,0-.16-.14s0-.16.13-.16.18,0,.15.13S15.49,10.54,15.37,10.54Zm0-.59c-.11,0-.15,0-.15-.14s0-.14.14-.14.15,0,.15.14S15.47,10,15.36,10Zm-.15,1.53a2.9,2.9,0,0,0,0-.51c0-.11,0-.15.14-.15s.15,0,.15.15a3.08,3.08,0,0,0,0,.74C15.3,11.81,15.18,11.76,15.21,11.48Zm-.45-3.82c-.1,0-.12-.06-.12-.14s0-.15.15-.15.15.06.13.15S14.85,7.65,14.76,7.66Zm0,.29c.13,0,.15.06.15.15s-.08.13-.17.13-.12-.06-.12-.14S14.67,7.92,14.78,8Zm0,.56c.09,0,.17,0,.16.14s0,.16-.14.15-.15,0-.15-.12S14.64,8.51,14.77,8.51Zm0-1.42c-.13,0-.14-.06-.14-.16s0-.13.14-.13.15,0,.15.15S14.88,7.1,14.78,7.09Zm0-.57c-.08,0-.14,0-.14-.12s0-.18.13-.17.18,0,.15.13S14.89,6.52,14.78,6.52Zm.14-.72c0,.12,0,.15-.14.15s-.14-.06-.14-.16,0-.13.14-.13S15,5.68,14.92,5.8Zm-.1-2.47c.12,0,.1.08.1.15s0,.4,0,.59,0,.17-.16.17-.13-.07-.13-.16V3.8c0-.1,0-.21,0-.31S14.72,3.34,14.82,3.33Zm0,1.2c.13,0,.14.06.14.16s-.08.12-.17.12-.11-.07-.12-.15S14.69,4.51,14.79,4.53Zm0,.57c.1,0,.17,0,.15.13s0,.15-.14.15-.14,0-.14-.15S14.67,5.09,14.77,5.1Zm0,4c.1,0,.15,0,.15.14s0,.16-.16.15-.13-.07-.13-.16S14.68,9.1,14.78,9.1ZM14.2,10c-.13,0-.13-.08-.13-.17s.06-.12.15-.12.15,0,.14.15S14.3,10,14.2,10Zm0-.57c-.11,0-.15-.05-.14-.16s.06-.14.16-.13.13,0,.13.13S14.32,9.39,14.21,9.39Zm0-2.3c-.1,0-.13,0-.13-.14s0-.15.15-.15.15,0,.14.16S14.29,7.09,14.2,7.09Zm0,1.14c-.09,0-.15,0-.15-.12s0-.17.13-.17.17,0,.16.14S14.33,8.24,14.22,8.23Zm0-1.71c-.1,0-.14,0-.14-.13s0-.17.14-.16.15,0,.15.15S14.31,6.52,14.21,6.52Zm0-.57c-.12,0-.12-.06-.13-.15s.06-.13.16-.14.14.06.13.16S14.29,6,14.2,6Zm0-.57c-.13,0-.14-.06-.14-.16s0-.12.14-.12.16,0,.15.14S14.31,5.38,14.21,5.38Zm0-.56c-.11,0-.15-.05-.15-.15s0-.15.13-.14.17,0,.16.13S14.33,4.81,14.22,4.82Zm-.41-1c-.07.19.09.37-.13.46,0,0-.15,0-.17-.06S13.62,3.91,13.81,3.78Zm-.18,2.74c-.11,0-.13,0-.13-.14s0-.15.15-.15.15,0,.14.15S13.72,6.51,13.63,6.52Zm0,.29c.12,0,.16,0,.16.14s-.06.14-.16.14-.13,0-.13-.13S13.52,6.78,13.63,6.81Zm0-2.28c.1,0,.16,0,.15.14s0,.14-.16.14-.13-.06-.13-.16S13.55,4.53,13.64,4.53Zm0,.57c.09,0,.17,0,.17.12s0,.17-.14.16-.15,0-.15-.14S13.52,5.09,13.62,5.1Zm0,.57c.11,0,.15,0,.15.14s0,.14-.15.14-.14,0-.14-.14S13.53,5.65,13.64,5.67Zm-.56,2c-.1,0-.16,0-.15-.14s0-.15.13-.15.16,0,.15.15S13.18,7.65,13.08,7.66Zm.13.45c0,.1-.06.12-.15.12s-.13,0-.13-.13,0-.16.14-.15S13.21,8,13.21,8.11Zm-.16.41c.1,0,.17,0,.16.14s0,.14-.12.14-.17,0-.16-.14S13,8.52,13.05,8.52Zm.16.7c0,.09,0,.17-.13.16s-.15,0-.15-.11,0-.18.13-.17S13.21,9.11,13.21,9.22Zm-.13.45c.09,0,.13,0,.13.13s0,.16-.15.15-.13,0-.13-.13S13,9.67,13.08,9.67Zm0-2.58c-.09,0-.15,0-.14-.12s0-.17.13-.17.17,0,.16.14S13.17,7.09,13.07,7.09Zm0-.57c-.1,0-.13,0-.13-.13s0-.17.14-.16.15,0,.15.15S13.16,6.52,13.06,6.52Zm.1-2c.07,0,.06.09.05.14s-.14.11-.27.11C13,4.69,13,4.54,13.16,4.55Zm-.1.55c.1,0,.17,0,.16.13s0,.15-.15.15-.14,0-.14-.15S13,5.1,13.06,5.1Zm0,.57c.11,0,.15,0,.15.14s0,.14-.15.14-.14,0-.14-.14S13,5.65,13.07,5.67Zm.11,4.84c-.15,0-.14-.13-.26-.25.14,0,.25-.08.29.07S13.25,10.5,13.18,10.51Zm.46-3.14c.11,0,.16,0,.15.15s-.06.14-.16.14-.13,0-.13-.13S13.52,7.37,13.64,7.37Zm.15,1.3c0,.15-.1.13-.18.13s-.1-.09-.1-.16.06-.12.14-.12S13.8,8.59,13.79,8.67Zm0,.57c0,.11,0,.14-.16.14s-.12-.07-.13-.16.07-.12.15-.12S13.79,9.14,13.79,9.24Zm-.18-1c-.11,0-.1-.08-.11-.15s.05-.14.14-.13.16,0,.15.15S13.7,8.23,13.61,8.23Zm0,1.44c.09,0,.14,0,.14.13s0,.16-.16.15-.12,0-.13-.13S13.54,9.66,13.65,9.67Zm0,.57c.12,0,.14.06.14.16s-.06.14-.16.13-.12-.06-.13-.15S13.55,10.24,13.65,10.24Zm-.14.63c0-.1.14-.07.19,0s.06.25.11.45C13.62,11.12,13.47,11.06,13.51,10.87Zm.85-7.39v.61c0,.11,0,.15-.15.15s-.15-.06-.14-.15S13.92,3.56,14.36,3.48Zm-.14,3.89c.12,0,.15.06.14.16s-.08.12-.17.13-.12-.06-.12-.14S14.11,7.37,14.22,7.37Zm0,1.14c.11,0,.17,0,.16.15s0,.14-.15.14-.14,0-.14-.13S14.08,8.51,14.2,8.51Zm0,1.73c.11,0,.14,0,.14.15s0,.16-.15.14-.14,0-.14-.15S14.11,10.24,14.22,10.24Zm.08,1.3a.2.2,0,0,1-.22-.17c0-.13,0-.26,0-.4s0-.15.14-.16.15.07.15.18a1.62,1.62,0,0,0,0,.22v.14C14.34,11.42,14.41,11.53,14.3,11.54Zm.47-1.87c.1,0,.16,0,.16.14s0,.16-.15.15-.14-.06-.14-.16S14.68,9.67,14.77,9.67Zm0,.58c.11,0,.15,0,.15.14s0,.15-.15.15-.14,0-.14-.15S14.67,10.23,14.78,10.25Zm-.14,1.3c0-.2,0-.41,0-.61s.06-.12.15-.12.14,0,.14.12,0,.23,0,.34a1.31,1.31,0,0,1,0,.28c0,.06,0,.17-.09.15S14.64,11.69,14.64,11.55ZM10.33,12a1,1,0,0,1,1.2,0,5.22,5.22,0,0,1,1.08.9.33.33,0,0,1,.09.34c-.07.31-.15.62-.2.93a.26.26,0,0,1-.2.24c-.44.12-.89.41-1.29.35s-.79-.51-1.18-.78a.28.28,0,0,1-.13-.26V13C9.54,12.52,9.86,12.25,10.33,12Zm-3.61.51a5.28,5.28,0,0,1,1.15-.72.35.35,0,0,1,.39,0A1.63,1.63,0,0,0,8.6,12c.53.21.83.54.62,1.14.19.57-.14.86-.55,1.19a1.39,1.39,0,0,1-1.55.25,1.07,1.07,0,0,1-.8-.88A1,1,0,0,1,6.72,12.48ZM4.2,10.91a.51.51,0,0,1,.59.14,5.24,5.24,0,0,1,.78,1.4,13.64,13.64,0,0,0-2.68-.78A4,4,0,0,1,4.2,10.91ZM2.36,19.67a.49.49,0,0,1-.56-.15,3.71,3.71,0,0,1-.75-1.35,12.89,12.89,0,0,0,2.67.74A3.78,3.78,0,0,1,2.36,19.67Zm2.69-2.31a6.29,6.29,0,0,1-.76,1,.3.3,0,0,1-.29.13,12.39,12.39,0,0,1-2.93-.82.37.37,0,0,1-.24-.31A5.73,5.73,0,0,1,.7,16.27a5.79,5.79,0,0,1,1.61-4.08.35.35,0,0,1,.33-.12,13.9,13.9,0,0,1,2.81.82c.19.09.19.16.09.33a4.5,4.5,0,0,0-.44,3.72A.48.48,0,0,1,5.05,17.36ZM6.66,18a1,1,0,0,1-1-.8,4.49,4.49,0,0,1-.29-1.3.33.33,0,0,1,.16-.35,1.1,1.1,0,0,0,.23-.2c.38-.53.84-.51,1.42-.31a1.26,1.26,0,0,1,1,1c.17.72.21.71-.22,1.31l-.15.21C7.34,18,7.35,18,6.66,18Zm4.27,1a1.09,1.09,0,0,1-1,.72,5.07,5.07,0,0,1-1.4-.11.34.34,0,0,1-.27-.22,2.13,2.13,0,0,0-.2-.46.84.84,0,0,1,.14-1.23.44.44,0,0,0,.08-.11c.27-.5.63-.82,1.25-.6.65-.25.93.19,1.28.63A1.14,1.14,0,0,1,10.93,19Zm1.63-1.26c0,.13,0,.19-.17.2s-.47,0-.68.07-.17,0-.22-.12c-.26-.36-.52-.72-.79-1.07a.3.3,0,0,1,0-.29c.13-.36.25-.72.35-1.09a.32.32,0,0,1,.23-.23l1.2-.39a.24.24,0,0,1,.28.06c.25.24.5.47.76.69s.18.26,0,.4A2.27,2.27,0,0,0,12.56,17.72Zm4.09.48c0,.08,0,.17-.15.14a.25.25,0,0,0-.16.05c-.09.06-.23.08-.18.24s.08.09.31.05a1.83,1.83,0,0,1-1.58.95,1.8,1.8,0,0,1-1.61-.89c.08,0,.21,0,.23-.12s-.08-.2-.17-.22c-.33-.06-.32-.31-.33-.55a1.74,1.74,0,0,1,.38-1.18c.08-.12.15-.27.35-.19s.14-.06.16-.13c.13-.29.4-.34.67-.39a1.78,1.78,0,0,1,.86.07.37.37,0,0,1,.27.22c.05.12.12.33.35.19.06,0,.1,0,.14.07A1.81,1.81,0,0,1,16.65,18.2Zm5,.31c.19,0,.23.06.22.23a5.45,5.45,0,0,0,0,.7c0,.19-.06.22-.23.22-.77,0-1.54,0-2.32,0s-1.52,0-2.29,0c-.18,0-.23-.05-.24-.23A1.7,1.7,0,0,1,17,18.6c.05-.11.13-.09.21-.09Zm-.6-.82c.13,0,.23,0,.24.18s-.12.2-.25.2H19.17c-.6,0-1.19,0-1.79,0-.1,0-.25.06-.24-.16s.06-.22.23-.22ZM18.83,16.5v-.25c0-.45,0-.44.46-.47.17,0,.21,0,.21.2,0,.34,0,.69,0,1,0,.19-.07.26-.25.24a.81.81,0,0,0-.22,0c-.15,0-.21,0-.2-.19S18.83,16.69,18.83,16.5Zm2.1-2.68a1.77,1.77,0,0,1-1.85,1.52,1.79,1.79,0,0,1-1.72-1.71c0-.91,0-1.83,0-2.74,0-.16.06-.19.2-.19h3.23c.1,0,.21,0,.2.15A29.38,29.38,0,0,1,20.93,13.82Zm.75-.23c-.17.09-.27.09-.26-.16a.53.53,0,0,1,.16-.42.49.49,0,0,0,0-.76c-.2-.16-.12-.36-.13-.54s.11-.06.17,0a1,1,0,0,1,.69,1.1A1,1,0,0,1,21.68,13.59Z"/></svg>