<svg id="Layer_1" data-name="Layer 1" xmlns="http://www.w3.org/2000/svg" viewBox="0 0 11.5 11.5"><defs><style>.cls-1{fill:#2b95ad;}</style></defs><title>Icons</title><path class="cls-1" d="M3.65,10.46a1.9,1.9,0,0,1-.41,0,1.06,1.06,0,0,1-1-.86c-.05-.19-.11-.38-.17-.57a4.71,4.71,0,0,1-.22-.84q0-.54,0-1.05V6.92h0a.78.78,0,0,0,0-.31s-.17,0-.31,0h-.3a1,1,0,0,1-1-1c0-.41,0-.81,0-1.19A1,1,0,0,1,1.3,3.32h.42c.63,0,1.27,0,1.91,0A8.16,8.16,0,0,0,9,1.44l.21-.17.07-.05a.68.68,0,0,1,1.13.39,1.48,1.48,0,0,1,.05.46q0,.93,0,1.86c0,.13,0,.16.14.19a.86.86,0,0,1,0,1.66c-.11,0-.12,0-.12.15,0,.42,0,.84,0,1.26v.74a.91.91,0,0,1-.42.83.53.53,0,0,1-.7,0A10.44,10.44,0,0,0,6.91,7.19,8,8,0,0,0,5,6.63.7.7,0,0,0,4.21,7a.77.77,0,0,0,0,.87l0,0a.34.34,0,0,1,0,.36.73.73,0,0,0,.14.83,2.84,2.84,0,0,0,.48.46A.34.34,0,0,1,5,9.77a.37.37,0,0,1-.13.27,1.39,1.39,0,0,1-.59.32A2.05,2.05,0,0,1,3.65,10.46ZM2,6.93V7.1c0,.34,0,.69,0,1a3.85,3.85,0,0,0,.21.79,5.25,5.25,0,0,1,.17.6c.1.43.35.63.86.72a2.3,2.3,0,0,0,1-.06,1.09,1.09,0,0,0,.51-.28c.07-.07.08-.1.08-.12a.25.25,0,0,0-.09-.09,2.87,2.87,0,0,1-.52-.49.9.9,0,0,1-.16-1c0-.08,0-.11,0-.19V8a1,1,0,0,1,0-1.07.89.89,0,0,1,1-.46A7.56,7.56,0,0,1,7,7,10.19,10.19,0,0,1,9.48,8.6a.37.37,0,0,0,.5,0,.75.75,0,0,0,.33-.68V7.19c0-.42,0-.84,0-1.26a.28.28,0,0,1,.26-.33.67.67,0,0,0,0-1.3c-.25-.06-.27-.21-.27-.38,0-.61,0-1.23,0-1.85a1.53,1.53,0,0,0,0-.42.53.53,0,0,0-.35-.4.5.5,0,0,0-.5.11l-.07,0-.21.17A8.27,8.27,0,0,1,3.62,3.5c-.63,0-1.27,0-1.89,0H1.3a.82.82,0,0,0-.86.88c0,.38,0,.78,0,1.19a.83.83,0,0,0,.83.82h.3c.25,0,.38,0,.45.09S2.07,6.69,2,6.93Z"/></svg>