<svg id="Layer_1" data-name="Layer 1" xmlns="http://www.w3.org/2000/svg" viewBox="0 0 23 23"><defs><style>.cls-1{fill:#2b95ad;}</style></defs><title>Icons</title><path class="cls-1" d="M7.2,21.13a5.93,5.93,0,0,1-.83-.07A2.2,2.2,0,0,1,4.31,19.3c-.09-.39-.22-.79-.34-1.18a9.65,9.65,0,0,1-.45-1.72c0-.73,0-1.44,0-2.14v-.39a1.88,1.88,0,0,0,.06-.64A1.83,1.83,0,0,0,3,13.18H2.33a2,2,0,0,1-2.07-2c0-.84,0-1.67,0-2.45A2.07,2.07,0,0,1,2.39,6.53h.87c1.28,0,2.6,0,3.9,0,3.77.16,7.39-1.1,11-3.86l.43-.34.14-.11a1.44,1.44,0,0,1,1.37-.29A1.49,1.49,0,0,1,21.08,3a3.5,3.5,0,0,1,.1.94q0,1.91,0,3.81c0,.27,0,.34.27.41a1.74,1.74,0,0,1,0,3.37c-.21,0-.23.1-.23.32,0,.86,0,1.71,0,2.57V16a1.92,1.92,0,0,1-.84,1.72,1.12,1.12,0,0,1-1.45-.06,21.52,21.52,0,0,0-5-3.16,16.24,16.24,0,0,0-4-1.16,1.49,1.49,0,0,0-1.58.79,1.59,1.59,0,0,0-.07,1.78l0,.05a.67.67,0,0,1,.09.73,1.49,1.49,0,0,0,.29,1.7,4.63,4.63,0,0,0,1,.93.68.68,0,0,1,.33.46.7.7,0,0,1-.27.54,2.73,2.73,0,0,1-1.2.67A4.91,4.91,0,0,1,7.2,21.13ZM3.9,13.92v.34c0,.7,0,1.42,0,2.13A9,9,0,0,0,4.32,18a12,12,0,0,1,.35,1.21,1.8,1.8,0,0,0,1.76,1.47,4.58,4.58,0,0,0,2-.1A2.4,2.4,0,0,0,9.47,20c.14-.14.16-.21.16-.25s-.07-.11-.17-.18a5.14,5.14,0,0,1-1.06-1,1.82,1.82,0,0,1-.34-2.09c.07-.14,0-.2-.07-.38l0-.05A1.94,1.94,0,0,1,8,13.88a1.84,1.84,0,0,1,2-1,16.11,16.11,0,0,1,4,1.19,21.92,21.92,0,0,1,5.11,3.21.73.73,0,0,0,1,0A1.54,1.54,0,0,0,20.82,16V14.44c0-.86,0-1.71,0-2.57a.6.6,0,0,1,.52-.68,1.32,1.32,0,0,0,1.05-1.28,1.35,1.35,0,0,0-1-1.38c-.52-.12-.56-.43-.55-.77,0-1.26,0-2.53,0-3.79a3.55,3.55,0,0,0-.08-.85A1.14,1.14,0,0,0,20,2.29a1.11,1.11,0,0,0-1,.22l-.14.12L18.41,3C14.71,5.79,11,7.07,7.15,6.9c-1.29-.05-2.61,0-3.88,0H2.39A1.69,1.69,0,0,0,.63,8.69c0,.78,0,1.61,0,2.44a1.7,1.7,0,0,0,1.71,1.68H3c.51,0,.76,0,.91.18S4,13.42,3.9,13.92Z"/></svg>