<svg id="Layer_1" data-name="Layer 1" xmlns="http://www.w3.org/2000/svg" viewBox="0 0 46 46"><defs><style>.cls-1{fill:#2b95ad;}</style></defs><title>Icons</title><path class="cls-1" d="M14.25,42.57a10.75,10.75,0,0,1-1.68-.13c-1.63-.26-3.58-.9-4.18-3.57a24.52,24.52,0,0,0-.71-2.4A20.44,20.44,0,0,1,6.77,33c.06-1.49.05-2.94,0-4.35v-.8a4,4,0,0,0,.13-1.3,3.81,3.81,0,0,0-1.29-.1H4.35a4.18,4.18,0,0,1-4.2-4.16c0-1.7,0-3.39,0-5A4.2,4.2,0,0,1,4.47,12.9l1.78,0c2.6,0,5.29-.08,7.93,0,7.67.33,15-2.24,22.42-7.85l.88-.69.29-.23a3,3,0,0,1,2.79-.58,3.05,3.05,0,0,1,1.92,2.2,7.73,7.73,0,0,1,.21,1.92c0,2.58,0,5.15,0,7.73,0,.55,0,.7.55.83a3.54,3.54,0,0,1-.08,6.87c-.44.1-.47.19-.47.64,0,1.74,0,3.49,0,5.23v3.08A3.91,3.91,0,0,1,41,35.54a2.23,2.23,0,0,1-2.94-.12A43.62,43.62,0,0,0,27.84,29a32.19,32.19,0,0,0-8.06-2.36,3,3,0,0,0-3.2,1.59,3.2,3.2,0,0,0-.14,3.62l.06.1a1.38,1.38,0,0,1,.18,1.49,3,3,0,0,0,.59,3.45,9.84,9.84,0,0,0,2,1.9,1.31,1.31,0,0,1,.67.93,1.46,1.46,0,0,1-.53,1.11A5.5,5.5,0,0,1,17,42.19,9.37,9.37,0,0,1,14.25,42.57ZM7.54,27.91v.7c0,1.42,0,2.88,0,4.32a19.2,19.2,0,0,0,.88,3.3c.26.8.53,1.63.72,2.47.4,1.79,1.43,2.66,3.56,3a9.33,9.33,0,0,0,4.06-.23,4.78,4.78,0,0,0,2.14-1.17c.28-.27.32-.42.32-.5s-.14-.23-.34-.37a10.38,10.38,0,0,1-2.17-2A3.72,3.72,0,0,1,16,33.13c.14-.3.08-.42-.14-.77l-.06-.1A4,4,0,0,1,16,27.84a3.7,3.7,0,0,1,3.95-1.93,33.28,33.28,0,0,1,8.25,2.41,44.27,44.27,0,0,1,10.38,6.53,1.5,1.5,0,0,0,2,.06A3.15,3.15,0,0,0,42,32.06V29c0-1.74,0-3.48,0-5.22A1.18,1.18,0,0,1,43,22.38,2.79,2.79,0,0,0,43.06,17c-1-.25-1.12-.88-1.12-1.56,0-2.58,0-5.15,0-7.73A7,7,0,0,0,41.76,6a2.3,2.3,0,0,0-1.44-1.67,2.2,2.2,0,0,0-2.08.45l-.3.23-.89.7c-7.53,5.72-15,8.34-22.9,8-2.62-.12-5.3-.08-7.89,0l-1.78,0A3.44,3.44,0,0,0,.89,17.3c0,1.57,0,3.26,0,4.94a3.45,3.45,0,0,0,3.47,3.43H5.63c1,0,1.56,0,1.86.37S7.71,26.9,7.54,27.91Z"/></svg>