<svg id="Layer_1" data-name="Layer 1" xmlns="http://www.w3.org/2000/svg" viewBox="0 0 46 46"><defs><style>.cls-1{fill:none;}.cls-2{fill:#2b95ad;}</style></defs><title>Icons</title><path class="cls-1" d="M31.67,17.82c-1.9.18-1.91.1-2,2.16a5.72,5.72,0,0,1,0,.59c-.33,2.6-2.87,4.36-5.1,3.42A4.29,4.29,0,0,1,22,19.74c0-.84-.18-1.14-1.07-.95a6.82,6.82,0,0,1-4.07-.39c-2-.86-4-1.87-6.31-.92a.86.86,0,0,1-.59,0c-.94-.34-1,.12-1,.92,0,3.7,0,7.39,0,11.08h0c0,3.6,0,7.19,0,10.79,0,2.4,1.24,3.63,3.64,3.63H29.18c2.32,0,3.48-1.09,3.54-3.38.06-1.82,0-3.64,0-5.46,0-5.37,0-10.74,0-16.11C32.76,18.12,32.71,17.73,31.67,17.82Z"/><path class="cls-1" d="M34.42,8.3a6.28,6.28,0,0,0-5.49-1c-1.1.28-1.48.1-2-.9a7.37,7.37,0,0,0-6.49-4.2A7.56,7.56,0,0,0,13,5.93c-.58,1-1,1.35-2.24,1.17a4.41,4.41,0,0,0-4.88,3.53,4.14,4.14,0,0,0,2.9,4.68A4.75,4.75,0,0,0,12.87,15c.76-.47,1.17-.28,1.77.21a7.65,7.65,0,0,0,7.63,1.43c1.48-.5,1.69,0,1.55,1.23a2.91,2.91,0,0,0,0,.59c0,.5,0,1,0,1.48.13,1.47,1,2.45,2.08,2.43s1.92-1.1,2-2.53c0-1,.05-2,0-2.95s.08-1.21,1.12-1a6.37,6.37,0,0,0,5.35-1A3.9,3.9,0,0,0,34.42,8.3Z"/><path class="cls-1" d="M31.67,17.82c-1.9.18-1.91.1-2,2.16a5.72,5.72,0,0,1,0,.59c-.33,2.6-2.87,4.36-5.1,3.42A4.29,4.29,0,0,1,22,19.74c0-.84-.18-1.14-1.07-.95a6.82,6.82,0,0,1-4.07-.39c-2-.86-4-1.87-6.31-.92a.86.86,0,0,1-.59,0c-.94-.34-1,.12-1,.92,0,3.7,0,7.39,0,11.08h0c0,3.6,0,7.19,0,10.79,0,2.4,1.24,3.63,3.64,3.63H29.18c2.32,0,3.48-1.09,3.54-3.38.06-1.82,0-3.64,0-5.46,0-5.37,0-10.74,0-16.11C32.76,18.12,32.71,17.73,31.67,17.82Z"/><path class="cls-1" d="M34.42,8.3a6.28,6.28,0,0,0-5.49-1c-1.1.28-1.48.1-2-.9a7.37,7.37,0,0,0-6.49-4.2A7.56,7.56,0,0,0,13,5.93c-.58,1-1,1.35-2.24,1.17a4.41,4.41,0,0,0-4.88,3.53,4.14,4.14,0,0,0,2.9,4.68A4.75,4.75,0,0,0,12.87,15c.76-.47,1.17-.28,1.77.21a7.65,7.65,0,0,0,7.63,1.43c1.48-.5,1.69,0,1.55,1.23a2.91,2.91,0,0,0,0,.59c0,.5,0,1,0,1.48.13,1.47,1,2.45,2.08,2.43s1.92-1.1,2-2.53c0-1,.05-2,0-2.95s.08-1.21,1.12-1a6.37,6.37,0,0,0,5.35-1A3.9,3.9,0,0,0,34.42,8.3Z"/><path class="cls-1" d="M40.29,28.23c0-1.13,0-2.26,0-3.39a2.83,2.83,0,0,0-3-3.07c-.59,0-1.19,0-1.77,0-.84-.07-.87.43-.82,1,.08,1.16,1,.59,1.47.62,1.62.1,2.14.53,2.15,2.1,0,1.82,0,3.64,0,5.46,0,1.32-.57,2-2,2-.25,0-.5,0-.74,0-.54,0-.94,0-1,.74s.35.91,1,.86,1.09,0,1.63,0a2.8,2.8,0,0,0,3-3c0-1.08,0-2.16,0-3.25Z"/><path class="cls-1" d="M31.67,17.82c-1.9.18-1.91.1-2,2.16a5.72,5.72,0,0,1,0,.59c-.33,2.6-2.87,4.36-5.1,3.42A4.29,4.29,0,0,1,22,19.74c0-.84-.18-1.14-1.07-.95a6.82,6.82,0,0,1-4.07-.39c-2-.86-4-1.87-6.31-.92a.86.86,0,0,1-.59,0c-.94-.34-1,.12-1,.92,0,3.7,0,7.39,0,11.08h0c0,3.6,0,7.19,0,10.79,0,2.4,1.24,3.63,3.64,3.63H29.18c2.32,0,3.48-1.09,3.54-3.38.06-1.82,0-3.64,0-5.46,0-5.37,0-10.74,0-16.11C32.76,18.12,32.71,17.73,31.67,17.82Z"/><path class="cls-2" d="M42.14,26.84c0-5.7-.89-6.63-6.58-6.94-.31,0-.87.17-.84-.31.08-1.13-.53-2.31.81-3.33,3.71-2.8,3.26-7.7-.8-10a7.54,7.54,0,0,0-5-1A1.5,1.5,0,0,1,28,4.44a10.08,10.08,0,0,0-16.14-.29A2.37,2.37,0,0,1,10,5.21a6.24,6.24,0,0,0-5.8,4.31c-.91,2.76.11,5,2.38,6.7.63.46.53,1,.54,1.56,0,3.84,0,7.69,0,11.53s0,7.69,0,11.54a4.72,4.72,0,0,0,4.59,4.82c6,.09,12.08.1,18.11,0a4.73,4.73,0,0,0,4.74-4.24,16.74,16.74,0,0,0,.12-2.35c0-2.65,0-2.65,2.67-2.7a4.56,4.56,0,0,0,4.8-4.7C42.19,30.1,42.14,28.47,42.14,26.84ZM34.65,26c0-.68.25-.81.86-.81s1,.07,1,.86,0,1.47,0,2.2,0,1.38,0,2.06c.07.84-.45.78-1,.81s-.83-.26-.82-.86C34.68,28.86,34.7,27.44,34.65,26Zm-1.92,9c0,1.82.05,3.64,0,5.46-.06,2.29-1.22,3.37-3.54,3.38H12.55c-2.4,0-3.63-1.23-3.64-3.63,0-3.6,0-7.19,0-10.79h0c0-3.69,0-7.38,0-11.08,0-.8.1-1.26,1-.92a.86.86,0,0,0,.59,0c2.3-.95,4.26.06,6.31.92a6.82,6.82,0,0,0,4.07.39c.89-.19,1.06.11,1.07.95A4.29,4.29,0,0,0,24.58,24c2.23.94,4.77-.82,5.1-3.42a5.72,5.72,0,0,0,0-.59c.06-2.06.07-2,2-2.16,1-.09,1.09.3,1.08,1.11C32.72,24.3,32.73,29.67,32.73,35Zm1.61-20.15a6.37,6.37,0,0,1-5.35,1c-1-.26-1.17.06-1.12,1s0,2,0,2.95c-.05,1.43-.91,2.51-2,2.53s-1.95-1-2.08-2.43c0-.49,0-1,0-1.48a2.91,2.91,0,0,1,0-.59c.14-1.23-.07-1.73-1.55-1.23a7.65,7.65,0,0,1-7.63-1.43c-.6-.49-1-.68-1.77-.21a4.75,4.75,0,0,1-4.13.35,4.14,4.14,0,0,1-2.9-4.68A4.41,4.41,0,0,1,10.72,7.1c1.21.18,1.66-.2,2.24-1.17a7.56,7.56,0,0,1,7.5-3.77A7.37,7.37,0,0,1,27,6.36c.5,1,.88,1.18,2,.9a6.28,6.28,0,0,1,5.49,1A3.9,3.9,0,0,1,34.34,14.89Zm5.95,16.59a2.8,2.8,0,0,1-3,3c-.54,0-1.09,0-1.63,0s-1-.08-1-.86.42-.77,1-.74c.24,0,.49,0,.74,0,1.39.05,2-.67,2-2,0-1.82,0-3.64,0-5.46,0-1.57-.53-2-2.15-2.1-.51,0-1.39.54-1.47-.62-.05-.59,0-1.09.82-1,.58.05,1.18,0,1.77,0a2.83,2.83,0,0,1,3,3.07c0,1.13,0,2.26,0,3.39h0C40.29,29.32,40.32,30.4,40.29,31.48Z"/><path class="cls-2" d="M14.84,28.6c0,.83,0,1.65,0,2.48,0,.3-.05.6-.87.62s-1-.27-1-.58c0-1.69,0-3.38,0-5.08,0-.29,0-.58.94-.57s.9.31.9.6C14.83,26.91,14.84,27.76,14.84,28.6Z"/><path class="cls-2" d="M26.67,26c0-.29,0-.59.94-.57s.89.31.89.6c0,.85,0,1.69,0,2.54s0,1.6,0,2.41c0,.3.05.66-.88.67s-.95-.33-.95-.64q0-2.51,0-5"/><path class="cls-2" d="M26.43,39.07c0-.59,0-1.18,0-1.77s0-1.24,0-1.86c0-.21,0-.43-.65-.44s-.69.21-.69.42c0,.93,0,1.87,0,2.8-2.89,0-5.79,0-8.68,0V35.44c0-.21,0-.43-.65-.44s-.69.21-.69.42c0,1.24,0,2.48,0,3.73,0,.22.1.43.71.42h.06a2.29,2.29,0,0,0,.37,0c1.48,0,2.95,0,4.43,0h5.15C26.47,39.55,26.44,39.29,26.43,39.07Z"/></svg>