<svg id="Layer_1" data-name="Layer 1" xmlns="http://www.w3.org/2000/svg" viewBox="0 0 23 23"><defs><style>.cls-1{fill:#2b95ad;}</style></defs><title>Icons</title><path class="cls-1" d="M7.11,21.4a1.16,1.16,0,0,1-1-.69Q4.38,17.86,2.66,15L1,12.35l-.56-.94A1.13,1.13,0,0,1,.81,9.74a3.59,3.59,0,0,1,.38-.25L5,7.17,13.66,2a1.5,1.5,0,0,1,1.39-.27l6.13,2L22,4a1,1,0,0,1,.76,1.19c-.1.62-.21,1.24-.31,1.86-.06.32-.11.64-.17,1l-.18,1.09c-.17,1-.34,2-.49,3a1.87,1.87,0,0,1-.93,1.42q-4.56,2.73-9.1,5.49L8.14,21a2.93,2.93,0,0,1-.43.23A1.44,1.44,0,0,1,7.11,21.4ZM14.65,1.82a1.9,1.9,0,0,0-.88.32L5.13,7.37,1.3,9.68A4.16,4.16,0,0,0,1,9.92.92.92,0,0,0,.68,11.3c.18.31.37.62.56.93L2.85,14.9C4,16.79,5.14,18.69,6.29,20.59a.93.93,0,0,0,1.33.47,2.56,2.56,0,0,0,.4-.22l3.41-2.06Q16,16,20.53,13.3A1.62,1.62,0,0,0,21.35,12c.15-1,.33-2,.49-3,.07-.36.13-.73.19-1.09s.11-.65.17-1c.1-.62.21-1.24.3-1.85s-.08-.77-.6-.94l-.8-.26L15,1.89A.67.67,0,0,0,14.65,1.82Z"/><path class="cls-1" d="M17,11c.19.38-.07.76-.54.77-.72,0-1.45,0-2.18,0l-6.85.09H7.16a.54.54,0,0,1-.53-.54.51.51,0,0,1,.52-.54l1.55,0,7.62-.1C16.6,10.71,16.84,10.74,17,11Z"/><path class="cls-1" d="M8.87,16a2,2,0,0,1,.82-2.53,2,2,0,0,1,2.56.83,2,2,0,0,1-.83,2.54A2,2,0,0,1,8.87,16Z"/><path class="cls-1" d="M14.8,6.68a2,2,0,0,1-.86,2.51,2,2,0,0,1-2.54-.87,2,2,0,0,1,.87-2.52A2,2,0,0,1,14.8,6.68Z"/></svg>