<svg id="Layer_1" data-name="Layer 1" xmlns="http://www.w3.org/2000/svg" viewBox="0 0 46 46"><defs><style>.cls-1{fill:#fff;}.cls-2{fill:#2b95ad;}</style></defs><title>icon</title><path class="cls-1" d="M9.87,33.58c-.64,0-1.23,0-1.81,0A7.89,7.89,0,0,1,2.6,30.86a8.23,8.23,0,0,1-2.11-5.7c0-5.08,0-10.15,0-15.22A8,8,0,0,1,5,2.6a7.76,7.76,0,0,1,3.72-.88H30.63c2.3,0,4.61,0,6.92,0a8.15,8.15,0,0,1,7.51,5.5,8.32,8.32,0,0,1,.46,2.7c0,5.14,0,10.28,0,15.42a8.18,8.18,0,0,1-6.89,8.12,22,22,0,0,1-3.45.13H18.7a.47.47,0,0,0-.43.21q-3.87,5.06-7.76,10.1-.39.51-.84.3a.73.73,0,0,1-.38-.8c.08-1.15.14-2.3.21-3.45.08-1.49.17-3,.26-4.46C9.8,34.89,9.83,34.28,9.87,33.58Z"/><path class="cls-2" d="M23.57,12.79h.09A4.37,4.37,0,0,1,28,17.17v.18a4.36,4.36,0,0,1-4.35,4.37h-.09a4.36,4.36,0,0,1-4.35-4.37v-.18A4.37,4.37,0,0,1,23.57,12.79Z"/><path class="cls-2" d="M13.3,12.79h0a4.37,4.37,0,0,1,4.35,4.38v.18a4.36,4.36,0,0,1-4.35,4.37h0A4.36,4.36,0,0,1,9,17.35v-.18A4.37,4.37,0,0,1,13.3,12.79Z"/><path class="cls-2" d="M34.06,12.79h0a4.37,4.37,0,0,1,4.35,4.42v.18a4.36,4.36,0,0,1-4.35,4.33h0a4.36,4.36,0,0,1-4.35-4.42v-.18A4.35,4.35,0,0,1,34.06,12.79Z"/><path class="cls-2" d="M9.93,44.51a1.05,1.05,0,0,1-.36-.08.93.93,0,0,1-.5-1c0-.78.09-1.57.14-2.35l.32-5.55c0-.45.05-.89.08-1.37l0-.32H9.27c-.42,0-.82,0-1.23,0A8.14,8.14,0,0,1,2.43,31,8.51,8.51,0,0,1,.26,25.16V20c0-3.3,0-6.72,0-10.07A8.2,8.2,0,0,1,4.92,2.39a8.1,8.1,0,0,1,3.82-.9h24c1.59,0,3.24,0,4.85,0a8.34,8.34,0,0,1,7.72,5.66,8.57,8.57,0,0,1,.47,2.77V25.36a8.36,8.36,0,0,1-7.08,8.35,17.69,17.69,0,0,1-2.81.13H18.7a.22.22,0,0,0-.25.12l-7.08,9.22-.68.88A1,1,0,0,1,9.93,44.51ZM9.87,33.35h.24l0,.81c0,.47-.06.92-.08,1.36l-.33,5.55c0,.79-.08,1.58-.14,2.36,0,.41.11.52.24.58s.33.09.57-.23L11,42.9l7.08-9.22a.67.67,0,0,1,.61-.3H35.86a18,18,0,0,0,2.74-.12,7.91,7.91,0,0,0,6.69-7.9c0-4.43,0-8.86,0-13.29V9.94a7.93,7.93,0,0,0-.45-2.62A7.88,7.88,0,0,0,37.55,2c-1.62,0-3.26,0-4.85,0h-24a7.42,7.42,0,0,0-3.6.85A7.75,7.75,0,0,0,.74,9.94c0,3.36,0,6.77,0,10.07,0,1.71,0,3.43,0,5.15a8,8,0,0,0,2.05,5.55,7.71,7.71,0,0,0,5.31,2.63c.38,0,.77,0,1.18,0Z"/></svg>