<svg xmlns="http://www.w3.org/2000/svg" xmlns:xlink="http://www.w3.org/1999/xlink" viewBox="0 0 25 25"><defs><style>.a{fill:url(#a);}.b{fill:url(#b);}.c{fill:url(#c);}.d{fill:url(#d);}.e{fill:#fff;}</style><linearGradient id="a" y1="12.5" x2="25" y2="12.5" gradientUnits="userSpaceOnUse"><stop offset="0" stop-color="#5080b1"/><stop offset="0.12" stop-color="#477dae"/><stop offset="0.31" stop-color="#2d73a7"/><stop offset="0.56" stop-color="#04649c"/><stop offset="0.58" stop-color="#00639b"/><stop offset="1" stop-color="#004e8c"/></linearGradient><linearGradient id="b" x1="21.65" y1="13.82" x2="15.31" y2="20.34" gradientUnits="userSpaceOnUse"><stop offset="0" stop-color="#77b2c6"/><stop offset="0.5" stop-color="#349ab4"/><stop offset="1" stop-color="#0089a6"/></linearGradient><linearGradient id="c" x1="1.05" y1="10.7" x2="20.35" y2="10.7" gradientUnits="userSpaceOnUse"><stop offset="0" stop-color="#d0e7ea"/><stop offset="0.5" stop-color="#a9d7de"/><stop offset="0.73" stop-color="#9fd2da"/><stop offset="1" stop-color="#98cfd8"/></linearGradient><linearGradient id="d" x1="6.45" y1="10.71" x2="14.95" y2="10.71" gradientUnits="userSpaceOnUse"><stop offset="0" stop-color="#8fccd5"/><stop offset="0.5" stop-color="#5bbac7"/><stop offset="1" stop-color="#00aab9"/></linearGradient></defs><title>Menu</title><path class="a" d="M17,1.87l2.55,2.56c-.14.22-.29.46-.43.7l-.82,1.32a.19.19,0,0,0,0,.19,8.33,8.33,0,0,1,.67,1.6.14.14,0,0,0,.12.11l2,.47.35.09v2.5a.22.22,0,0,0,.12.22,7.09,7.09,0,0,1,3.41,5.23,6.85,6.85,0,0,1-.33,3.27A7.22,7.22,0,0,1,18.29,25a7.2,7.2,0,0,1-6.68-3.47.19.19,0,0,0-.19-.11H9.29c-.39,0-.39,0-.48-.39-.16-.66-.31-1.31-.47-2a.15.15,0,0,0-.09-.1,9,9,0,0,1-1.6-.66.19.19,0,0,0-.23,0L4.47,19.51l0,0L1.87,17l.89-1.45c.13-.2.25-.4.37-.6a.17.17,0,0,0,0-.14,7.9,7.9,0,0,1-.67-1.62.15.15,0,0,0-.14-.12L.1,12.53c-.07,0-.1,0-.1-.12V9a.11.11,0,0,1,.1-.13l2.23-.53a.17.17,0,0,0,.14-.14,8,8,0,0,1,.65-1.57.2.2,0,0,0,0-.21c-.41-.64-.8-1.29-1.21-1.94a.11.11,0,0,1,0-.16c.81-.8,1.61-1.61,2.41-2.41.06-.06.09-.05.15,0L6.43,3.12a.2.2,0,0,0,.22,0,7.46,7.46,0,0,1,1.57-.66.16.16,0,0,0,.13-.13c.17-.75.35-1.49.52-2.23C8.89,0,8.93,0,9,0h3.38c.08,0,.12,0,.14.12.17.74.35,1.48.52,2.21a.16.16,0,0,0,.12.14,8.29,8.29,0,0,1,1.6.66.17.17,0,0,0,.19,0C15.63,2.7,16.31,2.29,17,1.87Z"/><path class="b" d="M17.79,24a6.17,6.17,0,1,0-6.17-6.22A6.18,6.18,0,0,0,17.79,24Z"/><path class="c" d="M11.68,1.06H9.81c-.08,0-.09,0-.11.09-.15.66-.31,1.32-.46,2,0,.14-.07.22-.22.23a.86.86,0,0,0-.23.06,7.56,7.56,0,0,0-2.18.95.14.14,0,0,1-.17,0L5.28,3.63l-.7-.43L3.2,4.58l0,.08L4.35,6.45a.12.12,0,0,1,0,.16,7.77,7.77,0,0,0-1,2.49c0,.08,0,.11-.12.12L2,9.5l-1,.23v1.95l.09,0c.68.16,1.35.33,2,.48a.17.17,0,0,1,.14.15,7.67,7.67,0,0,0,1,2.47.11.11,0,0,1,0,.15l-.47.76-.69,1.12,1.39,1.38.1-.06,1.76-1.09a.14.14,0,0,1,.17,0,7.55,7.55,0,0,0,2.49,1,.15.15,0,0,1,.12.12c.1.45.21.89.31,1.34.07.27.13.54.19.81H11A7.35,7.35,0,0,1,10.8,16,5.22,5.22,0,0,1,7,14.5a5.06,5.06,0,0,1-1.6-3.73A5.27,5.27,0,0,1,9.9,5.47a5.05,5.05,0,0,1,3.59.74A5.29,5.29,0,0,1,16,10.8a7.22,7.22,0,0,1,4.34.25V9.73l-.28-.07L18.2,9.22c-.05,0-.09-.07-.11-.11S18,8.82,18,8.67a8.21,8.21,0,0,0-.93-2.07.17.17,0,0,1,0-.14c.24-.4.49-.8.74-1.2l.41-.67L16.82,3.2l-.07,0L15,4.34a.15.15,0,0,1-.19,0,2.5,2.5,0,0,0-.35-.21,7.14,7.14,0,0,0-2.08-.81.18.18,0,0,1-.18-.17,4,4,0,0,0-.11-.47C11.94,2.15,11.81,1.6,11.68,1.06Z"/><path class="d" d="M10.61,15,11,15a.18.18,0,0,0,.19-.13,7,7,0,0,1,1.26-1.91,7.34,7.34,0,0,1,2.35-1.7c.06,0,.11-.05.11-.13A4.18,4.18,0,0,0,14,8a4.25,4.25,0,0,0-6-.55A4.16,4.16,0,0,0,6.67,9.34a4.4,4.4,0,0,0-.21,1.77A4.29,4.29,0,0,0,10.61,15Z"/><path class="e" d="M18.3,19.16h-1s0-.07,0-.11V13.74c0-.11,0-.15.14-.15h.9Z"/><path class="e" d="M17.28,20.32h1V22h-1Z"/></svg>