<svg id="Layer_1" data-name="Layer 1" xmlns="http://www.w3.org/2000/svg" viewBox="0 0 46 46"><defs><style>.cls-1{fill:#fff;}.cls-2{fill:#2b95ad;}</style></defs><title>icon</title><path class="cls-1" d="M30.09,3.36,41.77,7.21,44.1,8a1.69,1.69,0,0,1,1.38,2.14c-.3,1.91-.64,3.81-1,5.72-.46,2.75-1,5.51-1.37,8.27a3.52,3.52,0,0,1-1.77,2.72Q28.72,34.44,16.09,42.09a6.71,6.71,0,0,1-.84.44,2.08,2.08,0,0,1-3-1q-4.86-8-9.7-16L.91,22.7a2.07,2.07,0,0,1,.62-3.08c.23-.18.48-.34.73-.5Q14.88,11.5,27.48,3.88A2.79,2.79,0,0,1,30.09,3.36Z"/><path class="cls-2" d="M14.12,43a2.4,2.4,0,0,1-2-1.41L4.76,29.52,1.88,24.75c-.39-.64-.78-1.28-1.16-1.93a2.3,2.3,0,0,1,.67-3.39,7.74,7.74,0,0,1,.76-.5l7.63-4.61L27.36,3.68a3.09,3.09,0,0,1,2.82-.53L42.6,7.25l1.57.51a1.89,1.89,0,0,1,1.53,2.4c-.19,1.27-.41,2.53-.63,3.79l-.33,1.93c-.12.74-.25,1.49-.38,2.24-.33,2-.68,4-1,6A3.72,3.72,0,0,1,41.49,27Q32.25,32.57,23,38.15L16.2,42.28a6.9,6.9,0,0,1-.86.46A3.17,3.17,0,0,1,14.12,43ZM29.38,3.43a3.67,3.67,0,0,0-1.78.64L10,14.71,2.38,19.32a8.13,8.13,0,0,0-.72.48,1.86,1.86,0,0,0-.55,2.79l1.16,1.93,2.88,4.77q3.66,6,7.31,12.09a1.87,1.87,0,0,0,2.7.94,6.2,6.2,0,0,0,.81-.43l6.83-4.13Q32,32.19,41.26,26.63a3.29,3.29,0,0,0,1.67-2.55c.3-2,.65-4.06,1-6,.13-.74.26-1.49.38-2.24l.33-1.92c.22-1.26.44-2.53.63-3.79C45.42,9,45.09,8.53,44,8.2l-1.57-.52L30,3.56A1.39,1.39,0,0,0,29.38,3.43Z"/><path class="cls-2" d="M34.06,22A1.08,1.08,0,0,1,33,23.6c-1.47,0-2.95,0-4.42.06l-13.86.18a3.73,3.73,0,0,1-.47,0,1.07,1.07,0,0,1-1.08-1.09,1.06,1.06,0,0,1,1.06-1.1c1,0,2.08,0,3.12-.05l15.42-.2C33.31,21.4,33.8,21.47,34.06,22Z"/><path class="cls-2" d="M17.67,32.07A4,4,0,0,1,19.34,27a4.06,4.06,0,0,1,5.17,1.68,4.11,4.11,0,0,1-1.67,5.13A4.07,4.07,0,0,1,17.67,32.07Z"/><path class="cls-2" d="M29.68,13.25a4,4,0,0,1-1.75,5.08,4.05,4.05,0,0,1-5.14-1.76,4.1,4.1,0,0,1,1.76-5.1A4.06,4.06,0,0,1,29.68,13.25Z"/></svg>