<svg id="Layer_1" data-name="Layer 1" xmlns="http://www.w3.org/2000/svg" viewBox="0 0 11.5 11.5"><defs><style>.cls-1{fill:#2b95ad;}.cls-2{fill:#faf9f9;}.cls-3{fill:#f7f6f5;}.cls-4{fill:#f4f3f3;}</style></defs><title>icon</title><path class="cls-1" d="M1.9,7.28c0-.93,0-1.86,0-2.79,0-.14,0-.27-.13-.38A1.37,1.37,0,0,1,1.2,2.49a1.51,1.51,0,0,1,1.4-1,.58.58,0,0,0,.46-.26A2.44,2.44,0,0,1,7,1.26a.36.36,0,0,0,.42.2,1.81,1.81,0,0,1,1.2.25,1.38,1.38,0,0,1,.2,2.41c-.33.25-.18.53-.2.8s.13.08.21.08c1.37.07,1.59.3,1.59,1.68,0,.39,0,.79,0,1.18A1.1,1.1,0,0,1,9.21,9c-.64,0-.64,0-.64.66a3.63,3.63,0,0,1,0,.57,1.14,1.14,0,0,1-1.14,1c-1.46,0-2.93,0-4.39,0a1.13,1.13,0,0,1-1.1-1.17C1.9,9.13,1.9,8.21,1.9,7.28Z"/><path class="cls-2" d="M2.34,7.31c0-.89,0-1.78,0-2.68,0-.19,0-.3.25-.22a.23.23,0,0,0,.14,0,1.88,1.88,0,0,1,1.53.22,1.64,1.64,0,0,0,1,.09c.22,0,.26,0,.26.23a1.05,1.05,0,0,0,.63,1,.93.93,0,0,0,1.23-.83.61.61,0,0,0,0-.14c0-.5,0-.48.48-.52.25,0,.26.07.26.27,0,1.29,0,2.59,0,3.89,0,.44,0,.88,0,1.32a.75.75,0,0,1-.86.82h-4a.79.79,0,0,1-.88-.88V7.31Z"/><path class="cls-2" d="M6,4.64A.65.65,0,0,1,6,4.5c0-.3,0-.42-.38-.3a1.82,1.82,0,0,1-1.84-.34c-.15-.12-.25-.17-.43,0a1.17,1.17,0,0,1-1,.08,1,1,0,0,1-.7-1.13,1.06,1.06,0,0,1,1.18-.85c.29,0,.4,0,.54-.29A1.86,1.86,0,0,1,5.14.71a1.8,1.8,0,0,1,1.57,1c.12.24.21.28.47.21a1.55,1.55,0,0,1,1.33.26.94.94,0,0,1,0,1.59A1.49,1.49,0,0,1,7.2,4c-.25-.06-.29,0-.27.23s0,.48,0,.72a.57.57,0,0,1-.48.61C6.18,5.59,6,5.36,6,5,5.94,4.88,6,4.76,6,4.64Z"/><path class="cls-3" d="M9.93,7c0,.26,0,.52,0,.78a.67.67,0,0,1-.73.73H8.8c-.15,0-.24,0-.24-.21s.1-.19.24-.18H9c.33,0,.47-.16.47-.48V6.35c0-.38-.13-.48-.52-.51-.13,0-.34.13-.36-.14s0-.27.2-.25H9.2a.69.69,0,0,1,.73.74c0,.28,0,.55,0,.83Z"/><path class="cls-4" d="M8.77,6.28c.16,0,.26,0,.24.21A4.68,4.68,0,0,0,9,7c0,.17,0,.34,0,.5s-.11.19-.25.2-.2-.07-.19-.21c0-.34,0-.69,0-1,0-.16.06-.2.2-.2"/><path class="cls-1" d="M3.78,7.11c0,.19,0,.39,0,.59s0,.15-.21.15-.24-.06-.24-.14c0-.41,0-.81,0-1.22,0-.07,0-.15.23-.14s.22.07.22.14Z"/><path class="cls-1" d="M6.64,6.48c0-.07,0-.14.22-.13s.22.07.22.14v1.2c0,.07,0,.16-.21.16s-.23-.08-.23-.15V6.48"/><path class="cls-1" d="M6.58,9.63V8.76s0-.11-.16-.11-.16,0-.16.1v.68H4.16V8.76s0-.11-.16-.11-.17,0-.17.1c0,.3,0,.6,0,.9,0,.06,0,.11.17.11H6.42C6.59,9.75,6.58,9.69,6.58,9.63Z"/></svg>