<svg id="Layer_1" data-name="Layer 1" xmlns="http://www.w3.org/2000/svg" viewBox="0 0 23 23"><defs><style>.cls-1{fill:#2b95ad;}.cls-2{fill:#faf9f9;}.cls-3{fill:#f7f6f5;}.cls-4{fill:#f4f3f3;}</style></defs><title>icon</title><path class="cls-1" d="M3.63,14.62c0-1.9,0-3.8,0-5.7,0-.28.05-.54-.26-.77A2.8,2.8,0,0,1,2.19,4.83,3.09,3.09,0,0,1,5.06,2.7,1.16,1.16,0,0,0,6,2.18a5,5,0,0,1,8,.14.75.75,0,0,0,.87.4,3.69,3.69,0,0,1,2.46.51,2.85,2.85,0,0,1,.4,4.94c-.67.5-.37,1.08-.4,1.64,0,.24.26.15.41.15,2.82.16,3.26.62,3.26,3.44,0,.8,0,1.61,0,2.41a2.24,2.24,0,0,1-2.37,2.32c-1.32,0-1.32,0-1.32,1.34a7.45,7.45,0,0,1-.07,1.16,2.33,2.33,0,0,1-2.34,2.1c-3,0-6,0-8.95,0a2.33,2.33,0,0,1-2.27-2.39C3.62,18.42,3.63,16.52,3.63,14.62Z"/><path class="cls-2" d="M4.53,14.7c0-1.83,0-3.66,0-5.48,0-.4.05-.63.52-.46a.42.42,0,0,0,.29,0c1.13-.47,2.11,0,3.12.46a3.44,3.44,0,0,0,2,.19c.44-.1.53.05.53.47A2.13,2.13,0,0,0,12.28,12,1.92,1.92,0,0,0,14.8,10.3c0-.1,0-.2,0-.29,0-1,0-1,1-1.07.51,0,.53.15.53.55,0,2.65,0,5.31,0,8,0,.9,0,1.8,0,2.71a1.52,1.52,0,0,1-1.76,1.66H6.33A1.6,1.6,0,0,1,4.53,20V14.7Z"/><path class="cls-2" d="M11.9,9.24c0-.1,0-.2,0-.3.08-.61,0-.85-.76-.6a3.79,3.79,0,0,1-3.77-.71c-.3-.24-.5-.34-.88-.11a2.36,2.36,0,0,1-2,.18A2,2,0,0,1,3,5.38,2.16,2.16,0,0,1,5.43,3.64c.6.09.82-.1,1.11-.58a3.73,3.73,0,0,1,3.7-1.87,3.64,3.64,0,0,1,3.21,2.08c.25.5.44.59,1,.45a3.1,3.1,0,0,1,2.72.51,1.93,1.93,0,0,1,0,3.26,3.14,3.14,0,0,1-2.65.5c-.51-.13-.58,0-.55.47s0,1,0,1.46a1.16,1.16,0,0,1-1,1.25c-.54,0-1-.47-1-1.2C11.89,9.73,11.9,9.48,11.9,9.24Z"/><path class="cls-3" d="M20.05,14.09c0,.53,0,1.07,0,1.61a1.37,1.37,0,0,1-1.5,1.49c-.26,0-.54,0-.8,0s-.5,0-.49-.42.2-.39.47-.37h.37c.68,0,1-.33,1-1,0-.9,0-1.8,0-2.7s-.26-1-1.06-1c-.25,0-.69.27-.73-.3,0-.3,0-.54.4-.51s.59,0,.88,0a1.41,1.41,0,0,1,1.5,1.52c0,.56,0,1.12,0,1.68Z"/><path class="cls-4" d="M17.69,12.59c.31,0,.51,0,.48.43s0,.72,0,1.09,0,.68,0,1-.22.39-.5.41-.42-.13-.41-.43c0-.7,0-1.41,0-2.11,0-.33.13-.4.43-.4"/><path class="cls-1" d="M7.46,14.27c0,.41,0,.82,0,1.23,0,.14,0,.29-.44.3s-.47-.13-.47-.28c0-.84,0-1.68,0-2.51,0-.15,0-.29.46-.29s.44.16.44.3Z"/><path class="cls-1" d="M13.32,13c0-.14,0-.29.46-.28s.44.16.44.3c0,.42,0,.83,0,1.25s0,.8,0,1.19c0,.15,0,.33-.43.34s-.47-.16-.47-.32V13"/><path class="cls-1" d="M13.2,19.45c0-.3,0-.59,0-.88s0-.61,0-.92c0-.1,0-.21-.32-.22s-.34.11-.34.21V19H8.24V17.65c0-.1,0-.21-.32-.22s-.34.11-.34.21c0,.62,0,1.23,0,1.84,0,.12,0,.22.35.21h5C13.22,19.69,13.2,19.56,13.2,19.45Z"/></svg>