<svg id="Layer_1" data-name="Layer 1" xmlns="http://www.w3.org/2000/svg" viewBox="0 0 46 46"><defs><style>.cls-1{fill:#2b95ad;}.cls-2{fill:#faf9f9;}.cls-3{fill:#f7f6f5;}.cls-4{fill:#f4f3f3;}</style></defs><title>icon</title><path class="cls-1" d="M7.09,29.31c0-3.84,0-7.69,0-11.53,0-.56.09-1.1-.54-1.56-2.27-1.69-3.29-3.94-2.38-6.7A6.24,6.24,0,0,1,10,5.21a2.37,2.37,0,0,0,1.89-1.06A10.08,10.08,0,0,1,28,4.44a1.5,1.5,0,0,0,1.75.8,7.55,7.55,0,0,1,5,1c4.06,2.28,4.51,7.18.8,10-1.34,1-.73,2.2-.81,3.33,0,.48.53.29.84.31,5.69.31,6.58,1.24,6.58,6.94,0,1.63,0,3.26,0,4.88a4.56,4.56,0,0,1-4.8,4.7c-2.66,0-2.66,0-2.67,2.7a16.74,16.74,0,0,1-.12,2.35,4.73,4.73,0,0,1-4.74,4.24c-6,.06-12.08,0-18.11,0A4.72,4.72,0,0,1,7.1,40.85C7.07,37,7.09,33.16,7.09,29.31Z"/><path class="cls-2" d="M8.9,29.46c0-3.69,0-7.38,0-11.08,0-.8.1-1.26,1-.92a.86.86,0,0,0,.59,0c2.3-.95,4.26.06,6.31.92a6.82,6.82,0,0,0,4.07.39c.89-.19,1.06.11,1.07.95A4.29,4.29,0,0,0,24.58,24c2.23.94,4.77-.82,5.1-3.42a5.72,5.72,0,0,0,0-.59c.06-2.06.07-2,2-2.16,1-.09,1.09.3,1.08,1.11,0,5.37,0,10.74,0,16.11,0,1.82.05,3.64,0,5.46-.06,2.29-1.22,3.37-3.54,3.38H12.55c-2.4,0-3.63-1.23-3.64-3.63,0-3.6,0-7.19,0-10.79Z"/><path class="cls-2" d="M23.82,18.42a2.91,2.91,0,0,1,0-.59c.14-1.23-.07-1.73-1.55-1.23a7.65,7.65,0,0,1-7.63-1.43c-.6-.49-1-.68-1.77-.21a4.75,4.75,0,0,1-4.13.35,4.14,4.14,0,0,1-2.9-4.68A4.41,4.41,0,0,1,10.72,7.1c1.21.18,1.66-.2,2.24-1.17a7.56,7.56,0,0,1,7.5-3.77A7.37,7.37,0,0,1,27,6.36c.5,1,.88,1.18,2,.9a6.28,6.28,0,0,1,5.49,1,3.9,3.9,0,0,1-.08,6.59,6.37,6.37,0,0,1-5.35,1c-1-.26-1.17.06-1.12,1s0,2,0,2.95c-.05,1.43-.91,2.51-2,2.53s-1.95-1-2.08-2.43C23.78,19.41,23.82,18.92,23.82,18.42Z"/><path class="cls-3" d="M40.29,28.23c0,1.09,0,2.17,0,3.25a2.8,2.8,0,0,1-3,3c-.54,0-1.09,0-1.63,0s-1-.08-1-.86.42-.77,1-.74c.24,0,.49,0,.74,0,1.39.05,2-.67,2-2,0-1.82,0-3.64,0-5.46,0-1.57-.53-2-2.15-2.1-.51,0-1.39.54-1.47-.62-.05-.59,0-1.09.82-1,.58.05,1.18,0,1.77,0a2.83,2.83,0,0,1,3,3.07c0,1.13,0,2.26,0,3.39Z"/><path class="cls-4" d="M35.51,25.21c.63,0,1,.07,1,.86s0,1.47,0,2.2,0,1.38,0,2.06c.07.84-.45.78-1,.81s-.83-.26-.82-.86c0-1.42.05-2.84,0-4.26,0-.68.25-.81.86-.81"/><path class="cls-1" d="M14.84,28.6c0,.83,0,1.65,0,2.48,0,.3-.05.6-.87.62s-1-.27-1-.58c0-1.69,0-3.38,0-5.08,0-.29,0-.58.94-.57s.9.31.9.6C14.83,26.91,14.84,27.76,14.84,28.6Z"/><path class="cls-1" d="M26.67,26c0-.29,0-.59.94-.57s.89.31.89.6c0,.85,0,1.69,0,2.54s0,1.6,0,2.41c0,.3.05.66-.88.67s-.95-.33-.95-.64q0-2.51,0-5"/><path class="cls-1" d="M26.43,39.07c0-.59,0-1.18,0-1.77s0-1.24,0-1.86c0-.21,0-.43-.65-.44s-.69.21-.69.42c0,.93,0,1.87,0,2.8-2.89,0-5.79,0-8.68,0V35.44c0-.21,0-.43-.65-.44s-.69.21-.69.42c0,1.24,0,2.48,0,3.73,0,.22.1.43.71.42h.06a2.29,2.29,0,0,0,.37,0c1.48,0,2.95,0,4.43,0h5.15C26.47,39.55,26.44,39.29,26.43,39.07Z"/></svg>