<svg id="Layer_1" data-name="Layer 1" xmlns="http://www.w3.org/2000/svg" viewBox="0 0 23 23"><defs><style>.cls-1{fill:#fff;}.cls-2{fill:#2b95ad;}</style></defs><title>icon</title><path class="cls-1" d="M5,16.73c-.32,0-.61,0-.9,0a4,4,0,0,1-2.7-1.34,4.06,4.06,0,0,1-1-2.82c0-2.51,0-5,0-7.53A4,4,0,0,1,2.61,1.41,3.78,3.78,0,0,1,4.45,1H15.27c1.14,0,2.28,0,3.43,0A4,4,0,0,1,22.63,5c0,2.54,0,5.09,0,7.63a4,4,0,0,1-3.4,4,10.82,10.82,0,0,1-1.71.07H9.37a.23.23,0,0,0-.21.1l-3.84,5a.32.32,0,0,1-.41.14c-.15-.06-.2-.19-.19-.39,0-.57.07-1.14.1-1.71,0-.73.09-1.47.13-2.2C5,17.38,5,17.08,5,16.73Z"/><path class="cls-2" d="M11.78,6.45h.05A2.16,2.16,0,0,1,14,8.62V8.7a2.16,2.16,0,0,1-2.15,2.17h-.05A2.16,2.16,0,0,1,9.63,8.7V8.62A2.16,2.16,0,0,1,11.78,6.45Z"/><path class="cls-2" d="M6.7,6.45h0A2.16,2.16,0,0,1,8.85,8.62V8.7A2.16,2.16,0,0,1,6.7,10.87h0A2.16,2.16,0,0,1,4.55,8.7V8.62A2.16,2.16,0,0,1,6.7,6.45Z"/><path class="cls-2" d="M17,6.45h0a2.16,2.16,0,0,1,2.15,2.19v.09A2.16,2.16,0,0,1,17,10.87h0a2.16,2.16,0,0,1-2.15-2.19V8.59A2.16,2.16,0,0,1,17,6.45Z"/><path class="cls-2" d="M5,22.14a.48.48,0,0,1-.18,0,.46.46,0,0,1-.25-.51c0-.39,0-.78.07-1.17l.16-2.74c0-.22,0-.44,0-.68v-.16H4.71c-.21,0-.41,0-.61,0a4,4,0,0,1-2.77-1.38A4.11,4.11,0,0,1,.26,12.57c0-.85,0-1.7,0-2.55,0-1.63,0-3.32,0-5a4.06,4.06,0,0,1,2.3-3.73A3.91,3.91,0,0,1,4.45.87H16.3c.78,0,1.6,0,2.4,0a4.12,4.12,0,0,1,3.81,2.8A4.08,4.08,0,0,1,22.75,5v7.63a4.15,4.15,0,0,1-3.5,4.13,9.24,9.24,0,0,1-1.39.06H9.37a.11.11,0,0,0-.12.06l-3.5,4.56-.34.44A.48.48,0,0,1,5,22.14Zm0-5.52h.12l0,.4,0,.67-.16,2.75c0,.39,0,.78-.07,1.17,0,.19,0,.25.11.28s.16,0,.28-.11l.34-.44,3.5-4.56a.37.37,0,0,1,.3-.15h8.49a7.59,7.59,0,0,0,1.35-.06,3.9,3.9,0,0,0,3.31-3.9c0-2.19,0-4.38,0-6.58V5a3.94,3.94,0,0,0-.22-1.3A3.9,3.9,0,0,0,18.69,1.1H4.45a3.69,3.69,0,0,0-1.78.42A3.83,3.83,0,0,0,.49,5c0,1.66,0,3.35,0,5v2.55a4,4,0,0,0,1,2.74,3.81,3.81,0,0,0,2.63,1.3,5.71,5.71,0,0,0,.59,0Z"/></svg>