<svg id="Layer_1" data-name="Layer 1" xmlns="http://www.w3.org/2000/svg" viewBox="0 0 23 23"><defs><style>.cls-1{fill:#fff;}.cls-2{fill:#2b95ad;}</style></defs><title>icon</title><path class="cls-1" d="M21.63,11.23c-.15-.05-.21-.11-.2-.27,0-.79,0-.68-.69-.69H18.18a6.28,6.28,0,0,0,.55-2.68,5.66,5.66,0,0,0-.95-3.41A2.84,2.84,0,0,0,15.4,2.89a3,3,0,0,0-2.92,1.93A6.22,6.22,0,0,0,11.92,8a5.08,5.08,0,0,0,.92,2.88,10.87,10.87,0,0,1,1.3,2.36,7.22,7.22,0,0,1,.57,1.94c0,.1.1.26-.06.31a.86.86,0,0,1-.51.09c-.1,0-.06-.27-.07-.42a4.57,4.57,0,0,0-6-3.93,4.63,4.63,0,0,0-2,1.3L6,12.35a4.56,4.56,0,0,0-.83-1.55.88.88,0,0,0-1-.31,3.1,3.1,0,0,0-.6.23A6,6,0,0,0,2,12a6.17,6.17,0,0,0-.81,7.34,1.83,1.83,0,0,0,.85.82h.39a2.39,2.39,0,0,0,1.12-.42,5.91,5.91,0,0,0,1-.76,4.8,4.8,0,0,0,1-1.24c0,.06,0,.12,0,.17a4.38,4.38,0,0,0,1.24,1.4,4.11,4.11,0,0,0,2.17.85h1.13c.26-.06.53,0,.79-.12a4.77,4.77,0,0,0,1.74-.95c.14-.12.24-.15.36,0a2.38,2.38,0,0,0,3.05.75l.15-.08c.09,0,.15,0,.16.08s.14.29.34.26c1.71,0,3.42,0,5.13,0a1,1,0,0,0,.3,0c.17,0,.22-.16.22-.32q0-.71,0-1.41c0-.22-.1-.34-.33-.31s-.3-.08-.27-.29a1.21,1.21,0,0,0,0-.19c0-.25-.09-.34-.33-.33s-.79,0-1.18,0c-.19,0-.25-.06-.24-.24,0-.39,0-.77,0-1.16a.26.26,0,0,1,.18-.28,2.2,2.2,0,0,0,1.17-1.26.27.27,0,0,1,.23-.21,1.46,1.46,0,0,0,.11-2.87Z"/><path class="cls-2" d="M2.64,14.26c-.07,0-.15,0-.18.06s0,.13.12.15.17.1.13.21-.13.15-.25.12-.12-.05-.16,0,0,.14.08.17a.17.17,0,0,1,.13.22c0,.11-.13.12-.23.1s-.12,0-.14.1,0,.1.1.12.19.1.16.23-.13.12-.23.11S2,15.89,2,16s0,.12.12.15.23.08.19.22-.14.13-.25.11-.13,0-.14.08a.12.12,0,0,0,.09.15c.12,0,.23.09.18.23S2,17,1.9,17l-.51-.15c-.1,0-.18-.09-.17-.2a.18.18,0,0,1,.21-.15c.07,0,.15.05.17-.07s-.05-.13-.13-.15a.16.16,0,0,1-.13-.19A.16.16,0,0,1,1.55,16c.1,0,.13,0,.15-.1s-.06-.11-.12-.13-.19-.09-.16-.21a.16.16,0,0,1,.24-.12c.08,0,.13,0,.16-.06a.11.11,0,0,0-.08-.15c-.13,0-.25-.09-.2-.25s.16-.13.28-.08.12,0,.14-.08,0-.12-.08-.14-.19-.11-.15-.23A.18.18,0,0,1,2,14.3c.09,0,.15,0,.18-.09s-.05-.11-.11-.13a.15.15,0,0,1-.1-.2.16.16,0,0,1,.22-.12c.08,0,.14,0,.17-.06s0-.12-.1-.16a.16.16,0,0,1-.1-.2c0-.1.12-.12.21-.11s.17,0,.21-.08S2.46,13,2.4,13a.17.17,0,0,1,.14-.31l.62.18c.11,0,.17.1.14.21a.16.16,0,0,1-.22.12c-.09,0-.17,0-.21.06s.06.12.13.16.14.1.11.2a.19.19,0,0,1-.23.12c-.08,0-.17-.1-.23,0s.1.12.16.16.12.12.09.21S2.75,14.29,2.64,14.26Z"/><path class="cls-2" d="M14.64,16.55c0-.11,0-.26.13-.26s.16.13.15.24,0,.25-.15.25S14.65,16.65,14.64,16.55Z"/><path class="cls-2" d="M14.58,17.72c0,.11,0,.19-.13.19s-.15-.2-.18-.31,0-.2.14-.19S14.52,17.62,14.58,17.72Z"/><path class="cls-2" d="M15.76,18.16c-.1,0-.17,0-.15-.13a.37.37,0,0,1,.24-.32.11.11,0,0,1,.15.11A.43.43,0,0,1,15.76,18.16Z"/><path class="cls-2" d="M14.65,17.63c0-.11,0-.24.12-.25s.15.13.15.24,0,.25-.15.24S14.65,17.72,14.65,17.63Z"/><path class="cls-2" d="M14.25,17.82c0,.12,0,.19-.12.18s-.19-.19-.22-.31,0-.19.13-.17S14.18,17.74,14.25,17.82Z"/><path class="cls-2" d="M15.66,17.67c-.08.11,0,.31-.23.33a.11.11,0,0,1-.11-.16c0-.13,0-.29.21-.32S15.66,17.57,15.66,17.67Z"/><path class="cls-2" d="M13.69,18.14a.38.38,0,0,0,0-.1c-.05-.09-.15-.18-.06-.29a.11.11,0,0,1,.13,0A.41.41,0,0,1,14,18c0,.2-.15.13-.26.13Z"/><path class="cls-2" d="M14.1,16.16c.1,0,.17.05.15.14s0,.29-.21.33a.11.11,0,0,1-.13-.14A.37.37,0,0,1,14.1,16.16Z"/><path class="cls-2" d="M14.59,16.42c-.07.1,0,.28-.17.32s-.18-.06-.15-.15,0-.29.16-.32S14.58,16.32,14.59,16.42Z"/><path class="cls-2" d="M15,16.44c0-.12,0-.19.14-.17s.13.2.15.31,0,.18-.14.16S15,16.53,15,16.44Z"/><path class="cls-2" d="M15.28,17.59c0,.12,0,.29-.17.31s-.14-.08-.12-.17,0-.29.17-.32S15.29,17.5,15.28,17.59Z"/><path class="cls-2" d="M13.69,18.14c0,.1,0,.26-.14.23a.3.3,0,0,1-.28-.29c0-.12.1-.14.2-.09s.12.15.22.15Z"/><path class="cls-2" d="M16,18.38c-.12,0-.18-.05-.16-.12a.36.36,0,0,1,.3-.29.1.1,0,0,1,.11.12C16.27,18.26,16.13,18.32,16,18.38Z"/><path class="cls-2" d="M15.45,16.16c.16,0,.17.2.21.32a.11.11,0,0,1-.13.15c-.18,0-.18-.19-.21-.32S15.34,16.17,15.45,16.16Z"/><path class="cls-2" d="M19.46,13.2c0,.05-.06.06-.11.06h-.48c-.06,0-.13,0-.15,0s.07-.08.12-.1c.23-.13.14-.37.2-.56s.11-.27-.11-.31c0,0,0-.05,0-.06.1-.16.29-.06.43-.12s.13,0,.11.12-.1.48-.14.72c0,.08-.05.19.09.21S19.48,13.13,19.46,13.2Z"/><path class="cls-2" d="M21.55,11.2c-.15,0-.21-.11-.2-.27,0-.79,0-.68-.69-.69H18.09a6.29,6.29,0,0,0,.56-2.68,5.66,5.66,0,0,0-.95-3.41,2.85,2.85,0,0,0-2.38-1.29A3,3,0,0,0,12.4,4.79,6.11,6.11,0,0,0,11.84,8a5.11,5.11,0,0,0,.92,2.88,11.31,11.31,0,0,1,1.3,2.36,7.65,7.65,0,0,1,.57,1.93c0,.11.1.27-.06.32a.94.94,0,0,1-.51.09c-.11,0-.06-.27-.07-.42A4.57,4.57,0,0,0,8,11.2a4.63,4.63,0,0,0-2,1.3L6,12.32a4.56,4.56,0,0,0-.83-1.55.9.9,0,0,0-1-.32,4,4,0,0,0-.6.24A6,6,0,0,0,1.91,12a6.19,6.19,0,0,0-.82,7.34,1.9,1.9,0,0,0,.86.82h.39a2.39,2.39,0,0,0,1.12-.42,6.5,6.5,0,0,0,1-.76,4.65,4.65,0,0,0,1-1.25.19.19,0,0,0,0,.18,4.41,4.41,0,0,0,1.25,1.4,4.13,4.13,0,0,0,2.16.85H10c.26-.07.54,0,.8-.12a4.79,4.79,0,0,0,1.74-1c.14-.11.24-.14.36,0a2.38,2.38,0,0,0,3.05.75l.15-.08c.08,0,.15,0,.15.08s.15.29.35.26h5.12a1.06,1.06,0,0,0,.31,0c.17,0,.21-.17.21-.32V18.34c0-.22-.09-.35-.32-.31s-.3-.08-.27-.29c0-.06,0-.13,0-.19,0-.25-.09-.34-.33-.34H20.09c-.19,0-.24-.06-.23-.24,0-.39,0-.77,0-1.16a.25.25,0,0,1,.17-.28,2.13,2.13,0,0,0,1.17-1.27.28.28,0,0,1,.23-.2,1.46,1.46,0,0,0,.12-2.87ZM12.29,7c0-.1,0-.16.15-.15s.16,0,.16.14,0,.14-.16.14S12.27,7.09,12.29,7Zm.31,1.7c0,.07,0,.13-.11.13s-.11-.1-.13-.17,0-.11.11-.11S12.6,8.57,12.6,8.66Zm-.16-.44c-.11,0-.15,0-.15-.14s.06-.14.15-.14.16,0,.16.15S12.53,8.23,12.44,8.22Zm0-.56c-.11,0-.14,0-.14-.15s.06-.14.16-.14.18,0,.17.15S12.51,7.65,12.41,7.66Zm0-1.14c-.09,0-.12,0-.1-.12s0-.17.15-.17.1.09.1.17S12.54,6.52,12.45,6.52Zm.12-.58s-.09,0-.1,0,0-.16.06-.32C12.62,5.78,12.63,5.86,12.57,5.94Zm5.5,2.83c-.1-.08-.07-.16,0-.27C18.18,8.6,18.06,8.69,18.07,8.77Zm.12-.69c0,.06,0,.13-.1.14S18,8.14,18,8.07s0-.13.11-.12S18.19,8,18.19,8.08Zm-.07-.43c-.08,0-.12,0-.12-.11s0-.16.11-.16.09.06.1.13S18.23,7.65,18.12,7.65Zm-.07-1.39c0,.08.13.16,0,.25H18A.17.17,0,0,1,18.05,6.26Zm0,.55c.1,0,.11.07.12.12s0,.15-.09.16S18,7,18,7,18,6.81,18.08,6.81Zm-.52.28c-.1,0-.13,0-.13-.14s0-.15.15-.15.14.06.13.15S17.65,7.09,17.56,7.09Zm0,.85c.11,0,.13.07.12.16s0,.13-.13.13-.15,0-.15-.15S17.49,7.94,17.59,7.94Zm-.16-.42c0-.11.05-.15.16-.15s.12.08.12.17-.06.12-.13.11S17.43,7.62,17.43,7.52Zm.17,2.14c.11,0,.12.07.11.15s0,.13-.13.13-.15,0-.15-.15S17.51,9.66,17.6,9.66Zm-.17-.43c0-.09,0-.14.13-.14s.15,0,.15.11,0,.18-.12.17S17.43,9.34,17.43,9.23Zm.14-.44c-.09,0-.14,0-.14-.13s.05-.16.15-.15.13.05.13.14S17.67,8.8,17.57,8.79Zm0-2.27c-.09,0-.13,0-.13-.13s0-.16.14-.16.16,0,.14.14S17.66,6.52,17.56,6.52Zm0-.56c-.11,0-.13-.06-.13-.16s.06-.13.15-.13.15,0,.13.14S17.66,6,17.56,6Zm.16-.72c0,.08,0,.15-.12.15s-.17,0-.17-.13,0-.17.13-.15S17.72,5.13,17.72,5.24Zm-.29-.66a.26.26,0,0,1,.14.21s-.06,0-.09,0S17.42,4.68,17.43,4.58Zm.89,11.86c0,.22.12.56-.06.73s-.5,0-.76,0a.48.48,0,0,1-.61-.39,1.83,1.83,0,0,0-.88-1,.36.36,0,0,1-.19-.39A6.88,6.88,0,0,1,16.11,14c.05-.16.11-.13.24-.09a1.2,1.2,0,0,1,.83.75,1.7,1.7,0,0,0,.9.85.33.33,0,0,1,.24.4A4.66,4.66,0,0,0,18.32,16.44ZM15.85,10c-.12,0-.13-.08-.13-.17s.06-.12.14-.12.16,0,.14.15S16,10,15.85,10Zm.16.43c0,.1,0,.15-.15.14s-.14,0-.14-.14,0-.17.14-.14S16,10.27,16,10.38Zm-.28,1.11c0-.18,0-.35,0-.53s0-.15.14-.16.15.06.15.17a2.18,2.18,0,0,0,0,.25h0a2.61,2.61,0,0,1,0,.28c0,.14-.13.13-.21.14S15.73,11.55,15.73,11.49ZM17,6c-.11,0-.15,0-.14-.15s0-.14.13-.14.17,0,.15.13S17.12,6,17,6Zm0,.27c.1,0,.13,0,.13.14s0,.17-.13.15-.15,0-.15-.14S16.91,6.23,17,6.23Zm0,1.43c-.1,0-.12,0-.12-.14s0-.15.15-.15.14.06.13.16S17.08,7.66,17,7.66Zm0,.85c.12,0,.13.06.13.16s-.05.13-.14.12-.14,0-.14-.15S16.92,8.52,17,8.51Zm-.15-.4c0-.1,0-.17.14-.16s.14,0,.14.12,0,.16-.13.16S16.86,8.22,16.86,8.11Zm.13,1c.1,0,.16,0,.15.14s0,.15-.11.14-.17,0-.17-.13S16.89,9.1,17,9.09Zm0,.57c.08,0,.14,0,.14.12s0,.17-.13.16-.15,0-.15-.15S16.9,9.66,17,9.66Zm0-2.57c-.08,0-.15,0-.15-.12s0-.17.12-.17.17,0,.16.14S17.13,7.1,17,7.09Zm0-1.7c-.09,0-.15,0-.15-.14s0-.16.14-.14.15,0,.14.14S17.12,5.39,17,5.39Zm0-.57c-.09,0-.17,0-.17-.12s0-.17.13-.16.16,0,.15.13S17.14,4.82,17,4.82Zm-.15-.88c.11.07.26.12.24.27s-.11.06-.16,0S16.88,4.06,16.88,3.94Zm-.59-.39a.53.53,0,0,1,.27.66c0,.06-.11,0-.17,0s-.1-.07-.1-.14Zm.14,1c.11,0,.15,0,.15.14s0,.14-.12.14-.17,0-.17-.13S16.31,4.53,16.43,4.54Zm0,.57c.09,0,.18,0,.15.12s0,.16-.13.16-.15,0-.15-.15S16.32,5.1,16.42,5.11Zm0,5.41c-.1,0-.16,0-.16-.13s0-.16.13-.16.18,0,.15.12S16.57,10.53,16.45,10.52Zm0-2.86c-.08,0-.15,0-.15-.12s0-.17.13-.17.17,0,.15.13S16.56,7.66,16.44,7.66Zm0-1.7c-.11,0-.13-.06-.13-.16s.06-.13.16-.13.14.06.12.15S16.52,6,16.42,6Zm0,.28c.12,0,.16,0,.16.14s0,.14-.13.14-.17,0-.16-.13S16.31,6.22,16.42,6.24Zm0,1.7c.09,0,.17,0,.15.13s0,.16-.13.16-.15,0-.15-.12S16.29,7.94,16.42,7.94Zm0,.57c.1,0,.16,0,.16.13s0,.16-.14.16-.15,0-.15-.12S16.3,8.51,16.42,8.51Zm0-1.71c.08,0,.14,0,.14.13s0,.17-.13.16-.16,0-.16-.14S16.33,6.8,16.44,6.8Zm0,2.29c.09,0,.13,0,.13.13s0,.18-.13.16-.16,0-.16-.15S16.35,9.09,16.45,9.09Zm0,.57c.09,0,.14,0,.14.13s0,.17-.14.16-.15,0-.15-.15S16.33,9.66,16.44,9.66Zm0,1.15c.09,0,.15,0,.16.12s0,.38-.32.37C16.37,11.12,16.14,10.9,16.42,10.81Zm.07,1c.09-.07.24-.22.33-.08a.41.41,0,0,1,0,.45c-.39.5-.39.5,0,1,.14.15,0,.33.07.51a.93.93,0,0,1-.8-.82A1,1,0,0,1,16.49,11.77ZM16,9.23c0,.14-.06.15-.15.15s-.13-.08-.13-.17.07-.12.15-.12S16,9.14,16,9.23Zm-.14-.43c-.09,0-.14,0-.14-.13s0-.16.13-.16.17,0,.16.14S16,8.8,15.86,8.8Zm0-3.41c-.12,0-.15,0-.15-.15s0-.14.13-.14.17,0,.15.14S16,5.39,15.87,5.39Zm.14.42c0,.1,0,.15-.14.15s-.15,0-.15-.14,0-.17.13-.14S16,5.7,16,5.81Zm-.15.42c.11,0,.16,0,.14.15s0,.14-.13.14-.15,0-.15-.14S15.76,6.24,15.86,6.23Zm0,.86c-.1,0-.12-.06-.12-.14s0-.15.15-.15S16,6.87,16,7,15.93,7.09,15.84,7.09Zm0,1.14c-.11,0-.11-.08-.11-.15s.06-.14.16-.14S16,8,16,8.11,15.92,8.22,15.83,8.23Zm0-.57c-.08,0-.15,0-.15-.12s0-.17.13-.17.17,0,.15.13S16,7.66,15.87,7.66Zm0-4.29c.08,0,.17,0,.17.13s0,.42,0,.62-.05.13-.14.13-.15,0-.15-.12,0-.22,0-.34V3.51C15.73,3.44,15.7,3.34,15.83,3.37Zm.05,1.17c.1,0,.13,0,.13.13s0,.17-.15.15-.14-.05-.14-.15S15.79,4.54,15.88,4.54Zm-.59,1.13c.09,0,.17,0,.15.13s0,.16-.13.16-.16,0-.15-.14S15.17,5.66,15.29,5.67Zm-.13-.42c0-.08,0-.15.11-.14s.18,0,.17.12,0,.18-.12.15S15.15,5.37,15.16,5.25Zm.13,1c.1,0,.15,0,.15.13s0,.16-.13.15-.16,0-.15-.13S15.17,6.22,15.29,6.24Zm0-2.94c.09,0,.13,0,.13.13v.68c0,.11,0,.14-.15.14s-.13,0-.13-.13V3.44C15.15,3.32,15.21,3.3,15.31,3.3Zm0,1.24c.09,0,.17,0,.15.12s0,.17-.13.16-.16,0-.15-.13S15.17,4.53,15.29,4.54Zm0,2.26c.11,0,.15,0,.14.15s0,.14-.14.14-.15,0-.15-.14S15.19,6.8,15.3,6.8Zm0,.85c-.13,0-.11-.08-.11-.16s.08-.12.16-.12.12.09.12.18S15.35,7.65,15.27,7.65Zm0,.29c.1,0,.15,0,.15.14s0,.15-.13.15-.16,0-.16-.14S15.17,7.93,15.29,7.94Zm0,.57c.11,0,.14.05.13.14s0,.15-.15.15-.14-.06-.14-.15S15.21,8.51,15.31,8.51Zm0,.58c.11,0,.15,0,.15.14s0,.15-.14.15-.15,0-.15-.14S15.18,9.08,15.29,9.09Zm0,1.43c-.1,0-.16,0-.15-.13s0-.17.13-.16.18,0,.15.13S15.43,10.53,15.31,10.52Zm0-.58c-.11,0-.14,0-.15-.14s0-.14.15-.14.15,0,.14.14S15.41,10,15.3,9.94Zm-.15,1.52a4.34,4.34,0,0,0,0-.51c0-.1,0-.15.14-.15s.14,0,.14.15a3.67,3.67,0,0,0,0,.74C15.25,11.79,15.13,11.74,15.15,11.46Zm-.44-3.8c-.11,0-.12-.06-.12-.14s0-.15.15-.15.14.06.13.15S14.8,7.65,14.71,7.66Zm0,.28c.14,0,.15.06.15.16s-.07.13-.16.13-.12-.06-.12-.14S14.62,7.92,14.72,7.94Zm0,.57c.1,0,.17,0,.16.13s0,.16-.14.16-.14,0-.14-.12S14.58,8.51,14.71,8.51Zm0-1.42c-.12,0-.13-.06-.13-.15s0-.14.13-.14.15,0,.15.15S14.83,7.1,14.72,7.09Zm0-.57c-.09,0-.14,0-.14-.12s0-.17.13-.16.17,0,.15.12S14.84,6.52,14.73,6.52Zm.14-.72c0,.13,0,.15-.15.16s-.13-.07-.13-.16,0-.13.13-.13S14.9,5.69,14.87,5.8Zm-.1-2.45c.12,0,.1.08.1.15v.58c0,.11,0,.18-.15.17s-.13-.07-.13-.16V3.81c0-.1,0-.2,0-.31S14.67,3.35,14.77,3.35Zm0,1.19c.14,0,.14.06.14.16s-.08.12-.17.12-.1-.07-.11-.15S14.64,4.52,14.73,4.54Zm0,.56c.09,0,.17,0,.15.14s0,.15-.14.15-.14,0-.14-.15S14.62,5.1,14.72,5.1Zm0,4c.11,0,.16,0,.16.15s-.05.15-.16.14-.13-.07-.13-.16S14.63,9.09,14.72,9.09Zm-.57.86C14,10,14,9.87,14,9.78s.06-.12.14-.12.16,0,.15.15S14.25,10,14.15,10Zm0-.57c-.11,0-.15-.05-.14-.15s.06-.14.16-.14.13,0,.13.14S14.27,9.38,14.16,9.38Zm0-2.29C14,7.09,14,7,14,7s0-.15.14-.15.16,0,.15.16S14.24,7.09,14.15,7.09Zm0,1.14c-.09,0-.15,0-.15-.12s0-.17.13-.17.17,0,.16.14S14.28,8.23,14.17,8.23Zm0-1.71c-.1,0-.14,0-.14-.13s0-.17.13-.15.16,0,.16.14S14.26,6.52,14.16,6.52Zm0-.56C14,6,14,5.89,14,5.8s.06-.13.16-.13.14.06.12.16S14.24,6,14.15,6Zm0-.57c-.12,0-.13-.07-.13-.16s.05-.13.14-.13.16,0,.15.15S14.26,5.39,14.15,5.39Zm0-.57c-.11,0-.15,0-.15-.14s0-.15.12-.14.18,0,.16.13S14.28,4.82,14.17,4.82Zm-.41-1c-.07.19.09.37-.13.46-.05,0-.14,0-.16-.06S13.57,3.92,13.76,3.79Zm-.18,2.73c-.1,0-.12,0-.13-.14s0-.15.15-.15.15,0,.14.16S13.67,6.52,13.58,6.52Zm0,.29c.12,0,.16,0,.16.14s-.06.14-.16.14-.13,0-.13-.13S13.47,6.78,13.58,6.81Zm0-2.27c.1,0,.16,0,.15.14s-.05.14-.15.14-.13-.07-.14-.16S13.5,4.54,13.59,4.54Zm0,.56c.09,0,.17,0,.17.13s0,.17-.14.16-.15,0-.15-.14S13.47,5.1,13.57,5.1Zm0,.57c.11,0,.15,0,.15.14s0,.15-.14.15-.15,0-.15-.15S13.49,5.66,13.59,5.67Zm-.55,2c-.11,0-.16,0-.16-.14s0-.14.13-.14.16,0,.15.15S13.13,7.65,13,7.65Zm.13.45c0,.11-.06.13-.15.12s-.14,0-.14-.12,0-.16.14-.16S13.17,8,13.17,8.1ZM13,8.51c.1,0,.16,0,.15.14s0,.14-.12.14-.16,0-.16-.13S12.9,8.51,13,8.51Zm.16.7c0,.09,0,.17-.14.16s-.14,0-.15-.11,0-.17.13-.17S13.16,9.1,13.17,9.21ZM13,9.66c.09,0,.14,0,.14.13s-.05.16-.16.15-.12,0-.13-.13S12.92,9.66,13,9.66Zm0-2.57c-.09,0-.14,0-.14-.12s0-.17.13-.17.17,0,.16.14S13.13,7.09,13,7.09Zm0-.57c-.09,0-.13,0-.13-.13s0-.17.14-.15.15,0,.15.14S13.11,6.52,13,6.52Zm.11-2c.07,0,.05.09,0,.14s-.14.11-.26.11C13,4.7,13,4.55,13.12,4.56ZM13,5.1c.1,0,.17,0,.16.14s0,.15-.15.15-.14,0-.14-.15S12.92,5.1,13,5.1Zm0,.57c.11,0,.15,0,.15.14S13.13,6,13,6s-.14,0-.14-.15S12.92,5.66,13,5.67Zm.12,4.83c-.15,0-.15-.13-.26-.25.14,0,.24-.08.29.07S13.2,10.48,13.14,10.5Zm.45-3.13c.11,0,.16,0,.15.15s-.06.14-.15.14-.14,0-.14-.13S13.47,7.37,13.59,7.37Zm.15,1.3c0,.14-.1.12-.18.12s-.1-.09-.1-.16.06-.12.14-.12S13.75,8.58,13.74,8.67Zm0,.56c0,.11-.05.14-.16.15s-.12-.08-.12-.17.06-.12.14-.12S13.74,9.13,13.74,9.23Zm-.17-1c-.12,0-.11-.07-.11-.15s0-.13.13-.13.16.06.15.16S13.65,8.22,13.57,8.22Zm0,1.44c.09,0,.14,0,.14.14s-.05.15-.16.14-.12,0-.12-.13S13.49,9.66,13.6,9.66Zm0,.57c.11,0,.13.06.13.16s-.06.14-.16.13-.12-.06-.13-.15S13.51,10.23,13.61,10.23Zm-.15.63c0-.1.14-.07.19,0s.06.24.11.44C13.58,11.11,13.42,11.05,13.46,10.86Zm.85-7.37c0,.22,0,.42,0,.61s0,.15-.15.15S14,4.2,14,4.1,13.87,3.57,14.31,3.49Zm-.14,3.88c.12,0,.15.06.14.16s-.08.12-.17.13S14,7.6,14,7.52,14.06,7.37,14.17,7.37Zm0,1.14c.1,0,.17,0,.16.14s-.05.15-.15.15-.14,0-.14-.13S14,8.5,14.15,8.51Zm0,1.72c.11,0,.14,0,.14.15s-.05.15-.15.14-.14,0-.14-.15S14.06,10.23,14.17,10.23Zm.08,1.29c-.1,0-.21,0-.22-.17s0-.26,0-.39,0-.16.13-.16.16.06.16.17a1.77,1.77,0,0,0,0,.23.71.71,0,0,1,0,.14C14.29,11.4,14.35,11.52,14.25,11.52Zm.47-1.86c.1,0,.16,0,.16.14s0,.16-.15.15-.14-.06-.14-.16S14.62,9.66,14.72,9.66Zm0,.57c.11,0,.14,0,.14.15s0,.14-.14.14-.14,0-.14-.14S14.62,10.22,14.73,10.23Zm-.14,1.31c0-.21,0-.41,0-.62s.06-.12.14-.12.15,0,.14.13v.33a2.61,2.61,0,0,1,0,.28c0,.07,0,.17-.09.16S14.59,11.67,14.59,11.54Zm-4.3.41a1,1,0,0,1,1.2,0,5.5,5.5,0,0,1,1.08.9.34.34,0,0,1,.09.33c-.08.31-.15.62-.2.94a.28.28,0,0,1-.21.23,3.37,3.37,0,0,1-1.28.35c-.44-.06-.78-.51-1.18-.77a.29.29,0,0,1-.13-.27c0-.19,0-.39,0-.68C9.5,12.5,9.82,12.23,10.29,12Zm-3.59.51a5.62,5.62,0,0,1,1.14-.72.37.37,0,0,1,.39,0,2.33,2.33,0,0,0,.34.2c.52.2.82.53.62,1.12.19.58-.15.86-.55,1.2a1.38,1.38,0,0,1-1.55.24,1,1,0,0,1-.79-.87A1,1,0,0,1,6.7,12.46ZM4.19,10.9a.48.48,0,0,1,.58.14,5,5,0,0,1,.78,1.39,13.36,13.36,0,0,0-2.67-.78A3.86,3.86,0,0,1,4.19,10.9ZM2.35,19.63a.53.53,0,0,1-.56-.15,3.84,3.84,0,0,1-.74-1.35,12.8,12.8,0,0,0,2.66.74A3.93,3.93,0,0,1,2.35,19.63ZM5,17.33a6.21,6.21,0,0,1-.76,1,.28.28,0,0,1-.29.12,11.76,11.76,0,0,1-2.91-.81.39.39,0,0,1-.25-.31A6.3,6.3,0,0,1,.7,16.23a5.72,5.72,0,0,1,1.61-4.06.32.32,0,0,1,.32-.11,13,13,0,0,1,2.8.81c.19.09.19.15.09.32a4.49,4.49,0,0,0-.44,3.71A.5.5,0,0,1,5,17.33Zm1.61.58a1,1,0,0,1-1-.8,4.5,4.5,0,0,1-.29-1.29.33.33,0,0,1,.16-.35,1.1,1.1,0,0,0,.23-.2c.38-.53.83-.5,1.41-.31a1.26,1.26,0,0,1,1,1c.17.72.22.71-.22,1.3l-.15.21C7.32,18,7.32,17.93,6.64,17.91Zm4.26,1a1.09,1.09,0,0,1-1.06.72,4.64,4.64,0,0,1-1.39-.1.32.32,0,0,1-.26-.23A2.72,2.72,0,0,0,8,18.86a.83.83,0,0,1,.14-1.22.44.44,0,0,0,.08-.11c.27-.5.63-.81,1.25-.59.65-.25.92.19,1.27.62A1.15,1.15,0,0,1,10.9,18.93Zm1.61-1.25c0,.13,0,.19-.17.2s-.46.05-.67.07-.18-.05-.22-.12l-.78-1.07a.26.26,0,0,1-.05-.28c.13-.36.25-.73.36-1.09a.29.29,0,0,1,.22-.23l1.2-.39a.27.27,0,0,1,.28.07l.75.68c.17.14.18.26,0,.4A2.27,2.27,0,0,0,12.51,17.68Zm4.08.48c0,.08,0,.17-.15.14a.25.25,0,0,0-.16.05c-.09.06-.23.08-.18.24s.09.09.31.05a1.84,1.84,0,0,1-3.18.06c.08-.05.21,0,.23-.12s-.08-.2-.17-.22c-.32-.06-.32-.31-.33-.55a1.81,1.81,0,0,1,.38-1.18c.08-.11.15-.26.35-.19s.14-.05.16-.12c.13-.29.4-.34.67-.39a1.79,1.79,0,0,1,.86.07.34.34,0,0,1,.26.22c0,.12.12.32.35.18.06,0,.1,0,.14.07A1.81,1.81,0,0,1,16.59,18.16Zm5,.31c.18,0,.22.06.21.23s0,.47,0,.7-.06.22-.23.22H16.94c-.18,0-.23-.06-.24-.24a1.7,1.7,0,0,1,.24-.82c0-.11.13-.09.21-.09C18.62,18.47,20.08,18.48,21.55,18.47Zm-.61-.82c.14,0,.24,0,.24.18s-.11.2-.25.2H19.1c-.59,0-1.19,0-1.78,0-.1,0-.25.06-.24-.15s.06-.23.23-.22Zm-2.17-1.18v-.26c0-.45,0-.44.45-.46.17,0,.21,0,.21.19q0,.53,0,1c0,.19-.07.25-.24.23H19c-.14,0-.21,0-.2-.19S18.77,16.65,18.77,16.47Zm2.09-2.67a1.79,1.79,0,0,1-3.56-.19c0-.91,0-1.83,0-2.74,0-.15.07-.18.2-.18H20.7c.11,0,.21,0,.21.15C20.88,11.83,21,12.82,20.86,13.8Zm.75-.23c-.18.08-.28.08-.27-.16a.51.51,0,0,1,.17-.42.49.49,0,0,0,0-.76c-.21-.16-.13-.35-.13-.54s.1-.06.16,0a1.05,1.05,0,0,1,.69,1.1A1,1,0,0,1,21.61,13.57Z"/></svg>