<svg id="Layer_1" data-name="Layer 1" xmlns="http://www.w3.org/2000/svg" viewBox="0 0 46 46"><defs><style>.cls-1{fill:#fff;}.cls-2{fill:#2b95ad;}</style></defs><title>icon</title><path class="cls-1" d="M43.49,22.45c-.31-.09-.43-.21-.42-.54.06-1.59,0-1.38-1.39-1.39H36.5a12.93,12.93,0,0,0,1.13-5.42,11.54,11.54,0,0,0-1.92-6.91,5.85,5.85,0,0,0-4.83-2.61A6.17,6.17,0,0,0,25,9.49a12.63,12.63,0,0,0-1.13,6.44,10.25,10.25,0,0,0,1.86,5.82,22.7,22.7,0,0,1,2.64,4.77,15.16,15.16,0,0,1,1.15,3.91c0,.22.2.53-.12.65a1.88,1.88,0,0,1-1,.17c-.21-.07-.12-.55-.15-.85a9.23,9.23,0,0,0-12-7.95,9.4,9.4,0,0,0-4,2.63L12,24.72a9.13,9.13,0,0,0-1.68-3.13,1.79,1.79,0,0,0-2-.64A6.68,6.68,0,0,0,7,21.42,12.23,12.23,0,0,0,3.76,24,12.49,12.49,0,0,0,2.12,38.81a3.78,3.78,0,0,0,1.73,1.67h.8a5.11,5.11,0,0,0,2.25-.85,12.28,12.28,0,0,0,2-1.54,9.88,9.88,0,0,0,1.93-2.52c-.08.14,0,.25.08.36a8.74,8.74,0,0,0,2.52,2.82,8.33,8.33,0,0,0,4.38,1.73h2.28c.53-.14,1.08-.08,1.61-.24a9.8,9.8,0,0,0,3.52-1.94c.28-.24.48-.3.72.07a4.83,4.83,0,0,0,6.17,1.52l.3-.16c.18-.09.31-.06.32.15,0,.45.28.59.69.54H43.76a2.14,2.14,0,0,0,.62,0c.35-.08.43-.33.43-.65V36.89c0-.45-.2-.69-.66-.63s-.6-.15-.54-.57c0-.13,0-.27,0-.4,0-.5-.18-.68-.67-.67-.8,0-1.6,0-2.4,0-.38,0-.49-.12-.48-.49,0-.78,0-1.56,0-2.34a.53.53,0,0,1,.36-.56,4.38,4.38,0,0,0,2.37-2.57.52.52,0,0,1,.46-.4,3,3,0,0,0,.24-5.82Z"/><path class="cls-2" d="M5.09,28.57c-.15,0-.31-.07-.37.14s.07.25.24.3.34.2.27.43-.28.29-.51.23-.25-.1-.33.08,0,.28.17.34a.35.35,0,0,1,.26.45c-.07.23-.27.24-.47.2s-.23.06-.28.2.07.22.21.26.38.19.31.46-.26.24-.46.21-.26,0-.3.17.08.25.24.29.46.17.39.46-.3.26-.52.22-.26,0-.28.17,0,.24.2.29.46.18.36.47-.39.23-.63.17-.69-.2-1-.3-.37-.16-.34-.39a.34.34,0,0,1,.41-.3c.15,0,.31.09.35-.15s-.11-.26-.26-.31a.33.33,0,0,1-.27-.38A.33.33,0,0,1,2.87,32c.21.06.27,0,.31-.21s-.11-.22-.23-.25-.39-.19-.33-.44.26-.31.49-.23.25,0,.31-.13a.21.21,0,0,0-.16-.3c-.25-.07-.5-.17-.39-.5s.32-.26.56-.17.23,0,.28-.16,0-.23-.17-.28-.38-.21-.3-.47.28-.23.48-.2.29,0,.34-.18-.08-.22-.2-.26a.31.31,0,0,1-.21-.41.31.31,0,0,1,.44-.24c.17.07.28.06.35-.13s-.06-.24-.2-.31a.32.32,0,0,1-.2-.42c.06-.2.23-.24.41-.22s.35.08.43-.14-.17-.23-.29-.32a.32.32,0,0,1-.13-.44.32.32,0,0,1,.43-.17l1.25.36a.32.32,0,0,1,.27.42.32.32,0,0,1-.44.24c-.17-.05-.33-.11-.42.11s.12.25.26.33.28.2.21.4-.24.27-.45.24-.35-.19-.46.11.19.25.32.33a.34.34,0,0,1,.18.43C5.52,28.64,5.31,28.64,5.09,28.57Z"/><path class="cls-2" d="M29.36,33.21c0-.22-.06-.51.26-.53s.31.27.3.5,0,.5-.3.5S29.37,33.41,29.36,33.21Z"/><path class="cls-2" d="M29.24,35.59c0,.21-.09.38-.28.36-.37,0-.29-.39-.36-.62a.26.26,0,0,1,.29-.37C29.25,35,29.11,35.38,29.24,35.59Z"/><path class="cls-2" d="M31.62,36.47c-.2,0-.35-.08-.31-.27a.8.8,0,0,1,.48-.65.23.23,0,0,1,.31.24A.86.86,0,0,1,31.62,36.47Z"/><path class="cls-2" d="M29.36,35.39c0-.21-.05-.48.25-.5s.31.26.31.49,0,.51-.32.48S29.38,35.57,29.36,35.39Z"/><path class="cls-2" d="M28.57,35.77c0,.25-.09.39-.25.37-.35,0-.38-.37-.44-.63s.05-.37.26-.33S28.43,35.62,28.57,35.77Z"/><path class="cls-2" d="M31.41,35.48c-.16.22-.08.62-.47.66a.23.23,0,0,1-.22-.32c.07-.25.08-.59.43-.64C31.31,35.16,31.42,35.28,31.41,35.48Z"/><path class="cls-2" d="M27.43,36.43a1.17,1.17,0,0,0-.06-.2c-.11-.19-.3-.36-.12-.6a.2.2,0,0,1,.25-.07.81.81,0,0,1,.45.61c0,.39-.3.26-.53.25Z"/><path class="cls-2" d="M28.26,32.42c.2,0,.34.11.3.28s-.08.59-.42.67a.22.22,0,0,1-.27-.27C27.92,32.83,28,32.54,28.26,32.42Z"/><path class="cls-2" d="M29.24,33c-.13.19,0,.56-.34.63a.24.24,0,0,1-.3-.3c.06-.23,0-.58.32-.65C29.13,32.6,29.22,32.75,29.24,33Z"/><path class="cls-2" d="M30.05,33c0-.23.08-.38.29-.34s.27.4.31.64-.07.36-.28.31S30.12,33.18,30.05,33Z"/><path class="cls-2" d="M30.65,35.32c0,.25,0,.58-.34.63-.21,0-.29-.16-.26-.35s0-.58.35-.64S30.65,35.13,30.65,35.32Z"/><path class="cls-2" d="M27.42,36.42c0,.2.09.53-.27.48a.66.66,0,0,1-.58-.6c0-.23.21-.28.42-.18s.23.3.44.31Z"/><path class="cls-2" d="M32.17,36.91c-.24,0-.34-.1-.31-.25a.72.72,0,0,1,.6-.58.21.21,0,0,1,.23.25C32.64,36.66,32.37,36.79,32.17,36.91Z"/><path class="cls-2" d="M31,32.43c.32.08.33.4.42.65a.23.23,0,0,1-.26.29c-.36,0-.37-.38-.43-.64S30.77,32.44,31,32.43Z"/><path class="cls-2" d="M39.09,26.43a.2.2,0,0,1-.22.14h-1c-.11,0-.26,0-.3-.11s.14-.16.25-.21c.46-.25.27-.75.39-1.12.07-.2.24-.55-.21-.62,0,0-.1-.11-.08-.13.2-.33.58-.12.86-.26s.26,0,.22.25c-.1.48-.19,1-.27,1.45,0,.18-.12.4.18.44C39,26.28,39.14,26.3,39.09,26.43Z"/><path class="cls-2" d="M43.33,22.38c-.32-.08-.43-.21-.42-.54.05-1.58,0-1.38-1.39-1.39H36.34A12.85,12.85,0,0,0,37.46,15a11.42,11.42,0,0,0-1.92-6.9,5.8,5.8,0,0,0-4.82-2.61C27.88,5.48,26,7,24.81,9.43a12.7,12.7,0,0,0-1.13,6.43,10.36,10.36,0,0,0,1.87,5.83,22.84,22.84,0,0,1,2.63,4.76,15.35,15.35,0,0,1,1.15,3.92c0,.21.21.53-.12.64a1.87,1.87,0,0,1-1,.18c-.21-.07-.12-.56-.14-.85a9.23,9.23,0,0,0-12-7.95,9.38,9.38,0,0,0-4,2.62c-.06-.15-.11-.25-.14-.35a8.94,8.94,0,0,0-1.69-3.14,1.78,1.78,0,0,0-2-.63,5.61,5.61,0,0,0-1.22.47A12.08,12.08,0,0,0,3.6,23.91,12.49,12.49,0,0,0,2,38.75a3.76,3.76,0,0,0,1.72,1.67h.8a5,5,0,0,0,2.25-.86,12.3,12.3,0,0,0,2-1.53,9.85,9.85,0,0,0,1.92-2.52c-.07.13,0,.24.08.36a8.85,8.85,0,0,0,2.52,2.82,8.33,8.33,0,0,0,4.38,1.73h2.28c.53-.14,1.08-.08,1.62-.25A9.82,9.82,0,0,0,25,38.24c.28-.24.48-.3.72.07a4.82,4.82,0,0,0,6.17,1.51l.31-.15c.17-.09.3-.07.31.15,0,.45.29.59.69.54H43.59a1.84,1.84,0,0,0,.62,0,.54.54,0,0,0,.43-.64c0-1,0-1.9,0-2.85,0-.45-.2-.7-.66-.63s-.61-.15-.55-.58c0-.13,0-.26,0-.4.05-.49-.18-.68-.66-.67-.8,0-1.6,0-2.4,0-.38,0-.49-.13-.48-.49q0-1.17,0-2.34a.52.52,0,0,1,.36-.56,4.43,4.43,0,0,0,2.36-2.57.55.55,0,0,1,.47-.41,3,3,0,0,0,.24-5.82ZM24.59,13.81c0-.2.09-.3.31-.3s.33.05.32.29-.11.28-.31.28S24.57,14.08,24.59,13.81Zm.63,3.44c0,.15,0,.26-.21.27s-.24-.19-.28-.34.1-.22.24-.22S25.23,17.08,25.22,17.25Zm-.33-.87c-.21,0-.29-.1-.3-.3s.13-.27.32-.27.31.07.31.29S25.09,16.39,24.89,16.38Zm0-1.15c-.23,0-.29-.1-.29-.3s.11-.29.32-.29.37.06.35.31S25,15.22,24.85,15.23Zm.06-2.3c-.17,0-.24-.08-.18-.25s0-.34.29-.33.21.17.21.34S25.1,12.94,24.91,12.93Zm.25-1.17s-.18,0-.19,0c-.08-.2.08-.33.12-.65C25.27,11.43,25.29,11.6,25.16,11.76Zm11.12,5.71c-.2-.16-.13-.32-.06-.53C36.52,17.13,36.26,17.32,36.28,17.47Zm.24-1.39c0,.13,0,.27-.2.29s-.17-.17-.17-.3.05-.27.22-.25S36.53,16,36.52,16.08Zm-.13-.86c-.16,0-.25-.06-.24-.23s0-.32.21-.33.2.13.2.27S36.6,15.21,36.39,15.22Zm-.14-2.82c.07.17.25.32.08.5a.11.11,0,0,1-.11,0A.37.37,0,0,1,36.25,12.4Zm0,1.11c.21,0,.22.15.24.25s0,.31-.17.32-.25-.11-.25-.28S36.12,13.52,36.3,13.51Zm-1,.57c-.2,0-.26-.09-.27-.28s.09-.3.31-.3.3.11.28.31S35.44,14.08,35.25,14.08Zm.07,1.73c.22,0,.25.13.24.31s-.06.26-.26.26-.31-.06-.31-.29S35.12,15.81,35.32,15.81ZM35,15c0-.22.1-.3.32-.3s.25.16.25.34-.13.25-.27.23S35,15.14,35,15Zm.34,4.33c.22,0,.24.14.23.3s-.08.27-.27.27-.3-.1-.3-.31S35.15,19.29,35.33,19.28ZM35,18.42c0-.19.07-.29.26-.28s.31,0,.31.22,0,.35-.24.34S35,18.64,35,18.42Zm.28-.89c-.19,0-.28-.08-.28-.27s.1-.32.31-.3.26.1.27.27S35.48,17.54,35.27,17.53Zm0-4.6c-.2,0-.27-.08-.27-.27s.06-.31.29-.31.32.08.28.28S35.46,12.93,35.26,12.93Zm0-1.14c-.22,0-.27-.11-.27-.31s.11-.27.31-.27.29.11.26.29S35.46,11.79,35.26,11.79Zm.31-1.44c0,.16,0,.29-.24.29s-.34,0-.34-.25,0-.34.27-.32S35.58,10.11,35.57,10.35ZM35,9c.19.13.29.26.28.43s-.11.08-.18.05S35,9.22,35,9Zm1.8,24c-.06.45.24,1.15-.12,1.49s-1,0-1.54.1a1,1,0,0,1-1.23-.79,3.73,3.73,0,0,0-1.78-2.07.69.69,0,0,1-.38-.77,13.61,13.61,0,0,1,.59-2.89c.09-.31.21-.25.48-.18a2.42,2.42,0,0,1,1.67,1.53,3.45,3.45,0,0,0,1.83,1.71.68.68,0,0,1,.48.81C36.76,32.24,36.79,32.57,36.79,33Zm-5-13.12c-.26,0-.26-.15-.26-.34s.11-.24.29-.24.31.08.28.3S32,19.86,31.8,19.86Zm.31.87c0,.21-.06.3-.28.3s-.3-.09-.29-.3.05-.33.27-.29S32.11,20.52,32.11,20.73ZM31.55,23c0-.35,0-.71,0-1.07,0-.2,0-.31.27-.32s.31.12.3.34,0,.34,0,.51h0a5.42,5.42,0,0,1,0,.57c0,.27-.25.26-.42.27S31.55,23.1,31.55,23Zm2.58-11.19c-.22,0-.3-.08-.3-.3s.06-.28.27-.28.34,0,.31.27S34.36,11.79,34.13,11.79Zm0,.56c.2,0,.27.07.27.27s0,.34-.27.3-.31-.05-.31-.28S33.93,12.35,34.14,12.35Zm0,2.88c-.2,0-.26-.1-.26-.28s.09-.3.31-.31.29.12.27.33S34.28,15.23,34.09,15.23Zm0,1.73c.25,0,.28.12.28.32s-.11.26-.29.24-.29-.1-.28-.31S34,17,34.13,17Zm-.29-.82c0-.2,0-.34.28-.33s.29,0,.29.25,0,.33-.27.32S33.84,16.36,33.84,16.14Zm.25,2c.21,0,.33,0,.32.28s0,.31-.23.29-.34,0-.34-.28S33.89,18.14,34.09,18.13Zm0,1.16c.17,0,.3,0,.3.23s0,.34-.26.33-.31-.08-.31-.3S33.93,19.28,34.11,19.29Zm0-5.21c-.16,0-.31,0-.31-.23s0-.35.26-.35.34,0,.32.27S34.38,14.1,34.14,14.08Zm0-3.44c-.2,0-.32,0-.32-.28s.08-.31.3-.29.29.09.28.3S34.36,10.64,34.15,10.64Zm0-1.14c-.18,0-.35,0-.35-.26s0-.34.28-.32.32,0,.3.28S34.4,9.5,34.18,9.5Zm-.3-1.78c.23.13.52.23.49.53s-.23.12-.34.09C33.66,8.25,33.89,8,33.88,7.72Zm-1.19-.79a1.06,1.06,0,0,1,.55,1.32c-.09.14-.24.09-.36.09s-.19-.15-.19-.29Zm.28,2c.21,0,.31.06.3.29s0,.29-.25.29-.33,0-.33-.27S32.73,8.9,33,8.92Zm0,1.15c.18,0,.36,0,.31.25s0,.33-.28.32-.3-.08-.29-.3S32.75,10.06,33,10.07Zm0,11c-.19,0-.32,0-.31-.28s0-.32.27-.31.35,0,.3.24S33.25,21,33,21Zm0-5.8c-.16,0-.31,0-.3-.24s0-.35.25-.34.36,0,.32.25S33.22,15.24,33,15.23Zm0-3.44c-.23,0-.27-.11-.27-.31s.12-.26.31-.27.28.12.26.3S33.15,11.79,33,11.79Zm0,.57c.24,0,.31.07.31.29s0,.29-.25.28-.34,0-.33-.26S32.72,12.32,33,12.36Zm0,3.44c.2,0,.35,0,.32.27s0,.33-.28.32-.29,0-.29-.25S32.7,15.8,32.94,15.8Zm0,1.15c.2,0,.34,0,.32.27s0,.33-.27.32-.3,0-.3-.24S32.7,17,32.94,17Zm0-3.45c.18,0,.29.05.29.25s0,.36-.26.33-.33,0-.33-.27S32.76,13.5,33,13.5Zm0,4.63c.2,0,.27.07.27.27s0,.35-.26.31-.32-.08-.33-.3S32.8,18.13,33,18.13Zm0,1.15c.18,0,.28,0,.28.25s0,.35-.27.33-.31-.06-.32-.29S32.78,19.27,33,19.28Zm0,2.32c.17-.06.31,0,.32.25s0,.77-.64.74C32.85,22.24,32.39,21.78,33,21.6Zm.13,1.95c.19-.14.49-.44.67-.17a.84.84,0,0,1,0,.92c-.79,1-.79,1,0,1.93.26.31,0,.68.13,1a1.92,1.92,0,0,1-1.63-1.65A2,2,0,0,1,33.08,23.55Zm-1-5.13c0,.27-.13.29-.32.29s-.25-.16-.25-.34.13-.23.3-.24S32.14,18.23,32.11,18.42Zm-.29-.89c-.18,0-.29,0-.28-.25s0-.33.27-.33.33.05.3.29S32,17.54,31.82,17.53Zm0-6.89c-.23,0-.3-.09-.29-.3s.06-.28.26-.27.35,0,.31.27S32.06,10.64,31.83,10.64Zm.28.85c0,.2,0,.31-.27.3s-.31,0-.3-.28,0-.34.26-.29S32.12,11.26,32.11,11.49Zm-.28.86c.21,0,.31.07.28.29s-.07.29-.28.29-.3-.07-.29-.28S31.61,12.35,31.83,12.35Zm0,1.73c-.21,0-.24-.11-.24-.29s.09-.29.3-.29.29.13.27.32S32,14.07,31.78,14.08Zm0,2.3c-.22,0-.22-.14-.22-.31s.12-.27.32-.27.26.16.25.35S31.93,16.38,31.76,16.38Zm.08-1.15c-.17,0-.31,0-.3-.24s0-.34.25-.34.35,0,.32.27S32.07,15.24,31.84,15.23Zm-.09-8.68c.16,0,.35,0,.36.28,0,.42,0,.83,0,1.25,0,.2-.09.27-.28.26s-.29,0-.29-.24,0-.46,0-.69,0-.38,0-.56S31.49,6.51,31.75,6.55Zm.11,2.37c.2,0,.25.09.25.27s0,.33-.28.3-.29-.1-.3-.3S31.67,8.92,31.86,8.92Zm-1.2,2.29c.19,0,.34,0,.3.27s0,.32-.26.31-.32,0-.31-.27S30.42,11.2,30.66,11.21Zm-.27-.85c0-.16,0-.3.24-.29s.35,0,.34.24,0,.37-.25.32S30.38,10.6,30.39,10.36Zm.27,2c.2,0,.32,0,.31.26s0,.32-.27.31-.32,0-.31-.26S30.41,12.33,30.66,12.36Zm0-5.94c.2,0,.28.07.27.27s0,.45,0,.68,0,.46,0,.68-.1.3-.31.29-.27-.08-.26-.27c0-.46,0-.91,0-1.37C30.39,6.46,30.49,6.42,30.7,6.42Zm0,2.5c.18,0,.34,0,.31.26s0,.32-.26.32-.32,0-.32-.27S30.42,8.91,30.66,8.92Zm0,4.58c.21,0,.3.09.28.3s-.08.28-.29.28-.29-.07-.29-.29S30.47,13.5,30.69,13.5Zm-.06,1.72c-.26,0-.23-.16-.24-.33s.17-.23.34-.24.24.17.24.36S30.79,15.22,30.63,15.22Zm0,.59c.21,0,.31,0,.31.27s0,.31-.27.31-.32,0-.31-.28S30.43,15.78,30.66,15.81Zm0,1.14c.22,0,.29.1.27.3s-.11.28-.3.28-.28-.1-.28-.3S30.49,17,30.7,17Zm0,1.18c.21,0,.31.05.3.28s0,.31-.28.3-.3-.06-.3-.28S30.44,18.1,30.67,18.13Zm0,2.9c-.2,0-.33,0-.32-.28s0-.33.27-.31.36,0,.3.24S31,21,30.71,21Zm0-1.18c-.22,0-.3-.07-.3-.28s.07-.3.29-.29.3.06.29.28S30.91,19.88,30.69,19.85Zm-.3,3.07a8.85,8.85,0,0,0,0-1c0-.21.06-.3.29-.3s.29.09.29.3a6.86,6.86,0,0,0,.06,1.5C30.58,23.58,30.33,23.49,30.39,22.92Zm-.9-7.69c-.21,0-.24-.12-.24-.29s.07-.3.3-.29.29.11.27.3S29.67,15.22,29.49,15.23Zm0,.58c.27,0,.3.12.3.31s-.15.26-.33.26-.24-.12-.24-.29S29.31,15.76,29.52,15.81Zm0,1.14c.19,0,.34,0,.32.27s-.05.32-.28.32-.3,0-.29-.25S29.24,17,29.5,17Zm0-2.87c-.25,0-.27-.11-.27-.31s.07-.27.27-.27.3.07.3.29S29.74,14.1,29.52,14.08Zm0-1.15c-.17,0-.29,0-.28-.24s0-.35.25-.34.36,0,.31.26S29.75,12.94,29.53,12.93Zm.28-1.45c0,.26-.08.3-.29.31s-.27-.13-.27-.32.08-.26.27-.26S29.87,11.25,29.81,11.48Zm-.2-5c.24,0,.2.17.21.31,0,.39,0,.79,0,1.18,0,.23-.05.35-.31.35s-.26-.16-.26-.34V7.45c0-.21,0-.41,0-.62S29.4,6.53,29.61,6.51Zm-.07,2.42c.27,0,.28.12.28.31s-.16.25-.34.26-.22-.15-.23-.31S29.35,8.89,29.54,8.93Zm0,1.14c.19,0,.34,0,.31.27s-.07.3-.29.3-.28-.1-.28-.31S29.31,10.06,29.51,10.07Zm0,8.06c.21,0,.31.07.31.29s-.1.31-.31.29-.27-.13-.27-.32S29.33,18.13,29.52,18.13Zm-1.17,1.73c-.25,0-.25-.16-.25-.34s.12-.24.29-.24.31.09.28.3S28.55,19.86,28.35,19.86Zm0-1.14c-.23,0-.3-.11-.28-.32s.11-.28.31-.27.27.08.27.27S28.6,18.71,28.38,18.72Zm0-4.64c-.2,0-.25-.09-.25-.27s.06-.31.29-.31.31.1.28.31S28.54,14.07,28.35,14.08Zm0,2.31c-.17,0-.3,0-.29-.24s0-.35.25-.35.34,0,.32.28S28.62,16.39,28.39,16.39Zm0-3.46c-.19,0-.28,0-.27-.26s0-.35.27-.31.31.06.31.28S28.58,12.93,28.37,12.93Zm0-1.14c-.25,0-.25-.13-.26-.32s.12-.26.31-.26.28.12.26.31S28.54,11.78,28.36,11.79Zm0-1.15c-.25,0-.27-.13-.27-.32s.09-.25.27-.25.34,0,.3.28S28.57,10.64,28.37,10.64Zm0-1.14c-.22,0-.3-.09-.29-.3s0-.29.25-.28.35,0,.32.26S28.62,9.5,28.39,9.5Zm-.82-2.09c-.14.39.19.75-.26.92-.11,0-.29.07-.34-.11C26.88,7.8,27.19,7.67,27.57,7.41Zm-.37,5.52c-.2,0-.25-.1-.25-.28s.06-.3.29-.3.31.1.28.31S27.39,12.92,27.2,12.93Zm0,.58c.25,0,.32.08.32.3s-.12.27-.32.27S27,14,27,13.81,27,13.46,27.21,13.51Zm0-4.59c.21,0,.33.06.3.29s-.11.28-.31.29S27,9.36,27,9.17,27.05,8.92,27.23,8.92Zm0,1.15c.18,0,.35,0,.34.25s0,.34-.28.32-.31-.07-.3-.29S27,10.06,27.19,10.07Zm0,1.15c.21,0,.29.07.29.28s-.08.29-.29.29S27,11.71,27,11.5,27,11.18,27.24,11.22Zm-1.13,4c-.21,0-.33-.05-.31-.28s0-.29.25-.29.33.07.32.3S26.3,15.22,26.11,15.22Zm.26.91c0,.21-.12.25-.3.25s-.27-.05-.27-.26.05-.32.28-.31S26.37,15.92,26.37,16.13Zm-.32.83c.2,0,.33.05.32.28s-.06.28-.26.29-.32,0-.31-.28S25.84,17,26.05,17Zm.32,1.4c0,.2,0,.35-.27.34s-.3,0-.3-.23,0-.35.26-.34S26.36,18.15,26.37,18.36Zm-.28.92c.19,0,.28.07.28.27s-.09.32-.31.3-.25-.09-.26-.27S25.87,19.27,26.09,19.28Zm0-5.2c-.18,0-.29,0-.29-.25s0-.33.27-.33.33.05.31.29S26.29,14.09,26.08,14.08Zm0-1.15c-.2,0-.27-.07-.27-.27s0-.34.28-.3.31.07.31.29S26.26,12.93,26.06,12.93Zm.21-4c.14,0,.1.18.1.28,0,.38-.3.23-.54.22C26,9.25,25.94,8.94,26.27,9Zm-.21,1.11c.2,0,.34,0,.31.27s-.08.3-.29.3-.29-.1-.29-.31S25.87,10.06,26.06,10.07Zm0,1.14c.22,0,.3.08.3.29s-.09.29-.3.29-.29-.08-.29-.29S25.86,11.18,26.08,11.21ZM26.31,21c-.31.08-.3-.26-.53-.49.28,0,.5-.17.59.13C26.4,20.73,26.44,20.94,26.31,21Zm.92-6.33c.22,0,.32.09.3.31s-.11.28-.31.28S27,15.16,27,15,27,14.64,27.23,14.64Zm.29,2.64c0,.28-.19.24-.36.24s-.2-.18-.2-.32.12-.25.29-.24S27.54,17.1,27.52,17.28Zm0,1.13c0,.22-.11.29-.32.3s-.25-.16-.25-.34.13-.24.29-.23S27.53,18.21,27.53,18.41Zm-.35-2c-.23,0-.22-.16-.22-.31s.09-.27.27-.26.32.1.29.31S27.35,16.37,27.18,16.38Zm.07,2.9c.19,0,.28.07.28.27s-.1.32-.32.3-.25-.1-.26-.27S27,19.27,27.25,19.28Zm0,1.15c.23,0,.27.12.27.32s-.11.29-.32.27S27,20.9,27,20.71,27.06,20.43,27.26,20.43ZM27,21.71c.05-.21.29-.15.38-.1.35.16.11.48.22.89C27.2,22.21,26.88,22.09,27,21.71Zm1.7-14.9c0,.44,0,.84,0,1.23,0,.21-.08.3-.3.31s-.31-.12-.28-.32C28.19,7.6,27.79,7,28.67,6.81Zm-.27,7.83c.23,0,.29.13.27.33s-.15.25-.33.26-.24-.11-.24-.29S28.18,14.64,28.4,14.64Zm0,2.31c.2,0,.33.07.3.3s-.09.29-.3.29-.28-.07-.27-.27S28.12,16.94,28.37,17Zm0,3.48c.23,0,.29.1.29.31s-.09.31-.31.28-.27-.1-.27-.3S28.18,20.43,28.39,20.43ZM28.56,23a.39.39,0,0,1-.45-.34c0-.26,0-.53,0-.79s0-.32.27-.32.32.12.3.35v.45a1.31,1.31,0,0,1,0,.28C28.64,22.8,28.77,23,28.56,23Zm1-3.76c.2,0,.32,0,.32.28s-.08.32-.31.3-.27-.12-.27-.31S29.32,19.28,29.51,19.28Zm0,1.16c.22,0,.29.07.29.29s-.07.29-.29.3-.28-.09-.28-.3S29.3,20.41,29.53,20.44Zm-.28,2.63c0-.41,0-.83,0-1.24,0-.21.12-.24.29-.24s.29.05.28.25,0,.46,0,.68a5.42,5.42,0,0,1,0,.57c0,.13.07.34-.19.3S29.24,23.35,29.25,23.07Zm-8.69.84a2,2,0,0,1,2.42,0,10.55,10.55,0,0,1,2.18,1.81.69.69,0,0,1,.18.68c-.15.62-.3,1.25-.41,1.88a.5.5,0,0,1-.41.47,7.13,7.13,0,0,1-2.59.72c-.89-.12-1.59-1-2.39-1.58a.55.55,0,0,1-.25-.52c0-.4,0-.8,0-1.39C19,25,19.61,24.48,20.56,23.91Zm-7.27,1a11.23,11.23,0,0,1,2.3-1.44.77.77,0,0,1,.8.05,3.37,3.37,0,0,0,.68.4c1.07.42,1.67,1.07,1.26,2.28.38,1.17-.3,1.74-1.12,2.41a2.79,2.79,0,0,1-3.12.51,2.18,2.18,0,0,1-1.61-1.77A2.12,2.12,0,0,1,13.29,24.93ZM8.21,21.78a1,1,0,0,1,1.18.29A10,10,0,0,1,11,24.89,27.07,27.07,0,0,0,5.57,23.3,8,8,0,0,1,8.21,21.78ZM4.5,39.44a1,1,0,0,1-1.13-.31,7.43,7.43,0,0,1-1.5-2.72A25.46,25.46,0,0,0,7.24,37.9,7.84,7.84,0,0,1,4.5,39.44Zm5.42-4.66a13.33,13.33,0,0,1-1.53,2,.62.62,0,0,1-.59.25,23.88,23.88,0,0,1-5.9-1.65.73.73,0,0,1-.49-.62,11.37,11.37,0,0,1-.25-2.24,11.54,11.54,0,0,1,3.25-8.21.64.64,0,0,1,.65-.24,25.52,25.52,0,0,1,5.66,1.66c.4.17.39.3.19.65a9.15,9.15,0,0,0-.9,7.5A.91.91,0,0,1,9.92,34.78ZM13.16,36a2,2,0,0,1-2.05-1.62,9.21,9.21,0,0,1-.59-2.61c-.08-.27.06-.5.33-.7a2.32,2.32,0,0,0,.46-.42c.78-1.07,1.69-1,2.85-.62a2.51,2.51,0,0,1,1.94,1.94c.36,1.45.44,1.43-.44,2.64l-.3.41C14.55,36.12,14.55,36,13.16,36ZM21.78,38a2.19,2.19,0,0,1-2.13,1.46,10.28,10.28,0,0,1-2.82-.22.65.65,0,0,1-.53-.45,4.13,4.13,0,0,0-.42-.93,1.68,1.68,0,0,1,.28-2.47.72.72,0,0,0,.17-.22c.54-1,1.26-1.65,2.52-1.21,1.31-.5,1.87.39,2.58,1.27A2.31,2.31,0,0,1,21.78,38Zm3.27-2.53c0,.26-.07.38-.34.4-.47,0-.95.1-1.37.15-.26.05-.35-.11-.45-.24l-1.58-2.17a.54.54,0,0,1-.09-.57c.26-.73.5-1.47.72-2.21a.61.61,0,0,1,.45-.45l2.43-.79a.5.5,0,0,1,.56.13c.5.47,1,.93,1.52,1.37.34.29.37.53,0,.82A4.52,4.52,0,0,0,25.05,35.5Zm8.25,1c0,.16,0,.35-.31.29a.48.48,0,0,0-.32.09c-.18.12-.46.17-.37.49.05.17.18.18.63.09a3.72,3.72,0,0,1-6.43.12c.17-.1.43,0,.47-.23a.39.39,0,0,0-.35-.45c-.65-.13-.65-.62-.67-1.1a3.61,3.61,0,0,1,.77-2.39c.17-.23.3-.54.71-.38.16.06.27-.12.33-.25.26-.59.79-.69,1.34-.8a3.79,3.79,0,0,1,1.74.14.74.74,0,0,1,.53.45c.11.25.25.66.71.38.13-.08.21.06.28.13A3.69,3.69,0,0,1,33.3,36.47Zm10,.62c.37,0,.45.13.43.46a11.37,11.37,0,0,0,0,1.43c0,.37-.13.43-.46.43H38.62c-1.54,0-3.08,0-4.62,0-.37,0-.46-.1-.49-.47A3.39,3.39,0,0,1,34,37.28c.09-.22.27-.18.43-.18C37.39,37.1,40.35,37.11,43.32,37.09ZM42.1,35.43c.27,0,.47,0,.48.37s-.23.4-.51.4H38.36c-1.19,0-2.39,0-3.59,0-.21,0-.5.12-.49-.32s.13-.44.47-.44ZM37.69,33v-.51c0-.91,0-.89.93-.94.33,0,.42.07.41.4,0,.7,0,1.4,0,2.1,0,.39-.14.52-.5.48a1.7,1.7,0,0,0-.45,0c-.29,0-.42-.08-.4-.39S37.69,33.42,37.69,33Zm4.23-5.4a3.56,3.56,0,0,1-3.74,3.06,3.6,3.6,0,0,1-3.45-3.44c0-1.84,0-3.68,0-5.53,0-.32.12-.37.4-.37h6.51c.21,0,.42,0,.41.3A59.41,59.41,0,0,1,41.92,27.64Zm1.52-.46c-.36.17-.56.17-.53-.32a1,1,0,0,1,.33-.84,1,1,0,0,0-.05-1.54c-.41-.33-.25-.72-.26-1.09s.22-.12.33-.09a2.17,2.17,0,0,1,1.41,2.22A2.06,2.06,0,0,1,43.44,27.18Z"/></svg>