<svg id="Layer_1" data-name="Layer 1" xmlns="http://www.w3.org/2000/svg" viewBox="0 0 23 23"><defs><style>.cls-1{fill:#fff;}.cls-2{fill:#2b95ad;}</style></defs><title>icon</title><path class="cls-1" d="M3.66,13.92C3.82,13,3.82,13,2.9,13H2.27A1.89,1.89,0,0,1,.38,11.13c0-.82,0-1.64,0-2.46a1.9,1.9,0,0,1,2-2c1.6,0,3.2-.06,4.8,0,4.27.19,7.9-1.4,11.21-3.92l.59-.46A1.23,1.23,0,0,1,21,3a3.48,3.48,0,0,1,.1.91c0,1.27,0,2.55,0,3.82,0,.31,0,.5.41.6A1.52,1.52,0,0,1,22.64,9.9a1.54,1.54,0,0,1-1.2,1.47c-.33.08-.38.22-.38.5,0,1.37,0,2.74,0,4.11a1.74,1.74,0,0,1-.76,1.57.91.91,0,0,1-1.23,0A21.81,21.81,0,0,0,14,14.3a16.65,16.65,0,0,0-4-1.18A1.66,1.66,0,0,0,8.17,14a1.75,1.75,0,0,0-.08,2c.12.2.24.35.11.61a1.68,1.68,0,0,0,.32,1.91,5.3,5.3,0,0,0,1,1c.37.24.29.46,0,.72a2.55,2.55,0,0,1-1.14.62,4.75,4.75,0,0,1-2.09.12,2,2,0,0,1-1.91-1.63c-.22-1-.66-1.9-.8-2.9C3.69,15.58,3.67,14.75,3.66,13.92Z"/><path class="cls-2" d="M7.17,21.12a5.79,5.79,0,0,1-.82-.07,2.13,2.13,0,0,1-2-1.71c-.09-.4-.22-.81-.35-1.2a9.65,9.65,0,0,1-.45-1.72c0-.73,0-1.45,0-2.15v-.36h0c.06-.38.11-.63.05-.7s-.32-.08-.7-.08H2.27a2,2,0,0,1-2-2c0-.85,0-1.71,0-2.46a2,2,0,0,1,2.07-2.1h.88c1.29,0,2.62,0,3.92,0,3.83.16,7.47-1.11,11.15-3.9l.44-.35.14-.11A1.34,1.34,0,0,1,21.07,3a3.35,3.35,0,0,1,.1.93c0,1.22,0,2.51,0,3.82,0,.3,0,.41.33.49A1.62,1.62,0,0,1,22.75,9.9a1.64,1.64,0,0,1-1.29,1.58c-.25.06-.29.14-.29.39,0,.86,0,1.71,0,2.56V16a1.82,1.82,0,0,1-.82,1.66A1,1,0,0,1,19,17.59a21.77,21.77,0,0,0-5.07-3.18,16.34,16.34,0,0,0-4-1.18,1.56,1.56,0,0,0-1.66.83,1.66,1.66,0,0,0-.07,1.87l0,0a.63.63,0,0,1,.09.67,1.57,1.57,0,0,0,.3,1.79,4.8,4.8,0,0,0,1,.95.57.57,0,0,1,.3.41.66.66,0,0,1-.24.49,2.73,2.73,0,0,1-1.18.65A4.9,4.9,0,0,1,7.17,21.12Zm-3.4-7.19v.34c0,.7,0,1.43,0,2.14a9.68,9.68,0,0,0,.44,1.66c.13.4.27.81.36,1.22a1.89,1.89,0,0,0,1.82,1.54,4.64,4.64,0,0,0,2-.12,2.33,2.33,0,0,0,1.09-.59c.13-.13.19-.23.18-.31s-.07-.15-.2-.24a5.06,5.06,0,0,1-1.06-1,1.78,1.78,0,0,1-.33-2c.09-.19,0-.29-.07-.46L8,16a1.88,1.88,0,0,1,.07-2.1A1.78,1.78,0,0,1,10,13,16.56,16.56,0,0,1,14,14.2a21.9,21.9,0,0,1,5.12,3.22.81.81,0,0,0,1.1,0A1.63,1.63,0,0,0,21,16V11.87a.52.52,0,0,1,.46-.61,1.46,1.46,0,0,0,0-2.82c-.47-.11-.5-.37-.5-.7,0-1.31,0-2.6,0-3.82A3.87,3.87,0,0,0,20.86,3a1.26,1.26,0,0,0-.76-.88A1.17,1.17,0,0,0,19,2.4l-.14.11-.45.35C14.7,5.68,11,7,7.12,6.8c-1.3,0-2.62,0-3.9,0H2.33A1.76,1.76,0,0,0,.49,8.68c0,.74,0,1.6,0,2.45a1.78,1.78,0,0,0,1.79,1.76H2.9c.51,0,.74,0,.87.15S3.86,13.43,3.77,13.93Z"/></svg>