<svg id="Layer_1" data-name="Layer 1" xmlns="http://www.w3.org/2000/svg" viewBox="0 0 46 46"><defs><style>.cls-1{fill:#fff;}.cls-2{fill:#2b95ad;}</style></defs><title>icon</title><path class="cls-1" d="M7.15,27.89c.31-1.84.31-1.84-1.54-1.84H4.34a3.82,3.82,0,0,1-3.83-3.8c0-1.65,0-3.31,0-5a3.83,3.83,0,0,1,4-4c3.23,0,6.47-.13,9.7,0,8.63.38,16-2.84,22.68-7.93.4-.3.79-.61,1.18-.92a2.49,2.49,0,0,1,4.12,1.42,7,7,0,0,1,.19,1.83q0,3.86,0,7.73c0,.63.06,1,.84,1.2a3.17,3.17,0,0,1-.08,6.14c-.66.16-.76.44-.76,1,0,2.77,0,5.55,0,8.32a3.49,3.49,0,0,1-1.54,3.16,1.85,1.85,0,0,1-2.5-.08A43.61,43.61,0,0,0,28,28.67a33.24,33.24,0,0,0-8.16-2.39,3.36,3.36,0,0,0-3.58,1.77,3.58,3.58,0,0,0-.15,4c.25.4.48.69.22,1.23A3.39,3.39,0,0,0,17,37.15a10.32,10.32,0,0,0,2.09,2c.74.5.59.95.08,1.46a5.16,5.16,0,0,1-2.3,1.26,9.74,9.74,0,0,1-4.23.24c-1.95-.31-3.38-1.1-3.87-3.29-.44-2-1.34-3.84-1.61-5.87C7.2,31.25,7.17,29.57,7.15,27.89Z"/><path class="cls-2" d="M14.24,42.44a10.5,10.5,0,0,1-1.66-.13c-1.59-.25-3.48-.87-4.06-3.46-.19-.81-.45-1.63-.71-2.42A19,19,0,0,1,6.9,33c.07-1.48,0-2.94,0-4.35v-.76c.13-.77.22-1.27.09-1.42s-.63-.15-1.4-.15H4.34a4,4,0,0,1-4.06-4c-.05-1.72,0-3.47,0-5A4.06,4.06,0,0,1,4.46,13l1.78,0c2.6,0,5.29-.08,7.93,0,7.74.34,15.11-2.24,22.53-7.88l.9-.7.28-.22a2.79,2.79,0,0,1,2.65-.55,2.89,2.89,0,0,1,1.83,2.09,7.39,7.39,0,0,1,.2,1.88c0,2.48,0,5.08,0,7.74,0,.61,0,.83.66,1a3.29,3.29,0,0,1,2.53,3.38A3.37,3.37,0,0,1,43.14,23c-.51.12-.58.27-.58.78,0,1.73,0,3.45,0,5.18v3.14a3.72,3.72,0,0,1-1.64,3.36,2.06,2.06,0,0,1-2.77-.11,44.19,44.19,0,0,0-10.25-6.44,32.28,32.28,0,0,0-8.11-2.37,3.13,3.13,0,0,0-3.35,1.66A3.34,3.34,0,0,0,16.31,32l.06.1a1.22,1.22,0,0,1,.17,1.35A3.18,3.18,0,0,0,17.15,37a9.91,9.91,0,0,0,2,1.93,1.14,1.14,0,0,1,.6.82,1.31,1.31,0,0,1-.49,1,5.43,5.43,0,0,1-2.4,1.32A9.39,9.39,0,0,1,14.24,42.44ZM7.38,27.91v.69c0,1.42,0,2.89,0,4.34a19.25,19.25,0,0,0,.88,3.35A24.9,24.9,0,0,1,9,38.75c.42,1.84,1.52,2.77,3.69,3.11a9.36,9.36,0,0,0,4.13-.23,4.93,4.93,0,0,0,2.2-1.2c.26-.26.38-.47.36-.62s-.15-.32-.41-.49a10.31,10.31,0,0,1-2.13-2,3.6,3.6,0,0,1-.67-4.1c.18-.38.06-.57-.15-.91l-.06-.1a3.81,3.81,0,0,1,.15-4.26,3.58,3.58,0,0,1,3.81-1.87,32.66,32.66,0,0,1,8.21,2.4A44.39,44.39,0,0,1,38.45,35a1.62,1.62,0,0,0,2.22.07,3.26,3.26,0,0,0,1.44-3V28.93c0-1.73,0-3.45,0-5.17A1,1,0,0,1,43,22.52a2.89,2.89,0,0,0,2.25-2.76,2.84,2.84,0,0,0-2.17-2.94c-.95-.23-1-.75-1-1.42,0-2.66,0-5.26,0-7.73a7.29,7.29,0,0,0-.18-1.77,2.46,2.46,0,0,0-1.54-1.78,2.35,2.35,0,0,0-2.22.48l-.28.22-.9.7c-7.52,5.71-15,8.32-22.83,8-2.63-.11-5.31-.07-7.9,0l-1.79,0a3.58,3.58,0,0,0-3.73,3.8c0,1.5,0,3.25,0,4.95a3.61,3.61,0,0,0,3.62,3.58H5.61c1,0,1.49,0,1.75.31S7.55,26.9,7.38,27.91Z"/></svg>