<svg xmlns="http://www.w3.org/2000/svg" xmlns:xlink="http://www.w3.org/1999/xlink" viewBox="0 0 25 25"><defs><style>.a{fill:url(#a);}.b{fill:url(#b);}.c{fill:url(#c);}.d{fill:url(#d);}.e,.g,.i{opacity:0.3;}.e{fill:url(#e);}.f{fill:url(#f);}.g{fill:url(#g);}.h{fill:url(#h);}.i{fill:url(#i);}.j{fill:url(#j);}</style><linearGradient id="a" y1="12.5" x2="25" y2="12.5" gradientUnits="userSpaceOnUse"><stop offset="0" stop-color="#5080b1"/><stop offset="0.12" stop-color="#477dae"/><stop offset="0.31" stop-color="#2d73a7"/><stop offset="0.56" stop-color="#04649c"/><stop offset="0.58" stop-color="#00639b"/><stop offset="1" stop-color="#004e8c"/></linearGradient><linearGradient id="b" x1="0.69" y1="19.84" x2="5.43" y2="18.67" gradientUnits="userSpaceOnUse"><stop offset="0" stop-color="#8fccd5"/><stop offset="0.5" stop-color="#5bbac7"/><stop offset="1" stop-color="#00aab9"/></linearGradient><linearGradient id="c" x1="24.34" y1="19.83" x2="21.77" y2="18.97" xlink:href="#b"/><linearGradient id="d" x1="1.49" y1="12.5" x2="23.35" y2="12.5" gradientUnits="userSpaceOnUse"><stop offset="0" stop-color="#b1dae0"/><stop offset="0.5" stop-color="#82c7d1"/><stop offset="0.62" stop-color="#75c3ce"/><stop offset="0.84" stop-color="#62bcc9"/><stop offset="1" stop-color="#5bbac7"/></linearGradient><linearGradient id="e" x1="-635.52" y1="-830.73" x2="-639.1" y2="-827.15" gradientTransform="translate(-810.87 643.99) rotate(90)" gradientUnits="userSpaceOnUse"><stop offset="0" stop-color="#77b2c6"/><stop offset="0.5" stop-color="#349ab4"/><stop offset="1" stop-color="#0089a6"/></linearGradient><linearGradient id="f" x1="21.9" y1="2.94" x2="17.41" y2="7.43" xlink:href="#d"/><linearGradient id="g" x1="-93.36" y1="-180.23" x2="-91.13" y2="-178" gradientTransform="translate(-172.73 100.64) rotate(90)" xlink:href="#e"/><linearGradient id="h" x1="4.66" y1="6.94" x2="6.71" y2="9" gradientUnits="userSpaceOnUse"><stop offset="0" stop-color="#d0e7ea"/><stop offset="0.5" stop-color="#a9d7de"/><stop offset="0.73" stop-color="#9fd2da"/><stop offset="1" stop-color="#98cfd8"/></linearGradient><linearGradient id="i" x1="17.86" y1="21.12" x2="20.1" y2="21.12" gradientTransform="matrix(1, 0, 0, 1, 0, 0)" xlink:href="#e"/><linearGradient id="j" x1="19.1" y1="20.98" x2="17.07" y2="23.01" xlink:href="#b"/></defs><title>Menu</title><path class="a" d="M12.42,23.89A11.24,11.24,0,0,1,6.3,22.1,3.84,3.84,0,0,1,3.9,23,3.91,3.91,0,0,1,0,19.05,3.83,3.83,0,0,1,1.61,16,11.12,11.12,0,0,1,1,12.5,11.4,11.4,0,0,1,12.42,1.11a11.12,11.12,0,0,1,4.53,1,4.12,4.12,0,0,1,5.84,5.77,11.26,11.26,0,0,1,1,4.65,11,11,0,0,1-.34,2.6,4.6,4.6,0,0,1-3.09,8,4.2,4.2,0,0,1-.69-.06,2,2,0,0,1-3,0A11.31,11.31,0,0,1,12.42,23.89Zm-6.21-3,.31.21a10.42,10.42,0,0,0,10.14.91l.43-.18.18.42a1,1,0,0,0,1.79,0l.17-.33.35.08a3.38,3.38,0,0,0,.81.1,3.67,3.67,0,0,0,2.28-6.55l-.24-.19.08-.29a10.37,10.37,0,0,0,.38-2.65A10.33,10.33,0,0,0,21.82,8l-.14-.29.22-.24a3.14,3.14,0,0,0,.91-2.21A3.2,3.2,0,0,0,17.36,3l-.23.23L16.84,3a10.37,10.37,0,0,0-4.42-1A10.49,10.49,0,0,0,2,12.5,10.17,10.17,0,0,0,2.6,16l.13.36-.33.19a2.94,2.94,0,0,0-1.47,2.5,3,3,0,0,0,5,2.14Z"/><circle class="b" cx="3.9" cy="19.05" r="3.43"/><circle class="c" cx="20.39" cy="18.5" r="4.14"/><circle class="d" cx="12.42" cy="12.5" r="10.93"/><ellipse class="e" cx="18.03" cy="6.64" rx="2.95" ry="2.91" transform="translate(4.14 19.91) rotate(-63.91)"/><circle class="f" cx="19.6" cy="5.24" r="3.67"/><ellipse class="g" cx="6.31" cy="8.47" rx="1.59" ry="1.84" transform="translate(-2.7 13.99) rotate(-84.82)"/><circle class="h" cx="5.75" cy="8.04" r="1.58"/><circle class="i" cx="18.87" cy="21.12" r="1.14"/><circle class="j" cx="18.18" cy="21.89" r="1.46"/></svg>