<svg xmlns="http://www.w3.org/2000/svg" xmlns:xlink="http://www.w3.org/1999/xlink" viewBox="0 0 50 50"><defs><style>.a{fill:url(#a);}.b{fill:url(#b);}.c{fill:url(#c);}.d{fill:url(#d);}.e{fill:url(#e);}.f{fill:url(#f);}.g{fill:url(#g);}.h{fill:url(#h);}.i{fill:url(#i);}.j{fill:url(#j);}.k{fill:url(#k);}.l{fill:url(#l);}</style><linearGradient id="a" x1="0.55" y1="32.1" x2="47.02" y2="32.1" gradientUnits="userSpaceOnUse"><stop offset="0" stop-color="#8fccd5"/><stop offset="0.5" stop-color="#5bbac7"/><stop offset="1" stop-color="#00aab9"/></linearGradient><linearGradient id="b" x1="49.8" y1="21.85" x2="46.22" y2="25.52" xlink:href="#a"/><linearGradient id="c" x1="48.19" y1="15.75" x2="46.85" y2="17.13" xlink:href="#a"/><linearGradient id="d" x1="14.84" y1="4.82" x2="13.55" y2="6.15" xlink:href="#a"/><linearGradient id="e" x1="-410.93" y1="1604.21" x2="-414.07" y2="1607.43" gradientTransform="translate(420.93 -1597.3)" xlink:href="#a"/><linearGradient id="f" x1="24.04" y1="0.65" x2="23.7" y2="3.57" xlink:href="#a"/><linearGradient id="g" y1="32.1" x2="47.57" y2="32.1" gradientUnits="userSpaceOnUse"><stop offset="0" stop-color="#5080b1"/><stop offset="0.12" stop-color="#477dae"/><stop offset="0.31" stop-color="#2d73a7"/><stop offset="0.56" stop-color="#04649c"/><stop offset="0.58" stop-color="#00639b"/><stop offset="1" stop-color="#004e8c"/></linearGradient><linearGradient id="h" x1="45.01" y1="23.92" x2="50" y2="23.92" xlink:href="#g"/><linearGradient id="i" x1="45.59" y1="16.59" x2="49.16" y2="16.59" xlink:href="#g"/><linearGradient id="j" x1="12.22" y1="5.63" x2="15.89" y2="5.63" xlink:href="#g"/><linearGradient id="k" x1="4.26" y1="8.87" x2="11.92" y2="8.87" xlink:href="#g"/><linearGradient id="l" x1="15.66" y1="2.49" x2="31.83" y2="2.49" xlink:href="#g"/></defs><title>Menu</title><path class="a" d="M8.05,28.71a10,10,0,0,0,1,5.11c1.25,2.39,3.62,4.45,7.6-.55,6.57-8.24,9.25-.35,9.66,2.07s4.19,9.76,9.7,3.39,12.08-12.89,10.82-5.92c-1.33,7.34-12,18.3-26.44,16.23-6.92-1-11.73-5.46-14.86-9.85A26.7,26.7,0,0,1,.71,20.74c.36-3.23,1.28-6,3.45-5.82C8.78,15.39,8.52,20.35,8.05,28.71Z"/><path class="b" d="M47.45,22.34a5.52,5.52,0,0,0-1.3,1.51c-.51,1-.95,2.41-.19,3.43,1.31,1.77,3.13-.83,3.31-1.49s.55-5.08-.89-5.74C47.12,19.48,48.3,21.57,47.45,22.34Z"/><ellipse class="c" cx="47.37" cy="16.59" rx="1.24" ry="1.36"/><ellipse class="d" cx="14.05" cy="5.63" rx="1.29" ry="1.23"/><ellipse class="e" cx="8.08" cy="8.87" rx="3.85" ry="2.01" transform="translate(-3.73 6.75) rotate(-37.49)"/><path class="f" d="M21,2.06s4.27.23,5.84,1.32,3.91,1.08,4.17.5.86-1.72-1.16-2.55S18.49,0,16.37,3c0,0-.92,1.16,1.59.07S20.55,2.09,21,2.06Z"/><path class="g" d="M24,49.84a26.08,26.08,0,0,1-3.6-.26c-5.95-.85-11.08-4.24-15.24-10.07a27.26,27.26,0,0,1-5-18.83c.47-4.19,1.73-6.31,3.75-6.31h.31c5.15.53,4.84,6,4.38,14.36h0a9.35,9.35,0,0,0,1,4.83C10.3,35,11.13,35.7,12,35.79c1.22.07,2.64-.87,4.23-2.86,2.39-3,4.58-4.27,6.52-3.76,2.55.66,3.79,4.27,4.09,6.08.22,1.3,1.7,4.69,4.07,5.36,1.47.42,3.05-.34,4.69-2.24,7.74-8.95,10-9.48,11.06-9s.93,2.26.7,3.51C46.05,40.38,36.51,49.84,24,49.84Zm-20-34.38c-1.73,0-2.42,2.88-2.69,5.34A26.1,26.1,0,0,0,6,38.88c4,5.57,8.86,8.81,14.5,9.62,14.69,2.08,24.62-9.16,25.82-15.78.3-1.66.08-2.25-.1-2.33s-2-.26-9.77,8.69c-1.94,2.25-3.9,3.11-5.8,2.58-2.79-.78-4.57-4.5-4.85-6.23-.21-1.26-1.21-4.67-3.3-5.21-1.45-.39-3.32.79-5.39,3.39-1.85,2.32-3.62,3.41-5.18,3.27-1.31-.13-2.43-1.07-3.33-2.81a10.34,10.34,0,0,1-1.1-5.39c.49-8.87.54-12.81-3.4-13.21Z"/><path class="h" d="M47,28.43a1.82,1.82,0,0,1-1.47-.83c-.73-1-.68-2.36.15-4a5.83,5.83,0,0,1,1.41-1.66h0c.2-.18.17-.68.14-1.08s-.06-1,.36-1.31a1,1,0,0,1,1,0c2,.9,1.3,5.93,1.18,6.38A4.07,4.07,0,0,1,47.3,28.4,1.55,1.55,0,0,1,47,28.43Zm.82-5.68a4.85,4.85,0,0,0-1.17,1.35c-.44.86-.83,2.06-.24,2.86a.71.71,0,0,0,.7.37c.73-.14,1.55-1.33,1.64-1.68.21-.77.35-4.25-.44-5a.57.57,0,0,1,0,.13,2.3,2.3,0,0,1-.5,2Z"/><path class="i" d="M47.37,18.5a1.91,1.91,0,1,1,1.79-1.91A1.85,1.85,0,0,1,47.37,18.5Zm0-2.73a.83.83,0,1,0,.7.82A.77.77,0,0,0,47.37,15.77Z"/><path class="j" d="M14.05,7.41a1.78,1.78,0,1,1,0-3.56,1.81,1.81,0,0,1,1.84,1.78A1.81,1.81,0,0,1,14.05,7.41Zm0-2.47a.69.69,0,1,0,0,1.38.73.73,0,0,0,.75-.69A.73.73,0,0,0,14.05,4.94Z"/><path class="k" d="M6.26,12.25a2,2,0,0,1-1.66-.71c-.87-1.13,0-3.19,1.93-4.7s4.16-1.79,5-.64h0a1.84,1.84,0,0,1,.33,1.4,5.61,5.61,0,0,1-2.26,3.3A5.87,5.87,0,0,1,6.26,12.25ZM9.92,6.58A5,5,0,0,0,7.19,7.71C5.69,8.86,5,10.33,5.47,10.88s2,.3,3.5-.85a4.55,4.55,0,0,0,1.85-2.57.85.85,0,0,0-.11-.6h0A1,1,0,0,0,9.92,6.58Z"/><path class="l" d="M29.76,4.82a6,6,0,0,1-3.24-1C25.35,3,22.16,2.67,21,2.61h-.08c-.29,0-.52,0-2.73,1-1.18.52-2,.73-2.38.23a.92.92,0,0,1,.14-1.14C18.32-.64,28.05,0,30,.83a2.75,2.75,0,0,1,1.67,1.41A2.21,2.21,0,0,1,31.52,4a1.15,1.15,0,0,1-.82.67A3.35,3.35,0,0,1,29.76,4.82ZM21,1.52c.18,0,4.44.25,6.12,1.41a4.27,4.27,0,0,0,3.4.66,1.33,1.33,0,0,0,.15-.95,1.82,1.82,0,0,0-1.07-.81c-1.25-.51-5.37-.84-8.68-.31Zm-1.18.22a6.77,6.77,0,0,0-2.38,1l.28-.12C18.77,2.14,19.41,1.89,19.84,1.74Z"/></svg>