<svg xmlns="http://www.w3.org/2000/svg" xmlns:xlink="http://www.w3.org/1999/xlink" viewBox="0 0 75 75"><defs><style>.a{fill:url(#a);}.b{fill:url(#b);}.c{fill:url(#c);}.d{fill:url(#d);}.e{fill:url(#e);}.f{fill:url(#f);}.g{fill:url(#g);}.h{fill:url(#h);}.i{fill:url(#i);}.j{fill:url(#j);}.k{fill:url(#k);}.l{fill:url(#l);}</style><linearGradient id="a" x1="0.82" y1="48.15" x2="70.54" y2="48.15" gradientUnits="userSpaceOnUse"><stop offset="0" stop-color="#8fccd5"/><stop offset="0.5" stop-color="#5bbac7"/><stop offset="1" stop-color="#00aab9"/></linearGradient><linearGradient id="b" x1="74.71" y1="32.77" x2="69.34" y2="38.29" xlink:href="#a"/><linearGradient id="c" x1="72.29" y1="23.63" x2="70.27" y2="25.7" xlink:href="#a"/><linearGradient id="d" x1="22.27" y1="7.23" x2="20.32" y2="9.23" xlink:href="#a"/><linearGradient id="e" x1="-358.1" y1="1618.16" x2="-362.8" y2="1622.99" gradientTransform="translate(373.09 -1607.8)" xlink:href="#a"/><linearGradient id="f" x1="36.06" y1="0.97" x2="35.54" y2="5.35" xlink:href="#a"/><linearGradient id="g" y1="48.15" x2="71.35" y2="48.15" gradientUnits="userSpaceOnUse"><stop offset="0" stop-color="#5080b1"/><stop offset="0.12" stop-color="#477dae"/><stop offset="0.31" stop-color="#2d73a7"/><stop offset="0.56" stop-color="#04649c"/><stop offset="0.58" stop-color="#00639b"/><stop offset="1" stop-color="#004e8c"/></linearGradient><linearGradient id="h" x1="67.51" y1="35.88" x2="75" y2="35.88" xlink:href="#g"/><linearGradient id="i" x1="68.38" y1="24.89" x2="73.73" y2="24.89" xlink:href="#g"/><linearGradient id="j" x1="18.33" y1="8.45" x2="23.83" y2="8.45" xlink:href="#g"/><linearGradient id="k" x1="6.38" y1="13.31" x2="17.88" y2="13.31" xlink:href="#g"/><linearGradient id="l" x1="23.49" y1="3.74" x2="47.74" y2="3.74" xlink:href="#g"/></defs><title>Menu</title><path class="a" d="M12.08,43.07a14.71,14.71,0,0,0,1.56,7.66c1.87,3.59,5.42,6.68,11.4-.83C34.9,37.55,38.92,49.37,39.52,53s6.29,14.63,14.56,5.08S72.2,38.76,70.3,49.22c-2,11-18,27.45-39.65,24.34-10.38-1.49-17.6-8.19-22.3-14.77A40.08,40.08,0,0,1,1.06,31.11C1.6,26.26,3,22.05,6.24,22.39,13.17,23.09,12.78,30.52,12.08,43.07Z"/><path class="b" d="M71.17,33.52a7.91,7.91,0,0,0-1.94,2.26c-.77,1.51-1.43,3.61-.29,5.14,2,2.65,4.69-1.24,5-2.24s.84-7.61-1.33-8.6C70.68,29.22,72.45,32.36,71.17,33.52Z"/><ellipse class="c" cx="71.06" cy="24.89" rx="1.86" ry="2.05"/><ellipse class="d" cx="21.08" cy="8.45" rx="1.93" ry="1.85"/><ellipse class="e" cx="12.13" cy="13.31" rx="5.77" ry="3.01" transform="translate(-5.59 10.13) rotate(-37.49)"/><path class="f" d="M31.49,3.09s6.4.34,8.75,2,5.88,1.63,6.26.76S47.78,3.24,44.75,2s-17-1.93-20.2,2.54c0,0-1.38,1.74,2.39.11S30.82,3.13,31.49,3.09Z"/><path class="g" d="M35.94,74.75a38.33,38.33,0,0,1-5.4-.38C21.62,73.09,13.93,68,7.69,59.26A40.78,40.78,0,0,1,.25,31c.7-6.29,2.59-9.47,5.61-9.47l.47,0c7.72.78,7.26,9,6.57,21.53h0a14,14,0,0,0,1.46,7.25c1.09,2.07,2.33,3.19,3.71,3.33,1.82.1,4-1.32,6.33-4.3,3.59-4.5,6.87-6.39,9.79-5.64,3.82,1,5.68,6.41,6.13,9.13.33,1.95,2.55,7,6.1,8,2.21.62,4.58-.52,7-3.37,11.61-13.42,15-14.22,16.59-13.45s1.39,3.39,1,5.27C69.08,60.57,54.76,74.75,35.94,74.75Zm-30-51.57c-2.59,0-3.63,4.33-4,8A39.17,39.17,0,0,0,9,58.31c6,8.37,13.29,13.22,21.75,14.44C52.8,75.87,67.7,59,69.49,49.08c.46-2.49.12-3.37-.14-3.5-.44-.21-3-.39-14.66,13.05C51.78,62,48.84,63.29,46,62.49c-4.18-1.17-6.84-6.76-7.27-9.34-.31-1.9-1.82-7-4.94-7.82-2.18-.58-5,1.19-8.09,5.08-2.78,3.48-5.44,5.12-7.77,4.91-2-.19-3.64-1.61-5-4.21A15.63,15.63,0,0,1,11.26,43c.74-13.31.82-19.22-5.1-19.82Z"/><path class="h" d="M70.48,42.65a2.74,2.74,0,0,1-2.2-1.24c-1.1-1.47-1-3.55.22-6a8.93,8.93,0,0,1,2.12-2.49h0c.3-.27.25-1,.21-1.63s-.08-1.53.53-2a1.55,1.55,0,0,1,1.55,0c3,1.35,2,8.9,1.78,9.56-.26.94-1.84,3.34-3.73,3.7A2.61,2.61,0,0,1,70.48,42.65Zm1.24-8.53a7.43,7.43,0,0,0-1.76,2c-.66,1.3-1.25,3.1-.36,4.3.44.59.78.58,1.06.56,1.09-.21,2.31-2,2.45-2.52.32-1.17.52-6.37-.65-7.5a1.48,1.48,0,0,0,0,.21,3.43,3.43,0,0,1-.75,2.93Z"/><path class="i" d="M71.06,27.75a2.87,2.87,0,1,1,2.67-2.86A2.77,2.77,0,0,1,71.06,27.75Zm0-4.09a1.25,1.25,0,1,0,1,1.23A1.14,1.14,0,0,0,71.06,23.66Z"/><path class="j" d="M21.08,11.11a2.71,2.71,0,0,1-2.75-2.67,2.75,2.75,0,0,1,5.5,0A2.71,2.71,0,0,1,21.08,11.11Zm0-3.69a1.08,1.08,0,0,0-1.12,1,1.12,1.12,0,0,0,2.24,0A1.08,1.08,0,0,0,21.08,7.42Z"/><path class="k" d="M9.39,18.38a3,3,0,0,1-2.5-1.06c-1.3-1.71,0-4.8,2.9-7.06s6.24-2.69,7.56-1h0a2.74,2.74,0,0,1,.5,2.09,8.39,8.39,0,0,1-3.39,5A8.82,8.82,0,0,1,9.39,18.38Zm5.49-8.51a7.32,7.32,0,0,0-4.09,1.7C8.54,13.29,7.57,15.5,8.2,16.32s3,.45,5.26-1.27a6.85,6.85,0,0,0,2.77-3.87,1.17,1.17,0,0,0-.17-.88h0A1.38,1.38,0,0,0,14.88,9.87Z"/><path class="l" d="M44.64,7.22a9,9,0,0,1-4.87-1.48C38,4.52,33.23,4,31.48,3.91h-.12c-.43,0-.78,0-4.1,1.46-1.77.78-3,1.1-3.56.34A1.37,1.37,0,0,1,23.91,4c3.56-5,18.16-4,21.15-2.78a4.15,4.15,0,0,1,2.5,2.12,3.4,3.4,0,0,1-.27,2.69,1.77,1.77,0,0,1-1.24,1A5,5,0,0,1,44.64,7.22ZM31.53,2.27c.27,0,6.67.38,9.18,2.12,2,1.37,4.68,1.32,5.11,1A2.08,2.08,0,0,0,46,4a2.76,2.76,0,0,0-1.6-1.22c-1.89-.78-8.07-1.27-13-.47Zm-1.76.34a10.13,10.13,0,0,0-3.59,1.46l.43-.18C28.16,3.21,29.11,2.83,29.77,2.61Z"/></svg>