<svg xmlns="http://www.w3.org/2000/svg" xmlns:xlink="http://www.w3.org/1999/xlink" viewBox="0 0 25 25"><defs><style>.a{fill:url(#a);}.b{fill:url(#b);}.c{fill:url(#c);}.d{fill:url(#d);}.e{fill:url(#e);}.f{fill:url(#f);}.g{fill:url(#g);}.h{fill:url(#h);}.i{fill:url(#i);}.j{fill:url(#j);}.k{fill:url(#k);}.l{fill:url(#l);}</style><linearGradient id="a" x1="0.27" y1="16.05" x2="23.51" y2="16.05" gradientUnits="userSpaceOnUse"><stop offset="0" stop-color="#8fccd5"/><stop offset="0.5" stop-color="#5bbac7"/><stop offset="1" stop-color="#00aab9"/></linearGradient><linearGradient id="b" x1="24.9" y1="10.92" x2="23.11" y2="12.76" xlink:href="#a"/><linearGradient id="c" x1="24.1" y1="7.88" x2="23.42" y2="8.57" xlink:href="#a"/><linearGradient id="d" x1="7.42" y1="2.41" x2="6.77" y2="3.08" xlink:href="#a"/><linearGradient id="e" x1="-448.48" y1="1595.15" x2="-450.05" y2="1596.76" gradientTransform="translate(453.48 -1591.7)" xlink:href="#a"/><linearGradient id="f" x1="12.02" y1="0.32" x2="11.85" y2="1.78" xlink:href="#a"/><linearGradient id="g" y1="16.05" x2="23.78" y2="16.05" gradientUnits="userSpaceOnUse"><stop offset="0" stop-color="#5080b1"/><stop offset="0.12" stop-color="#477dae"/><stop offset="0.31" stop-color="#2d73a7"/><stop offset="0.56" stop-color="#04649c"/><stop offset="0.58" stop-color="#00639b"/><stop offset="1" stop-color="#004e8c"/></linearGradient><linearGradient id="h" x1="22.5" y1="11.96" x2="25" y2="11.96" xlink:href="#g"/><linearGradient id="i" x1="22.79" y1="8.3" x2="24.58" y2="8.3" xlink:href="#g"/><linearGradient id="j" x1="6.11" y1="2.82" x2="7.94" y2="2.82" xlink:href="#g"/><linearGradient id="k" x1="2.13" y1="4.44" x2="5.96" y2="4.44" xlink:href="#g"/><linearGradient id="l" x1="7.83" y1="1.25" x2="15.91" y2="1.25" xlink:href="#g"/></defs><title>Menu</title><path class="a" d="M4,14.36a4.88,4.88,0,0,0,.52,2.55c.62,1.2,1.8,2.23,3.8-.28,3.28-4.11,4.62-.17,4.82,1s2.1,4.88,4.86,1.69,6-6.44,5.4-2.95c-.66,3.67-6,9.15-13.21,8.11A11.25,11.25,0,0,1,2.78,19.6,13.4,13.4,0,0,1,.35,10.37c.18-1.62.65-3,1.73-2.91C4.39,7.7,4.26,10.17,4,14.36Z"/><path class="b" d="M23.72,11.17a2.73,2.73,0,0,0-.64.76,1.65,1.65,0,0,0-.1,1.71c.66.88,1.56-.41,1.65-.75s.28-2.53-.44-2.86S24.15,10.79,23.72,11.17Z"/><ellipse class="c" cx="23.69" cy="8.3" rx="0.62" ry="0.68"/><ellipse class="d" cx="7.03" cy="2.82" rx="0.64" ry="0.62"/><ellipse class="e" cx="4.04" cy="4.44" rx="1.92" ry="1" transform="translate(-1.86 3.38) rotate(-37.49)"/><path class="f" d="M10.5,1a7.83,7.83,0,0,1,2.91.66c.79.54,2,.54,2.09.25s.43-.86-.58-1.28S9.24,0,8.18,1.51c0,0-.46.58.8,0S10.27,1,10.5,1Z"/><path class="g" d="M12,24.92a12.31,12.31,0,0,1-1.8-.13,11.29,11.29,0,0,1-7.62-5A13.61,13.61,0,0,1,.08,10.34C.32,8.24,1,7.18,2,7.18h.16c2.57.26,2.42,3,2.19,7.18h0a4.66,4.66,0,0,0,.49,2.42q.54,1,1.23,1.11c.61,0,1.32-.44,2.11-1.44,1.2-1.5,2.29-2.13,3.27-1.88,1.27.33,1.89,2.14,2,3,.11.65.85,2.34,2,2.68.74.2,1.53-.18,2.35-1.13,3.87-4.47,5-4.74,5.53-4.48s.46,1.13.35,1.76C23,20.19,18.25,24.92,12,24.92ZM2,7.73C1.11,7.73.76,9.17.62,10.4a13.1,13.1,0,0,0,2.39,9,10.76,10.76,0,0,0,7.25,4.81c7.34,1,12.31-4.58,12.9-7.89.16-.83,0-1.12,0-1.17s-1-.13-4.89,4.35c-1,1.12-1.95,1.56-2.9,1.29-1.4-.39-2.28-2.25-2.43-3.11-.1-.64-.6-2.34-1.64-2.61-.73-.19-1.67.4-2.7,1.69S6.75,18.51,6,18.44A2.24,2.24,0,0,1,4.3,17a5.31,5.31,0,0,1-.55-2.7C4,9.9,4,7.93,2.05,7.73Z"/><path class="h" d="M23.49,14.22a.93.93,0,0,1-.73-.42,1.86,1.86,0,0,1,.07-2,2.93,2.93,0,0,1,.71-.83h0c.1-.09.08-.34.07-.54s0-.51.18-.66a.5.5,0,0,1,.51,0c1,.45.66,3,.6,3.19a2.07,2.07,0,0,1-1.25,1.23Zm.42-2.85a2.46,2.46,0,0,0-.59.68c-.22.43-.42,1-.12,1.43a.36.36,0,0,0,.35.19c.37-.07.77-.67.82-.84.11-.39.17-2.13-.22-2.5a.2.2,0,0,0,0,.07,1.14,1.14,0,0,1-.25,1Z"/><path class="i" d="M23.69,9.25a1,1,0,1,1,.89-.95A.93.93,0,0,1,23.69,9.25Zm0-1.36a.38.38,0,0,0-.35.41.35.35,0,1,0,.69,0A.38.38,0,0,0,23.69,7.89Z"/><path class="j" d="M7,3.7a.91.91,0,0,1-.92-.89.92.92,0,0,1,1.83,0A.9.9,0,0,1,7,3.7ZM7,2.47a.37.37,0,0,0-.38.34.38.38,0,0,0,.75,0A.36.36,0,0,0,7,2.47Z"/><path class="k" d="M3.13,6.13a1,1,0,0,1-.83-.36c-.44-.57,0-1.6,1-2.35s2.08-.9,2.52-.32h0A.89.89,0,0,1,6,3.8,2.78,2.78,0,0,1,4.82,5.45,2.92,2.92,0,0,1,3.13,6.13ZM5,3.29a2.38,2.38,0,0,0-1.36.57c-.75.57-1.08,1.31-.87,1.58s1,.15,1.76-.42a2.27,2.27,0,0,0,.92-1.29.36.36,0,0,0-.06-.3h0A.49.49,0,0,0,5,3.29Z"/><path class="l" d="M14.88,2.41a3,3,0,0,1-1.62-.5,7.69,7.69,0,0,0-2.77-.61h0c-.14,0-.26,0-1.36.48-.59.26-1,.37-1.19.12A.45.45,0,0,1,8,1.34C9.16-.32,14,0,15,.41a1.4,1.4,0,0,1,.83.71,1.1,1.1,0,0,1-.09.9.58.58,0,0,1-.41.33A1.63,1.63,0,0,1,14.88,2.41ZM10.51.76a8,8,0,0,1,3.06.7,2.18,2.18,0,0,0,1.7.34.68.68,0,0,0,.08-.48,1,1,0,0,0-.54-.4A10.87,10.87,0,0,0,10.47.76ZM9.92.87a3.33,3.33,0,0,0-1.19.49l.14-.06C9.39,1.07,9.7.94,9.92.87Z"/></svg>