<svg xmlns="http://www.w3.org/2000/svg" xmlns:xlink="http://www.w3.org/1999/xlink" viewBox="0 0 50 50"><defs><style>.a{fill:url(#a);}.b{fill:url(#b);}.c{fill:url(#c);}.d{fill:url(#d);}.e{fill:#fff;}</style><linearGradient id="a" y1="25" x2="50" y2="25" gradientUnits="userSpaceOnUse"><stop offset="0" stop-color="#5080b1"/><stop offset="0.12" stop-color="#477dae"/><stop offset="0.31" stop-color="#2d73a7"/><stop offset="0.56" stop-color="#04649c"/><stop offset="0.58" stop-color="#00639b"/><stop offset="1" stop-color="#004e8c"/></linearGradient><linearGradient id="b" x1="43.3" y1="27.64" x2="30.62" y2="40.67" gradientUnits="userSpaceOnUse"><stop offset="0" stop-color="#77b2c6"/><stop offset="0.5" stop-color="#349ab4"/><stop offset="1" stop-color="#0089a6"/></linearGradient><linearGradient id="c" x1="2.1" y1="21.4" x2="40.71" y2="21.4" gradientUnits="userSpaceOnUse"><stop offset="0" stop-color="#d0e7ea"/><stop offset="0.5" stop-color="#a9d7de"/><stop offset="0.73" stop-color="#9fd2da"/><stop offset="1" stop-color="#98cfd8"/></linearGradient><linearGradient id="d" x1="12.89" y1="21.42" x2="29.9" y2="21.42" gradientUnits="userSpaceOnUse"><stop offset="0" stop-color="#8fccd5"/><stop offset="0.5" stop-color="#5bbac7"/><stop offset="1" stop-color="#00aab9"/></linearGradient></defs><title>Menu</title><path class="a" d="M34,3.75l5.1,5.1-.86,1.41L36.56,12.9a.32.32,0,0,0,0,.38,15.74,15.74,0,0,1,1.32,3.2.32.32,0,0,0,.26.23l4,.93c.24.05.46.12.71.19v5a.44.44,0,0,0,.23.44,14.23,14.23,0,0,1,6.83,10.48,13.74,13.74,0,0,1-.66,6.54,14.41,14.41,0,0,1-23.14,6.14A13.81,13.81,0,0,1,23.22,43a.36.36,0,0,0-.37-.21H18.58c-.79,0-.78,0-1-.77-.31-1.31-.62-2.63-.94-3.94a.29.29,0,0,0-.19-.2,16.53,16.53,0,0,1-3.19-1.33.39.39,0,0,0-.46,0L9,39l-.11.06L3.74,34l1.79-2.89c.24-.4.49-.79.73-1.2a.36.36,0,0,0,0-.27,17.37,17.37,0,0,1-1.34-3.25.33.33,0,0,0-.28-.25l-4.45-1C.05,25,0,25,0,24.81V18c0-.16.05-.23.21-.26l4.44-1.07a.33.33,0,0,0,.29-.26,15.84,15.84,0,0,1,1.31-3.16.35.35,0,0,0,0-.41L3.83,9a.22.22,0,0,1,0-.33q2.42-2.4,4.82-4.82a.21.21,0,0,1,.31,0l3.87,2.41a.38.38,0,0,0,.43,0A16.42,16.42,0,0,1,16.45,5a.32.32,0,0,0,.25-.27L17.75.22c0-.17.11-.21.27-.21h6.75c.18,0,.25,0,.29.22.34,1.48.7,3,1,4.44a.33.33,0,0,0,.25.28,16.22,16.22,0,0,1,3.2,1.32.32.32,0,0,0,.37,0Z"/><path class="b" d="M35.58,47.92A12.34,12.34,0,1,0,23.23,35.47,12.36,12.36,0,0,0,35.58,47.92Z"/><path class="c" d="M23.36,2.11H19.62c-.15,0-.19.07-.22.2-.3,1.31-.62,2.62-.91,3.94-.06.26-.16.43-.45.45a2.66,2.66,0,0,0-.47.11A15.37,15.37,0,0,0,13.22,8.7a.27.27,0,0,1-.34,0L10.57,7.26,9.16,6.4,6.39,9.17l.09.15C7.22,10.51,8,11.71,8.7,12.9a.26.26,0,0,1,0,.32,15.56,15.56,0,0,0-2.07,5,.28.28,0,0,1-.24.25L4.07,19l-2,.47v3.89l.17.06,4.08,1c.18,0,.26.11.29.28a15.36,15.36,0,0,0,2.07,5,.24.24,0,0,1,0,.3c-.32.5-.63,1-.94,1.51L6.38,33.66l2.77,2.77.21-.13,3.52-2.18a.26.26,0,0,1,.34,0,15.32,15.32,0,0,0,5,2.06.26.26,0,0,1,.23.23c.21.9.43,1.8.64,2.7.12.54.25,1.07.38,1.61h2.64a14.57,14.57,0,0,1-.5-8.71A10.43,10.43,0,0,1,14,29a10.15,10.15,0,0,1-3.22-7.45,10.55,10.55,0,0,1,9-10.61A10,10,0,0,1,27,12.41,10.61,10.61,0,0,1,32,21.6a14.59,14.59,0,0,1,4.36-.42,15.1,15.1,0,0,1,4.32.92V19.47l-.57-.15c-1.25-.29-2.5-.58-3.75-.89a.36.36,0,0,1-.21-.21c-.09-.29-.15-.59-.23-.88a15.92,15.92,0,0,0-1.85-4.15.32.32,0,0,1,0-.27l1.48-2.4c.29-.46.57-.92.83-1.35L33.64,6.4l-.15.09L30,8.69a.32.32,0,0,1-.39,0c-.22-.15-.46-.28-.7-.42a14.94,14.94,0,0,0-4.16-1.6c-.21,0-.32-.13-.35-.35s-.15-.63-.22-.94C23.87,4.3,23.61,3.21,23.36,2.11Z"/><path class="d" d="M21.22,29.94c.28,0,.57,0,.85,0a.36.36,0,0,0,.37-.26A14.11,14.11,0,0,1,25,25.82a14.31,14.31,0,0,1,4.69-3.39c.12-.06.21-.11.22-.27A8.51,8.51,0,0,0,16,14.85a8.33,8.33,0,0,0-2.66,3.82,8.66,8.66,0,0,0-.4,3.54A8.57,8.57,0,0,0,21.22,29.94Z"/><path class="e" d="M36.6,38.33H34.54c0-.07,0-.15,0-.23q0-5.31,0-10.63c0-.21,0-.29.28-.28.59,0,1.19,0,1.8,0Z"/><path class="e" d="M34.55,40.63H36.6V44H34.55Z"/></svg>