<svg id="Layer_1" data-name="Layer 1" xmlns="http://www.w3.org/2000/svg" viewBox="0 0 11.5 11.5"><defs><style>.cls-1{fill:#fff;}.cls-2{fill:#2b95ad;}</style></defs><title>icon</title><path class="cls-1" d="M7.46,1l2.83.93.56.19c.28.09.38.23.33.52C11.11,3.1,11,3.56,11,4c-.11.66-.23,1.33-.33,2a.86.86,0,0,1-.43.66L4.08,10.36l-.2.11a.5.5,0,0,1-.72-.25Q2,8.29.81,6.34l-.4-.66a.51.51,0,0,1,.15-.75l.18-.12L6.83,1.13A.67.67,0,0,1,7.46,1Z"/><path class="cls-2" d="M3.6,10.59a.58.58,0,0,1-.49-.34L1.34,7.33.64,6.17C.55,6,.46,5.86.36,5.71a.55.55,0,0,1,.17-.82.93.93,0,0,1,.18-.12L2.55,3.65,6.8,1.08A.76.76,0,0,1,7.48,1l3,1,.38.13a.45.45,0,0,1,.37.58l-.15.91c0,.16-.06.31-.08.47l-.09.54c-.09.48-.17,1-.24,1.46a.89.89,0,0,1-.46.69L5.76,9.41l-1.65,1-.21.11A.72.72,0,0,1,3.6,10.59ZM7.29,1a1,1,0,0,0-.43.15L2.61,3.75.77,4.86A.93.93,0,0,0,.59,5a.45.45,0,0,0-.13.67l.28.47.7,1.15c.58,1,1.17,2,1.76,2.92.18.29.36.36.65.23l.2-.1,1.65-1,4.46-2.69A.78.78,0,0,0,10.57,6c.07-.49.15-1,.24-1.46L10.9,4c0-.16,0-.31.08-.47l.15-.91c0-.25,0-.38-.3-.46l-.38-.12-3-1A.37.37,0,0,0,7.29,1Z"/><path class="cls-2" d="M8.42,5.52a.26.26,0,0,1-.26.38H7.09L3.74,6H3.63a.26.26,0,0,1,0-.52l.76,0,3.73,0C8.24,5.36,8.36,5.38,8.42,5.52Z"/><path class="cls-2" d="M4.46,7.94a1,1,0,0,1,.4-1.23,1,1,0,0,1,1.25.4,1,1,0,0,1-.4,1.24A1,1,0,0,1,4.46,7.94Z"/><path class="cls-2" d="M7.37,3.39a1,1,0,0,1-.43,1.23A1,1,0,0,1,5.7,4.2,1,1,0,0,1,6.12,3,1,1,0,0,1,7.37,3.39Z"/></svg>