<svg id="Layer_1" data-name="Layer 1" xmlns="http://www.w3.org/2000/svg" viewBox="0 0 23 23"><defs><style>.cls-1{fill:#fff;}.cls-2{fill:#2b95ad;}</style></defs><title>icon</title><path class="cls-1" d="M15,1.79l5.77,1.9,1.15.38a.84.84,0,0,1,.69,1.06c-.15,1-.32,1.89-.48,2.83-.23,1.36-.47,2.72-.67,4.09a1.74,1.74,0,0,1-.88,1.34q-6.27,3.77-12.51,7.55a3.23,3.23,0,0,1-.41.22,1,1,0,0,1-1.48-.51L1.4,12.71c-.28-.45-.55-.9-.82-1.36a1,1,0,0,1,.3-1.52l.37-.25L13.72,2A1.38,1.38,0,0,1,15,1.79Z"/><path class="cls-2" d="M7.11,21.4a1.16,1.16,0,0,1-1-.69l-3.62-6L1.06,12.37c-.2-.32-.39-.64-.58-1A1.13,1.13,0,0,1,.81,9.74a3.59,3.59,0,0,1,.38-.25L5,7.21,13.66,2a1.5,1.5,0,0,1,1.39-.27l6.14,2L22,4a1,1,0,0,1,.76,1.19c-.1.63-.21,1.25-.32,1.88-.05.31-.1.63-.16,1s-.12.74-.19,1.11c-.16,1-.33,2-.48,3a1.87,1.87,0,0,1-.93,1.42L11.52,19,8.14,21a2.5,2.5,0,0,1-.43.23A1.44,1.44,0,0,1,7.11,21.4ZM14.65,1.82a1.9,1.9,0,0,0-.88.32Q9.44,4.78,5.08,7.4L1.3,9.68A4.16,4.16,0,0,0,1,9.92.92.92,0,0,0,.68,11.3c.18.32.38.63.57.95l1.43,2.36c1.2,2,2.4,4,3.61,6a.93.93,0,0,0,1.33.47,3.78,3.78,0,0,0,.4-.22l3.38-2,9.13-5.5A1.62,1.62,0,0,0,21.35,12c.15-1,.33-2,.49-3,.07-.37.13-.74.19-1.11s.11-.63.16-1c.11-.63.22-1.25.31-1.87s-.08-.77-.6-.94l-.78-.26L15,1.89A.67.67,0,0,0,14.65,1.82Z"/><path class="cls-2" d="M17,11c.19.38-.07.75-.54.77-.72,0-1.45,0-2.18,0l-6.85.09H7.16a.54.54,0,0,1-.53-.54.51.51,0,0,1,.52-.54l1.55,0,7.62-.1C16.6,10.71,16.84,10.74,17,11Z"/><path class="cls-2" d="M8.87,16a2,2,0,0,1,.82-2.53,2,2,0,0,1,2.56.83,2,2,0,0,1-.83,2.54A2,2,0,0,1,8.87,16Z"/><path class="cls-2" d="M14.8,6.68a2,2,0,0,1-.86,2.51,2,2,0,0,1-2.54-.87,2,2,0,0,1,.87-2.52A2,2,0,0,1,14.8,6.68Z"/></svg>