<svg xmlns="http://www.w3.org/2000/svg" xmlns:xlink="http://www.w3.org/1999/xlink" viewBox="0 0 50 50"><defs><style>.a{fill:url(#a);}.b{fill:url(#b);}.c{fill:url(#c);}.d{fill:url(#d);}.e,.g,.i{opacity:0.3;}.e{fill:url(#e);}.f{fill:url(#f);}.g{fill:url(#g);}.h{fill:url(#h);}.i{fill:url(#i);}.j{fill:url(#j);}</style><linearGradient id="a" y1="25" x2="50" y2="25" gradientUnits="userSpaceOnUse"><stop offset="0" stop-color="#5080b1"/><stop offset="0.12" stop-color="#477dae"/><stop offset="0.31" stop-color="#2d73a7"/><stop offset="0.56" stop-color="#04649c"/><stop offset="0.58" stop-color="#00639b"/><stop offset="1" stop-color="#004e8c"/></linearGradient><linearGradient id="b" x1="1.39" y1="39.68" x2="10.86" y2="37.35" gradientUnits="userSpaceOnUse"><stop offset="0" stop-color="#8fccd5"/><stop offset="0.5" stop-color="#5bbac7"/><stop offset="1" stop-color="#00aab9"/></linearGradient><linearGradient id="c" x1="48.68" y1="39.67" x2="43.55" y2="37.93" xlink:href="#b"/><linearGradient id="d" x1="2.98" y1="25" x2="46.7" y2="25" gradientUnits="userSpaceOnUse"><stop offset="0" stop-color="#b1dae0"/><stop offset="0.5" stop-color="#82c7d1"/><stop offset="0.62" stop-color="#75c3ce"/><stop offset="0.84" stop-color="#62bcc9"/><stop offset="1" stop-color="#5bbac7"/></linearGradient><linearGradient id="e" x1="-637.62" y1="-823.61" x2="-644.79" y2="-816.44" gradientTransform="translate(-783.88 654.57) rotate(90)" gradientUnits="userSpaceOnUse"><stop offset="0" stop-color="#77b2c6"/><stop offset="0.5" stop-color="#349ab4"/><stop offset="1" stop-color="#0089a6"/></linearGradient><linearGradient id="f" x1="43.8" y1="5.88" x2="34.82" y2="14.86" xlink:href="#d"/><linearGradient id="g" x1="-92.44" y1="-172.24" x2="-87.97" y2="-167.77" gradientTransform="translate(-157.24 107) rotate(90)" xlink:href="#e"/><linearGradient id="h" x1="9.31" y1="13.89" x2="13.42" y2="18" gradientUnits="userSpaceOnUse"><stop offset="0" stop-color="#d0e7ea"/><stop offset="0.5" stop-color="#a9d7de"/><stop offset="0.73" stop-color="#9fd2da"/><stop offset="1" stop-color="#98cfd8"/></linearGradient><linearGradient id="i" x1="35.71" y1="42.24" x2="40.2" y2="42.24" gradientTransform="matrix(1, 0, 0, 1, 0, 0)" xlink:href="#e"/><linearGradient id="j" x1="38.2" y1="41.95" x2="34.13" y2="46.02" xlink:href="#b"/></defs><title>Menu</title><path class="a" d="M24.84,47.79a22.71,22.71,0,0,1-12.25-3.58,7.69,7.69,0,0,1-4.8,1.69A7.81,7.81,0,0,1,0,38.1a7.63,7.63,0,0,1,3.22-6.17A21.82,21.82,0,0,1,2.05,25,22.82,22.82,0,0,1,24.84,2.21a22.46,22.46,0,0,1,9.07,1.94,8.15,8.15,0,0,1,5.3-1.94,8.28,8.28,0,0,1,8.26,8.27,8.17,8.17,0,0,1-1.9,5.23A22.35,22.35,0,0,1,47.63,25,21.43,21.43,0,0,1,47,30.2,9.1,9.1,0,0,1,50,37a9.22,9.22,0,0,1-9.21,9.21,8.11,8.11,0,0,1-1.38-.11,4,4,0,0,1-6.09,0A22.48,22.48,0,0,1,24.84,47.79ZM12.42,41.85l.62.43a20.89,20.89,0,0,0,20.28,1.83l.85-.38.38.85a2,2,0,0,0,3.58.08l.32-.66.72.16a7.24,7.24,0,0,0,1.62.2,7.33,7.33,0,0,0,4.55-13.1l-.48-.38L45,30.3a20.74,20.74,0,0,0,.76-5.3,20.71,20.71,0,0,0-2.14-9l-.28-.58.45-.46a6.36,6.36,0,0,0,1.81-4.43,6.4,6.4,0,0,0-10.9-4.57l-.46.45-.58-.27a20.61,20.61,0,0,0-8.84-2A21,21,0,0,0,3.91,25,20.61,20.61,0,0,0,5.2,32l.25.71-.65.39a5.88,5.88,0,1,0,7.08,9.27Z"/><circle class="b" cx="7.79" cy="38.1" r="6.87"/><circle class="c" cx="40.79" cy="37" r="8.29"/><circle class="d" cx="24.84" cy="25" r="21.86"/><ellipse class="e" cx="36.06" cy="13.28" rx="5.9" ry="5.82" transform="translate(8.27 39.83) rotate(-63.91)"/><circle class="f" cx="39.21" cy="10.48" r="7.34"/><ellipse class="g" cx="12.61" cy="16.95" rx="3.18" ry="3.67" transform="translate(-5.4 27.98) rotate(-84.82)"/><circle class="h" cx="11.5" cy="16.08" r="3.16"/><circle class="i" cx="37.73" cy="42.24" r="2.28"/><circle class="j" cx="36.37" cy="43.78" r="2.92"/></svg>